<?xml version="1.0" encoding="UTF-8" standalone="no"?>
<!-- Created with Inkscape (http://www.inkscape.org/) -->

<svg
   xmlns:dc="http://purl.org/dc/elements/1.1/"
   xmlns:cc="http://creativecommons.org/ns#"
   xmlns:rdf="http://www.w3.org/1999/02/22-rdf-syntax-ns#"
   xmlns:svg="http://www.w3.org/2000/svg"
   xmlns="http://www.w3.org/2000/svg"
   xmlns:sodipodi="http://sodipodi.sourceforge.net/DTD/sodipodi-0.dtd"
   xmlns:inkscape="http://www.inkscape.org/namespaces/inkscape"
   width="190mm"
   height="190mm"
   viewBox="0 0 673.22835 673.22834"
   id="svg5400"
   version="1.1"
   inkscape:version="0.91 r13725"
   sodipodi:docname="rfx433Mhz_service.svg">
  <defs
     id="defs5402" />
  <sodipodi:namedview
     id="base"
     pagecolor="#ffffff"
     bordercolor="#666666"
     borderopacity="1.0"
     inkscape:pageopacity="0.0"
     inkscape:pageshadow="2"
     inkscape:zoom="0.49497475"
     inkscape:cx="475.10677"
     inkscape:cy="500.39093"
     inkscape:document-units="px"
     inkscape:current-layer="layer1"
     showgrid="false"
     inkscape:snap-center="false"
     inkscape:snap-bbox="true"
     inkscape:snap-object-midpoints="true"
     inkscape:snap-global="false"
     inkscape:window-width="1400"
     inkscape:window-height="1001"
     inkscape:window-x="0"
     inkscape:window-y="25"
     inkscape:window-maximized="1" />
  <metadata
     id="metadata5405">
    <rdf:RDF>
      <cc:Work
         rdf:about="">
        <dc:format>image/svg+xml</dc:format>
        <dc:type
           rdf:resource="http://purl.org/dc/dcmitype/StillImage" />
        <dc:title></dc:title>
      </cc:Work>
    </rdf:RDF>
  </metadata>
  <g
     inkscape:label="Layer 1"
     inkscape:groupmode="layer"
     id="layer1"
     transform="translate(0,-379.13386)">
    <g
       id="g7052"
       transform="translate(-62.629457,36.365491)">
      <path
         inkscape:connector-curvature="0"
         id="path6032"
         d="m 385.70713,450.80236 c -1.42571,-2.28289 -1.25978,-4.22968 1.01006,-11.85138 2.4492,-8.22398 3.10827,-9.19823 6.70958,-9.91849 7.36726,-1.47345 10.05894,0.72143 13.13067,10.70715 2.42919,7.89696 2.54133,9.28888 0.85087,10.56102 -1.0709,0.80592 -1.5064,1.95158 -0.96777,2.54595 0.53865,0.59438 -0.11983,0.68505 -1.46319,0.20152 -1.34341,-0.48353 -3.32897,-0.87916 -4.41234,-0.87916 -1.08336,0 -1.62171,-0.56317 -1.19631,-1.25148 0.42538,-0.68829 1.86204,-1.04181 3.19253,-0.78558 1.33052,0.25624 3.26802,-0.0715 4.30559,-0.72826 1.19082,-0.75377 -2.53895,-1.1867 -10.11432,-1.17399 -9.05179,0.0151 -11.4075,0.36525 -9.58635,1.42458 1.32797,0.77246 3.25889,1.08044 4.29093,0.68441 1.03205,-0.39603 2.2311,-0.14617 2.66456,0.55513 0.43346,0.70134 -0.0983,1.27519 -1.18166,1.27519 -1.08339,0 -2.77014,0.30712 -3.74836,0.68249 -0.97822,0.37539 -2.54624,-0.54671 -3.48449,-2.0491 z m 23.07151,-9.53944 c -0.34672,-0.96882 -1.39432,-4.14785 -2.328,-7.06449 -1.97128,-6.15792 -6.02269,-8.22577 -13.4034,-6.84114 -4.29362,0.80548 -4.99856,1.56537 -6.97641,7.52015 -1.21011,3.64326 -2.6185,6.62413 -3.12975,6.62413 -4.47711,0 -9.10499,-9.08309 -11.37979,-22.33487 -0.7866,-4.5824 1.15844,-5.83151 4.25645,-2.73351 1.17712,1.17713 1.99327,1.20693 3.08744,0.11281 1.09418,-1.09419 0.91794,-2.62876 -0.66671,-5.80526 -2.41454,-4.84007 -2.71841,-8.95169 -0.87677,-11.86353 1.00163,-1.58369 1.47785,-1.32006 2.50752,1.38821 0.6991,1.83875 2.22525,4.13507 3.39146,5.10295 1.90876,1.58412 2.09563,0.7802 1.87249,-8.05536 -0.22002,-8.71217 0.21756,-10.67145 3.89406,-17.43596 4.75736,-8.75321 5.72513,-7.92496 5.72513,4.8998 0,8.3923 1.82626,12.22732 4.91062,10.31198 0.81821,-0.50809 1.69815,-2.42389 1.95542,-4.25736 l 0.4678,-3.33355 3.00021,3.0002 c 2.22236,2.22236 3.00019,4.55586 3.00019,9.00062 0,6.62309 1.31633,7.54449 4.31856,3.02287 1.85956,-2.80061 2.03446,-2.36445 2.94391,7.34062 l 0.96688,10.31816 3.42273,-2.69231 c 1.88249,-1.48078 3.5816,-2.53343 3.77578,-2.33923 0.70677,0.70675 -2.02666,12.94393 -3.88451,17.39039 -2.25041,5.38599 -9.85727,11.5014 -10.85131,8.72372 z"
         style="fill:#008080;stroke:#008080;stroke-width:0.44881055;stroke-miterlimit:4;stroke-dasharray:none" />
      <path
         inkscape:connector-curvature="0"
         id="path6045"
         d="m 602.85557,840.99172 0.42163,-9.62479 28.51789,0 28.51789,0 0.42162,9.62479 0.42163,9.62479 -29.36114,0 -29.36114,0 0.42162,-9.62479 z m 9.22952,3.06436 c 0.48178,-1.25552 0.0682,-2.78198 -0.91904,-3.39213 -1.41546,-0.87482 -1.38402,-1.27368 0.1487,-1.88639 1.5934,-0.63695 1.55822,-1.04425 -0.19513,-2.25987 -1.5602,-1.08171 -2.71749,-0.89462 -4.27769,0.69153 -1.90338,1.93505 -1.8249,2.42141 0.71295,4.41795 2.30291,1.81171 2.37152,2.078 0.35648,1.3835 -2.47098,-0.85164 -3.37795,0.54434 -1.54472,2.37757 1.71795,1.71794 4.82584,0.99393 5.71845,-1.33216 z m 9.01579,0.85685 c 0,-0.78424 -1.12289,-1.471 -2.49532,-1.52611 -2.04242,-0.082 -2.10713,-0.27612 -0.35647,-1.06942 3.62458,-1.64246 2.99334,-5.95984 -0.87138,-5.95984 -2.78966,0 -3.4063,0.73137 -3.4063,4.04004 0,2.22202 0.42777,4.4678 0.9506,4.99064 1.47918,1.47916 6.17887,1.11765 6.17887,-0.47531 z m 6.76586,-0.24641 c 1.34183,1.97349 1.6325,1.40065 1.68382,-3.31833 0.0479,-4.40369 -0.28271,-5.21612 -1.45059,-3.56474 -1.13831,1.60957 -1.69158,1.69779 -2.23583,0.35648 -1.47375,-3.63201 -3.33595,-1.61553 -3.29202,3.56473 0.0392,4.63065 0.28837,5.02751 1.85909,2.96186 1.69548,-2.22974 1.91947,-2.22974 3.43553,0 z m 9.99927,0.0217 c 1.25025,-1.25026 2.16198,-1.22625 3.75877,0.099 1.57434,1.30659 2.85326,1.35079 5.05106,0.17457 1.96491,-1.05158 2.94293,-1.08448 2.94293,-0.099 0,2.58586 2.84984,1.58326 2.89713,-1.01925 0.0425,-2.33675 0.1697,-2.33131 2.00196,0.0853 2.17003,2.86214 3.01444,1.97469 2.97175,-3.12317 -0.0349,-4.176 -6.04702,-7.1442 -7.3887,-3.64787 -0.74048,1.9297 -1.09941,1.93493 -3.1862,0.0463 -2.5421,-2.30057 -4.59415,-1.5784 -6.75072,2.37576 -1.23504,2.26452 -1.64067,2.29897 -4.15581,0.35298 -2.30212,-1.78117 -2.35291,-2.00525 -0.29188,-1.28748 3.00406,1.04617 3.39162,-1.63885 0.40213,-2.78601 -2.44638,-0.93878 -4.32334,1.44414 -4.32334,5.48874 0,4.45897 3.19446,6.21644 6.07092,3.33998 z m 4.0102,-2.46548 c -0.42978,-0.69538 0.11692,-2.00984 1.21479,-2.92103 2.22258,-1.84458 4.49852,0.27499 2.96304,2.75946 -1.0911,1.76543 -3.13767,1.84458 -4.17783,0.16157 z m 10.59435,-3.01336 c 0,-0.78424 0.28296,-1.4259 0.62879,-1.4259 0.34584,0 1.02536,0.64166 1.51005,1.4259 0.48469,0.78424 0.20174,1.42589 -0.62879,1.42589 -0.83052,0 -1.51005,-0.64165 -1.51005,-1.42589 z m -25.3231,-18.51728 c -0.97289,-1.55785 -1.7689,-4.45693 -1.7689,-6.44244 0,-1.98548 -3.21411,-10.01485 -7.14247,-17.84303 -3.92836,-7.82816 -6.65538,-14.2125 -6.06006,-14.18741 0.59534,0.0251 4.92658,6.44163 9.62499,14.25895 4.97012,8.2694 9.47218,14.21332 10.76551,14.21332 5.2974,0 7.41332,6.58344 3.40439,10.59236 -3.05767,3.05768 -6.69678,2.81363 -8.82346,-0.59175 z m -26.91401,-21.92628 c -2.24715,-1.93411 -3.58504,-4.01836 -2.9731,-4.63166 0.61195,-0.61332 2.82371,0.59595 4.91502,2.68727 4.94287,4.94287 3.37078,6.51698 -1.94192,1.94439 z m 57.94069,2.19297 c 0,-1.83988 7.01363,-7.96917 7.99548,-6.98733 0.48248,0.48248 -0.89199,2.51692 -3.05439,4.52096 -4.24226,3.9316 -4.94109,4.28042 -4.94109,2.46637 z m -50.3816,-8.32862 c -0.52284,-0.52284 -0.95061,-1.61365 -0.95061,-2.42403 0,-0.89348 0.66414,-0.80929 1.68731,0.21389 0.92803,0.92801 1.3558,2.01882 0.9506,2.42402 -0.4052,0.40518 -1.16449,0.30893 -1.6873,-0.21388 z m 46.13252,-1.22271 c 0.99202,-1.19531 2.09732,-1.87966 2.45622,-1.52076 0.98884,0.98884 -1.0203,3.69405 -2.74357,3.69405 -0.94551,0 -0.83733,-0.81815 0.28735,-2.17329 z m -8.91027,-4.09217 c 1.35582,-2.66176 2.89435,-4.581 3.41894,-4.26498 1.26813,0.76393 -2.93929,9.10455 -4.5928,9.10455 -0.71021,0 -0.18197,-2.1778 1.17386,-4.83957 z m -15.65467,-2.23519 c -0.39101,-2.66417 0.0756,-4.48982 1.26405,-4.94588 1.33809,-0.51347 1.88387,0.70999 1.88387,4.22298 0,6.03719 -2.29073,6.56325 -3.14792,0.7229 z m -8.25924,-0.76766 c 0,-1.17637 0.25217,-2.13884 0.56039,-2.13884 0.30822,0 0.92973,0.96247 1.38115,2.13884 0.45141,1.17636 0.19923,2.13884 -0.5604,2.13884 -0.75962,0 -1.38114,-0.96248 -1.38114,-2.13884 z m 17.11074,0.88126 c 0,-0.78424 0.64165,-1.82247 1.42589,-2.30716 0.78424,-0.48469 1.42589,-0.23959 1.42589,0.54465 0,0.78424 -0.64165,1.82245 -1.42589,2.30714 -0.78424,0.48469 -1.42589,0.23961 -1.42589,-0.54463 z"
         style="fill:#008080;stroke:#008080;stroke-width:0.42776838;stroke-miterlimit:4;stroke-dasharray:none" />
      <path
         inkscape:connector-curvature="0"
         id="path6077"
         d="m 547.31173,944.23831 c -2.09932,-0.56141 -2.0052,-1.59454 0.86815,-9.52997 1.77251,-4.89519 4.38707,-9.55192 5.81017,-10.34832 4.35734,-2.43849 8.82144,0.77743 10.92802,7.87251 1.04249,3.51114 2.6089,7.25806 3.48091,8.32646 1.1666,1.42936 1.02989,2.29415 -0.51746,3.27327 -2.09586,1.32621 -16.09553,1.60257 -20.56979,0.40605 z m 11.87547,-3.51121 c 0,-0.75807 -0.9887,-1.3783 -2.19712,-1.3783 -2.26511,0 -2.91002,1.72835 -1.26045,3.37794 1.17023,1.17023 3.45757,-0.15262 3.45757,-1.99964 z m -56.55755,-21.19815 c -1.33613,-2.03917 -2.01045,-4.12644 -1.49852,-4.63838 0.51193,-0.51194 0.93079,-0.20888 0.93079,0.67346 0,2.82237 4.48676,6.20776 8.22733,6.20776 3.58493,0 10.81443,-5.80266 10.81443,-8.68004 0,-0.81921 -2.08792,-2.0305 -4.63982,-2.69176 -6.09388,-1.57907 -8.11539,-4.85779 -6.26178,-10.15598 1.26352,-3.61154 2.26987,-4.15906 8.36607,-4.5518 l 6.92978,-0.44644 0,5.25393 c 0,2.88966 -0.96527,7.56414 -2.14505,10.38777 -1.17979,2.82362 -1.55744,4.77068 -0.83925,4.32681 2.17134,-1.34197 4.72153,-10.75967 4.95836,-18.31094 0.1838,-5.86022 -0.12904,-6.81981 -1.77681,-5.44999 -1.59197,1.32343 -1.88527,1.07451 -1.43799,-1.22033 0.30904,-1.58558 -0.72251,-4.36594 -2.29234,-6.17857 -3.99291,-4.61051 -10.3047,-4.30336 -15.05026,0.73238 -3.1723,3.36629 -3.51465,3.48911 -2.08375,0.74753 2.57762,-4.93873 9.42611,-8.00813 13.99339,-6.27165 2.05931,0.78295 3.7442,2.04838 3.7442,2.81206 0,2.04664 18.88316,14.13052 25.31883,16.20227 7.97105,2.56599 10.41041,6.85644 8.03383,14.13019 l -1.86327,5.70268 -16.11088,0.97305 c -17.15316,1.03602 -20.55372,1.51679 -22.17161,3.13468 -0.5604,0.56039 -3.20084,1.0189 -5.86764,1.0189 -3.5716,0 -5.48861,-0.97656 -7.27804,-3.70759 z m 16.5146,-20.09461 c -0.40633,-1.00702 -0.73879,-0.1831 -0.73879,1.83094 0,2.01403 0.33246,2.83795 0.73879,1.83094 0.40634,-1.00702 0.40634,-2.65487 0,-3.66188 z m -19.57291,6.22519 c 0,-4.43087 0.2746,-6.2435 0.6102,-4.02807 0.33562,2.21544 0.33562,5.8407 0,8.05613 -0.3356,2.21544 -0.6102,0.40281 -0.6102,-4.02806 z m 1.14147,-10.86357 c -0.0636,-1.54409 0.28259,-2.40921 0.76931,-1.92249 0.48673,0.48672 0.53877,1.75007 0.11557,2.80744 -0.46759,1.16848 -0.81468,0.82141 -0.88495,-0.88495 z"
         style="fill:#008080;stroke:#008080;stroke-width:0.43942529;stroke-miterlimit:4;stroke-dasharray:none" />
      <path
         inkscape:connector-curvature="0"
         id="path6092"
         d="m 157.34659,846.3011 c -5.27886,-1.38173 -10.24879,-5.96562 -10.24879,-9.4527 0,-3.22667 -4.79524,-3.73356 -5.98515,-0.63265 -0.43444,1.13209 -1.9782,2.05834 -3.43058,2.05834 -1.4524,0 -2.99616,-0.92625 -3.43059,-2.05834 -0.49298,-1.28469 -2.58699,-2.05835 -5.57124,-2.05835 -4.35628,0 -4.90843,-0.45752 -6.21047,-5.14586 -2.26028,-8.13893 -2.02644,-8.57646 4.58385,-8.57646 4.20707,0 6.27751,-0.6496 6.85337,-2.15025 1.02384,-2.66813 8.57334,-2.17893 8.01677,0.51948 -0.26487,1.28413 1.07593,1.67729 4.67967,1.37223 5.24139,-0.4437 5.47593,-0.80518 6.23611,-9.61126 0.19247,-2.22971 1.56586,-4.36208 3.46365,-5.37775 4.95146,-2.64995 3.74416,-4.91144 -3.02959,-5.67494 -6.90197,-0.77794 -10.29249,-2.92697 -10.29249,-6.52369 0,-6.59578 27.74778,-8.60614 35.19331,-2.54979 4.26937,3.47277 -2.91448,9.41249 -11.38402,9.41249 -3.7961,0 -4.14306,2.20095 -0.91011,5.77331 1.27366,1.40736 2.66304,5.16101 3.08753,8.34144 0.72078,5.40022 1.08196,5.81218 5.46181,6.22979 3.19483,0.30462 5.07581,-0.24222 5.90018,-1.7153 1.51035,-2.69888 6.0586,-2.81959 7.52475,-0.19973 0.62695,1.12031 3.73121,2.15104 7.23238,2.40142 l 6.13397,0.43866 0.0401,6.17505 0.0401,6.17504 -6.174,0.43868 c -3.53638,0.25125 -6.64325,1.27718 -7.27241,2.4014 -1.44594,2.58376 -6.32321,2.52012 -7.32695,-0.0957 -1.31933,-3.43812 -3.77123,-2.30976 -6.90317,3.17678 -3.41569,5.98366 -9.67011,8.63813 -16.27784,6.90856 z m 10.14705,-4.48046 c 0.86866,-0.53686 2.51293,-2.78137 3.65392,-4.9878 1.81767,-3.515 1.83084,-4.59488 0.10631,-8.72204 -1.86525,-4.46416 -5.65281,-7.67572 -9.05239,-7.67572 -0.86952,0 -1.09349,0.74894 -0.51292,1.71529 0.7418,1.23471 0.40016,1.20434 -1.21939,-0.10844 -1.45939,-1.18293 -3.01658,-1.39465 -4.43189,-0.6026 -1.96398,1.09909 -1.93687,1.44186 0.27121,3.4309 1.34924,1.21539 3.35532,2.41282 4.45791,2.66094 3.4728,0.7815 5.07842,2.94652 4.48549,6.04828 -0.71815,3.75667 -5.19008,2.96532 -7.39611,-1.3088 -2.8357,-5.4941 -5.64059,-7.96124 -6.8624,-6.03606 -4.12708,6.50293 3.17422,17.92979 10.88293,17.03225 2.22082,-0.25857 4.74857,-0.9094 5.61723,-1.44626 z m -8.04575,-47.41491 c 0,-0.73103 -0.92625,-0.97372 -2.05835,-0.53929 -1.13209,0.43442 -2.05835,1.03254 -2.05835,1.32916 0,0.29661 0.92626,0.53931 2.05835,0.53931 1.1321,0 2.05835,-0.59813 2.05835,-1.32918 z m 6.86116,0.78987 c 0,-0.29662 -0.95833,-0.90704 -2.12962,-1.35651 -1.22118,-0.46861 -1.77199,-0.23856 -1.29124,0.53929 0.80585,1.30392 3.42086,1.92861 3.42086,0.81722 z m -11.37503,-4.432 c -0.83494,-0.83492 -6.46399,1.21803 -6.46399,2.35747 0,0.65051 1.54637,0.47819 3.43638,-0.38296 1.89001,-0.86114 3.25243,-1.74965 3.02761,-1.97451 z m 19.02358,2.39068 c -0.7482,-1.21058 -7.64855,-3.00382 -7.64855,-1.98767 0,0.60277 5.55519,2.97354 7.28521,3.10907 0.61058,0.0479 0.77408,-0.45678 0.36334,-1.1214 z m 15.93853,11.11458 c -4.54747,-0.7362 -4.98717,-3.28473 -2.2874,-13.2584 1.3137,-4.85327 2.01812,-9.78947 1.56537,-10.96934 -0.45276,-1.17988 -0.2938,-2.14523 0.35326,-2.14523 0.64703,0 1.60685,2.2943 2.13291,5.09845 0.52606,2.80415 1.82978,6.78726 2.89717,8.85136 3.94339,7.62567 1.75366,13.46169 -4.66131,12.42316 z"
         style="fill:#008080;stroke:#008080;stroke-width:0.41166961;stroke-miterlimit:4;stroke-dasharray:none" />
      <path
         inkscape:connector-curvature="0"
         id="path6105"
         d="m 361.57589,967.21462 c -1.11877,-4.17465 -1.12424,-31.79081 -0.007,-37.37495 l 0.87734,-4.38673 32.70122,0 32.70121,0 1.01483,4.5622 c 1.31255,5.90072 1.31255,29.89501 0,35.79573 l -1.01483,4.5622 -32.71296,0 -32.71295,0 -0.84644,-3.15845 z m 46.14099,-21.9779 0,-14.60818 -19.65255,0.16681 c -10.80891,0.0918 -20.12632,0.19062 -20.70537,0.21972 -0.57905,0.029 -1.05282,6.70251 -1.05282,14.82983 l 0,14.77695 20.70537,-0.38848 20.70537,-0.38846 0,-14.60819 z m -22.6145,7.21699 c -0.85701,-0.56723 -1.46267,-3.55808 -1.34592,-6.64634 0.19721,-5.21682 0.50216,-5.61501 4.30018,-5.61501 3.76792,0 4.11577,0.43593 4.44418,5.56936 0.42723,6.67835 -2.88818,9.6772 -7.39844,6.69199 z m 5.06758,-3.13695 c 0,-0.77207 -0.94754,-1.40375 -2.10563,-1.40375 -1.1581,0 -2.10563,0.63168 -2.10563,1.40375 0,0.77206 0.94753,1.40375 2.10563,1.40375 1.15809,0 2.10563,-0.63169 2.10563,-1.40375 z m -0.77598,-7.13866 c -0.45198,-0.73132 -1.42012,-0.95986 -2.15142,-0.50788 -0.73132,0.45196 -0.95986,1.4201 -0.5079,2.15142 0.45198,0.73131 1.42013,0.95986 2.15144,0.50788 0.7313,-0.45197 0.95986,-1.42011 0.50788,-2.15142 z m -14.00253,5.91289 c 0.65565,-2.98516 0.29671,-4.25936 -1.3812,-4.90323 -2.9033,-1.11409 -1.36272,-3.69728 2.20501,-3.69728 2.29339,0 2.72467,0.99985 2.72467,6.31689 0,4.82041 -0.52526,6.3169 -2.21718,6.3169 -1.71148,0 -2.01511,-0.9199 -1.3313,-4.03328 z m 20.39352,-5.64281 c 0,-2.66642 3.20466,-4.90013 4.7759,-3.32889 2.01423,2.01423 0.70816,5.98621 -1.96839,5.98621 -1.81879,0 -2.80751,-0.93584 -2.80751,-2.65732 z m 4.21127,-0.15019 c 0,-0.77206 -0.63169,-1.40375 -1.40376,-1.40375 -0.77206,0 -1.40375,0.63169 -1.40375,1.40375 0,0.77206 0.63169,1.40375 1.40375,1.40375 0.77207,0 1.40376,-0.63169 1.40376,-1.40375 z m 21.0563,0.52999 c 0,-1.06356 -1.26337,-1.93374 -2.8075,-1.93374 -2.94314,0 -3.37968,1.08684 -1.9417,4.83416 0.67013,1.74635 1.30462,1.89208 2.8075,0.6448 1.06794,-0.8863 1.9417,-2.48165 1.9417,-3.54522 z m -0.70187,-6.86611 c 0,-3.92779 -4.11154,-3.49252 -4.6762,0.49504 -0.36056,2.54616 0.11216,3.17219 2.10563,2.78829 1.46267,-0.28169 2.57057,-1.69677 2.57057,-3.28333 z"
         style="fill:#008080;stroke:#008080;stroke-width:0.42112619;stroke-miterlimit:4;stroke-dasharray:none" />
      <path
         inkscape:connector-curvature="0"
         id="path6124"
         d="m 503.9063,455.79459 0,-24.07206 2.90001,0.41187 c 2.86761,0.40726 2.90394,0.66733 3.25196,23.28971 0.21063,13.69057 -0.13523,22.87785 -0.86125,22.87785 -0.66727,0 -2.13065,0.35205 -3.25197,0.78234 -1.81423,0.69619 -2.03875,-1.86867 -2.03875,-23.28971 z m 7.73335,0.0896 0,-23.98242 3.22224,0 3.22223,0 0,23.20007 c 0,13.22979 -0.5086,23.20008 -1.18348,23.20008 -0.65091,0 -2.10092,0.35204 -3.22223,0.78234 -1.81406,0.69612 -2.03876,-1.86077 -2.03876,-23.20007 z m 7.73336,0 0,-23.98242 3.22223,0 3.22224,0 0,23.20007 c 0,13.22979 -0.5086,23.20008 -1.18348,23.20008 -0.65092,0 -2.10092,0.35204 -3.22223,0.78234 -1.81407,0.69612 -2.03876,-1.86077 -2.03876,-23.20007 z m 7.73336,0 0,-23.98242 3.22223,0 3.22223,0 0,23.20007 c 0,13.22979 -0.50859,23.20008 -1.18347,23.20008 -0.65092,0 -2.10092,0.35204 -3.22223,0.78234 -1.81407,0.69612 -2.03876,-1.86077 -2.03876,-23.20007 z m 7.73336,0 0,-23.98242 3.22223,0 3.22223,0 0,23.20007 c 0,13.22979 -0.5086,23.20008 -1.18347,23.20008 -0.65092,0 -2.10093,0.35204 -3.22224,0.78234 -1.81406,0.69612 -2.03875,-1.86077 -2.03875,-23.20007 z m 8.45243,22.70717 c -0.39549,-0.3955 -0.71908,-11.06244 -0.71908,-23.70434 l 0,-22.98525 3.22224,0 3.22223,0 0,23.04975 c 0,21.7367 -0.14259,23.08704 -2.50316,23.70434 -1.37673,0.36001 -2.82674,0.331 -3.22223,-0.0645 z m 7.01428,-22.70717 0,-23.98242 3.22223,0 c 3.19992,0 3.22224,0.0808 3.22224,11.67611 0,7.56988 0.46,11.39179 1.30805,10.86767 0.74669,-0.46147 1.24161,-5.749 1.15323,-12.32055 l -0.15484,-11.51212 -28.21997,0 -28.21998,0 0,-5.15557 0,-5.15557 28.92402,0 c 15.90822,0 29.16091,0.435 29.45042,0.96666 0.28952,0.53167 0.25101,9.84584 -0.0856,20.69816 -0.49732,16.03485 -0.9439,19.60411 -2.38366,19.05161 -1.39853,-0.53666 -1.77168,1.2119 -1.77168,8.30194 0,4.93999 -0.53257,8.98181 -1.18348,8.98181 -0.65091,0 -2.10092,0.35204 -3.22223,0.78234 -1.81406,0.69612 -2.03876,-1.86077 -2.03876,-23.20007 z"
         style="fill:#008080;stroke:#008080;stroke-width:0.38666788;stroke-miterlimit:4;stroke-dasharray:none" />
      <path
         inkscape:connector-curvature="0"
         id="path6139"
         d="m 135.63804,711.86889 c -2.65628,-1.07175 -3.7224,-2.65994 -2.35349,-3.50597 1.36963,-0.84648 3.5194,-6.10399 4.38416,-10.72198 0.81843,-4.37051 3.75576,-6.77874 8.26808,-6.77874 4.3548,0 5.96262,1.91772 8.43659,10.0627 1.15941,3.81711 2.51399,7.19111 3.01018,7.49777 1.70162,1.05166 0.89925,2.24489 -2.24707,3.3417 -3.69286,1.28734 -16.39808,1.35545 -19.49845,0.10452 z m 1.14059,-2.99524 c 0.35034,-0.56686 -0.0511,-0.7345 -0.94098,-0.39301 -1.73242,0.66479 -2.04939,1.38156 -0.61095,1.38156 0.51754,0 1.21591,-0.44485 1.55193,-0.98855 z m 10.86871,-0.51145 c 0.41585,-1.08369 -0.10953,-1.5 -1.89301,-1.5 -2.4004,0 -3.15638,0.9789 -1.80195,2.33333 1.15986,1.15986 3.09782,0.72278 3.69496,-0.83333 z m -6.36163,-1.05902 c 0,-0.24254 -0.70155,-0.44098 -1.55901,-0.44098 -0.85746,0 -1.27637,0.45734 -0.93091,1.01631 0.57081,0.92358 2.48992,0.48015 2.48992,-0.57533 z m 11,0 c 0,-0.24254 -0.70155,-0.44098 -1.55901,-0.44098 -0.85746,0 -1.27637,0.45734 -0.93091,1.01631 0.57081,0.92358 2.48992,0.48015 2.48992,-0.57533 z M 113.78959,688.9209 c -1.09787,-0.41665 -3.79787,-0.56404 -6,-0.32755 -3.58043,0.38452 -4.46222,-0.002 -8.337733,-3.65058 -2.38362,-2.24431 -4.69484,-4.08057 -5.13606,-4.08057 -1.33546,0 -4.03009,-6.59747 -4.03009,-9.8672 0,-6.73898 5.46742,-13.1328 11.229983,-13.1328 1.33177,0 3.51234,-1.16879 4.84571,-2.59732 7.2407,-7.75741 18.44986,-8.41093 26.27877,-1.53209 1.01996,0.89617 3.56827,1.65705 5.66292,1.69084 4.17569,0.0674 10.61638,3.79665 11.55152,6.68857 0.32737,1.01241 1.56049,1.75 2.92569,1.75 3.28216,0 8.18257,6.09668 7.92229,9.85626 -0.21673,3.13044 -2.07873,7.21803 -3.81658,8.37843 -0.60516,0.40407 -2.53707,0.74157 -4.29314,0.75 -1.75606,0.008 -4.71425,0.91296 -6.57375,2.0101 -1.85951,1.09713 -5.55007,2.64761 -8.20124,3.44549 -5.05303,1.52074 -20.59655,1.92078 -24.02829,0.61842 z m 30.24612,0.27902 c 0.6875,-0.27741 1.8125,-0.27741 2.5,0 0.6875,0.27741 0.125,0.50438 -1.25,0.50438 -1.375,0 -1.9375,-0.22697 -1.25,-0.50438 z"
         style="fill:#008080;stroke:#008080;stroke-width:0.30000001;stroke-miterlimit:4;stroke-dasharray:none" />
      <path
         inkscape:connector-curvature="0"
         id="path6152"
         d="m 165.84587,579.11148 c -3.92088,-5.16784 -4.0271,-10.70306 -0.28286,-14.74105 l 2.71791,-2.93115 -0.26273,-24.88302 -0.26274,-24.88302 5.18315,-0.33259 5.18313,-0.33258 0,25.58598 c 0,21.84913 0.24145,25.67864 1.65317,26.22036 1.53951,0.59077 3.73295,4.65675 4.44703,8.24347 0.4402,2.21107 -2.13992,6.7641 -5.45889,9.63306 -4.43188,3.83098 -9.26016,3.2406 -12.91717,-1.57946 z m 9.00231,-55.2533 c 0,-10.64629 -0.3176,-11.86771 -2.83466,-10.90183 -1.16241,0.44606 -1.5301,3.05022 -1.5301,10.83671 0,9.52209 0.1549,10.24955 2.18238,10.24955 2.02649,0 2.18238,-0.72746 2.18238,-10.18443 z m -37.5039,36.60293 c -0.29275,-0.47367 0.16325,-4.27919 1.01333,-8.45671 0.85006,-4.17752 2.08398,-10.45021 2.74202,-13.9393 1.09694,-5.81623 3.23561,-8.71062 5.07625,-6.86998 0.38262,0.38263 0.11591,3.75777 -0.59269,7.50033 -0.70861,3.74255 -1.5554,8.52327 -1.88176,10.62381 -1.16047,7.46891 -2.78274,12.00308 -4.29456,12.00308 -0.84168,0 -1.76984,-0.38755 -2.06259,-0.86123 z m 8.76925,0.13376 c -0.4001,-0.40009 -0.72746,-3.59182 -0.72746,-7.09273 l 0,-6.36526 5.45595,0 c 4.12226,0 5.45594,0.4001 5.45594,1.63678 0,1.09119 -1.09118,1.63679 -3.27356,1.63679 -1.80046,0 -3.27357,0.5219 -3.27357,1.15978 0,0.63787 1.05918,1.00615 2.35374,0.81839 1.29456,-0.18776 2.56307,0.2724 2.81891,1.0226 0.29302,0.85923 -0.578,1.36398 -2.35375,1.36398 -2.40465,0 -2.8189,0.48106 -2.8189,3.27357 0,3.0784 -1.82648,4.35693 -3.6373,2.5461 z m 33.09939,-3.63729 c 0,-0.60015 2.20966,-1.09119 4.91035,-1.09119 2.7007,0 4.91035,0.49104 4.91035,1.09119 0,0.60015 -2.20965,1.09119 -4.91035,1.09119 -2.70069,0 -4.91035,-0.49104 -4.91035,-1.09119 z m 0,-8.72951 c 0,-0.60016 1.19861,-1.09119 2.66357,-1.09119 1.46498,0 2.96706,0.49103 3.33797,1.09119 0.39346,0.63662 -0.71612,1.09119 -2.66357,1.09119 -1.83588,0 -3.33797,-0.49104 -3.33797,-1.09119 z m -52.81898,-3.45668 c -4.10717,-5.8638 0.49955,-15.04608 6.76023,-13.47475 4.63516,1.16335 6.58036,6.01954 2.4112,6.01954 -1.21244,0 -2.18238,-0.72747 -2.18238,-1.63679 0,-0.90023 -0.39282,-1.63678 -0.87295,-1.63678 -1.81934,0 -3.4918,2.73416 -3.4918,5.70842 0,3.82606 2.80194,5.16681 4.88931,2.33956 1.22803,-1.6633 1.77543,-1.78545 2.92382,-0.65242 2.23313,2.20326 -0.31087,5.09905 -4.81919,5.4856 -3.02434,0.25931 -4.26081,-0.21439 -5.61824,-2.15238 z m 52.81898,-4.18165 c 0,-0.60015 1.22759,-1.09118 2.72797,-1.09118 1.50039,0 2.72798,0.49103 2.72798,1.09118 0,0.60016 -1.22759,1.09119 -2.72798,1.09119 -1.50038,0 -2.72797,-0.49103 -2.72797,-1.09119 z m 0,-8.72951 c 0,-0.60015 1.19861,-1.09119 2.66357,-1.09119 1.46498,0 2.96706,0.49104 3.33797,1.09119 0.39346,0.63662 -0.71612,1.09119 -2.66357,1.09119 -1.83588,0 -3.33797,-0.49103 -3.33797,-1.09119 z m 1.36399,-8.39051 c 1.05027,-0.27446 2.76889,-0.27446 3.81916,0 1.05027,0.27447 0.19096,0.49903 -1.90958,0.49903 -2.10054,0 -2.95985,-0.22456 -1.90958,-0.49903 z m -1.36399,-7.97732 c 0,-0.60016 2.45518,-1.09119 5.45595,-1.09119 3.00077,0 5.45594,0.49103 5.45594,1.09119 0,0.60015 -2.45517,1.09119 -5.45594,1.09119 -3.00077,0 -5.45595,-0.49104 -5.45595,-1.09119 z"
         style="fill:#008080;stroke:#008080;stroke-width:0.32735673;stroke-miterlimit:4;stroke-dasharray:none" />
      <path
         inkscape:connector-curvature="0"
         id="path6165"
         d="m 642.95527,694.04615 0.3047,-21.58616 3.36567,-0.71888 c 1.85111,-0.39537 2.68114,-0.7786 1.84451,-0.85161 -1.17577,-0.10265 -1.4305,-2.10688 -1.12189,-8.82737 0.31938,-6.95509 0.93446,-9.44503 3.07433,-12.44529 3.04378,-4.26762 10.79008,-8.02918 16.53475,-8.02918 5.22806,0 11.98914,3.62136 15.60027,8.3558 2.58666,3.39129 2.98978,5.04293 3.15019,12.90684 0.13524,6.63056 0.5764,9.01929 1.66644,9.02313 4.09093,0.0145 4.68872,2.77986 4.6522,21.52145 -0.0261,13.44604 -0.43163,18.83244 -1.52604,20.27413 -1.3348,1.75838 -3.90983,1.96331 -24.67009,1.96331 l -23.17974,0 0.3047,-21.58617 z m 25.24661,5.92361 c -0.41568,-3.09914 -0.10456,-4.85156 1.02831,-5.79175 3.38577,-2.80994 -0.36831,-8.95379 -4.50185,-7.36761 -2.09909,0.8055 -2.59984,7.50603 -0.56094,7.50603 0.86496,0 1.05207,1.62192 0.58241,5.0485 -0.63168,4.6086 -0.48546,5.0485 1.67806,5.0485 2.11353,0 2.30553,-0.48093 1.77401,-4.44367 z m 10.34871,-35.66385 c -0.83893,-9.11905 -2.48949,-12.04659 -8.0452,-14.26956 -3.39087,-1.35675 -4.81643,-1.42497 -7.3144,-0.35 -5.88613,2.53299 -7.37345,5.09395 -8.09718,13.94219 l -0.67482,8.25012 12.41413,0 12.41412,0 -0.69665,-7.57275 z"
         style="fill:#008080;stroke:#008080;stroke-width:0.33656663;stroke-miterlimit:4;stroke-dasharray:none" />
      <path
         inkscape:connector-curvature="0"
         id="path6180"
         d="m 592.25287,546.95831 0,-29.1691 37.02233,0 37.02233,0 0,29.1691 0,29.16911 -37.02233,0 -37.02233,0 0,-29.16911 z m 35.3395,0 0,-26.36438 -4.48756,-0.23611 c -2.46815,-0.12985 -3.91373,0.0194 -3.21239,0.33157 0.90221,0.40163 0.68417,2.1113 -0.74552,5.84554 -2.91712,7.6193 -4.3131,10.03241 -11.09342,19.1764 -5.72045,7.71464 -6.00382,8.40158 -4.83988,11.73251 0.67998,1.94594 1.57841,5.93611 1.99651,8.86705 l 0.7602,5.32897 -5.73682,0 -5.73684,0 0,-25.19713 0,-25.19712 9.25558,-0.37795 9.25559,-0.37797 -9.81653,-0.22836 -9.81653,-0.22835 0,26.8038 0,26.80379 17.1088,-0.15894 17.10881,-0.15894 0,-26.36438 z m 36.46138,-0.0673 c 0,-14.77189 -0.37864,-26.85842 -0.84142,-26.85894 -0.46277,-5.2e-4 -0.69709,11.61103 -0.52071,25.80344 l 0.3207,25.80439 -5.71841,0 -5.71842,0 0.76781,-5.32897 c 0.42229,-2.93094 1.46576,-7.03821 2.31885,-9.12727 1.29052,-3.16034 1.29999,-4.00829 0.0563,-5.0485 -4.96209,-4.15044 -14.2681,-19.51852 -16.55196,-27.33411 -1.27998,-4.38028 -1.69819,-4.76803 -5.14233,-4.76803 l -3.74902,0 0,26.92827 0,26.92827 17.38927,-0.0702 17.38927,-0.0703 0,-26.85799 z m -46.90897,-26.5025 c -0.80986,-0.3241 -1.77749,-0.28423 -2.15029,0.0886 -0.37279,0.37279 0.28983,0.63795 1.47248,0.58924 1.30694,-0.0539 1.57277,-0.31969 0.67781,-0.67781 z m 29.80017,-0.007 c -1.07982,-0.28218 -2.84679,-0.28218 -3.92661,0 -1.07982,0.28218 -0.19634,0.51307 1.9633,0.51307 2.15964,0 3.04312,-0.23089 1.96331,-0.51307 z m 9.53605,0.0303 c -0.7713,-0.31123 -2.03342,-0.31123 -2.80472,0 -0.7713,0.31123 -0.14024,0.56587 1.40236,0.56587 1.5426,0 2.17366,-0.25464 1.40236,-0.56587 z"
         style="fill:#008080;stroke:#008080;stroke-width:0.33656663;stroke-miterlimit:4;stroke-dasharray:none" />
      <path
         inkscape:connector-curvature="0"
         id="path6193"
         d="m 259.34825,948.48167 c -1.0474,-2.7295 -1.03725,-2.73563 4.52505,-2.73563 4.28763,0 5.08997,0.31729 4.52505,1.78942 -0.37766,0.98418 -0.68667,2.00231 -0.68667,2.26253 0,0.2602 -1.72726,0.4731 -3.83838,0.4731 -2.45652,0 -4.08559,-0.64421 -4.52505,-1.78942 z m -7.19399,-7.54349 c 0.32162,-0.97014 3.90276,-1.51573 11.4069,-1.73786 9.22369,-0.27303 10.9381,-0.0514 10.9381,1.41408 0,1.44807 -1.9021,1.73785 -11.40689,1.73785 -8.62136,0 -11.29242,-0.34531 -10.93811,-1.41407 z m 0.47393,-4.99642 c -2.07272,-2.07272 0.19483,-2.6396 10.55844,-2.6396 9.3015,0 11.31263,0.30167 11.31263,1.69689 0,1.38714 -1.92733,1.69689 -10.55845,1.69689 -5.80714,0 -10.89782,-0.33938 -11.31262,-0.75418 z m -0.75418,-11.08065 c 0,-3.10164 -1.04179,-4.98793 -5.00971,-9.07062 -6.07182,-6.24743 -7.92626,-11.33139 -7.08974,-19.43651 1.22002,-11.82095 11.02749,-19.61494 24.6822,-19.61494 7.34766,0 13.4565,2.42879 17.5064,6.9603 2.78968,3.12143 6.11125,11.21988 6.11125,14.90009 0,4.17018 -5.46623,13.93798 -9.68008,17.29767 -3.35896,2.67808 -3.89507,3.7782 -3.89507,7.99276 l 0,4.88725 -11.31263,0 -11.31262,0 0,-3.916 z m 19.67607,-1.26721 c 0.37766,-0.98418 0.68665,-2.96003 0.68665,-4.39078 0,-1.64488 1.45967,-3.7147 3.96987,-5.62932 4.61175,-3.51756 8.47402,-10.42603 8.47402,-15.15756 0,-7.8923 -5.99196,-15.59406 -14.25341,-18.32059 -12.68835,-4.18753 -28.73456,6.3241 -28.73456,18.82358 0,5.23353 2.03554,9.26474 7.62116,15.09311 3.33102,3.47578 4.82273,6.01261 4.82273,8.20165 l 0,3.16933 8.36344,0 c 6.58277,0 8.50963,-0.38099 9.0501,-1.78942 z"
         style="fill:#008080;stroke:#008080;stroke-width:0.33937871;stroke-miterlimit:4;stroke-dasharray:none" />
      <path
         inkscape:connector-curvature="0"
         id="path6212"
         d="m 244.9756,485.4476 c -0.27813,-0.72479 -0.37651,-17.26229 -0.21862,-36.75 l 0.28708,-35.43218 18.25,-0.27256 18.25,-0.27256 0,37.02256 0,37.02256 -18.03139,0 c -13.9975,0 -18.14451,-0.29481 -18.53707,-1.31782 z m 11.56846,-4.68218 c 0,-0.55 -1.8,-1 -4,-1 -2.2,0 -4,0.45 -4,1 0,0.55 1.8,1 4,1 2.2,0 4,-0.45 4,-1 z m 11,0 c 0,-0.55 -1.8,-1 -4,-1 -2.2,0 -4,0.45 -4,1 0,0.55 1.8,1 4,1 2.2,0 4,-0.45 4,-1 z m 11,0 c 0,-0.55 -1.8,-1 -4,-1 -2.2,0 -4,0.45 -4,1 0,0.55 1.8,1 4,1 2.2,0 4,-0.45 4,-1 z m -22,-4 c 0,-0.55 -1.77344,-1 -3.94098,-1 -2.16754,0 -4.2191,0.45 -4.55902,1 -0.3775,0.61081 1.15628,1 3.94098,1 2.50746,0 4.55902,-0.45 4.55902,-1 z m 11,0 c 0,-0.55 -1.77344,-1 -3.94098,-1 -2.16754,0 -4.2191,0.45 -4.55902,1 -0.3775,0.61081 1.15628,1 3.94098,1 2.50746,0 4.55902,-0.45 4.55902,-1 z m 11,0 c 0,-0.55 -1.8,-1 -4,-1 -2.2,0 -4,0.45 -4,1 0,0.55 1.8,1 4,1 2.2,0 4,-0.45 4,-1 z m -22.22088,-3.16263 c -0.4723,-1.41691 -3.47686,-2.01326 -6.57002,-1.30402 -3.53672,0.81094 -1.56782,2.46665 2.93325,2.46665 2.61371,0 3.88847,-0.40753 3.63677,-1.16263 z m 10.97135,-0.0874 c -0.52236,-1.56884 -3.16898,-2.11276 -6.37046,-1.30924 -3.64279,0.91428 -1.86728,2.55924 2.76234,2.55924 2.77476,0 3.89509,-0.38813 3.60812,-1.25 z m 10.70503,0.322 c 0.31545,-0.51041 -0.33299,-1.21573 -1.44098,-1.56739 -2.3456,-0.74447 -6.01452,0.20884 -6.01452,1.56278 0,1.21326 6.70595,1.21741 7.4555,0.005 z m -8.42193,-7.08913 c 5.00457,-2.55314 7.48993,-7.66127 5.72509,-11.76674 -2.17012,-5.0483 -4.67688,-6.61614 -11.24717,-7.0345 -5.41986,-0.34511 -6.45894,-0.0967 -9.18254,2.19503 -5.73228,4.82339 -5.05482,11.87714 1.56893,16.33601 4.18916,2.81998 7.98467,2.89806 13.13569,0.2702 z m -11.64113,-4.49952 c -2.70067,-2.70068 -2.58489,-5.356 0.38083,-8.73335 2.89941,-3.30185 12.22673,-1.16071 12.22673,2.8067 0,0.79382 1.0125,1.50458 2.25,1.57948 2.2023,0.1333 2.20446,0.14509 0.10194,0.5562 -1.18144,0.231 -2.37539,1.2893 -2.65324,2.35177 -0.52444,2.00549 -4.37467,3.95585 -7.80925,3.95585 -1.0892,0 -3.11285,-1.13249 -4.49701,-2.51665 z m 4.0428,-3.37857 c 0.3043,-0.49236 -0.11914,-1.15324 -0.94098,-1.46861 -0.90766,-0.3483 -1.49426,0.003 -1.49426,0.89521 0,1.61739 1.56262,1.98533 2.43524,0.5734 z m 5.56476,-0.60478 c 0,-0.83333 -0.88889,-1.5 -2,-1.5 -1.11111,0 -2,0.66667 -2,1.5 0,0.83333 0.88889,1.5 2,1.5 1.11111,0 2,-0.66667 2,-1.5 z m -15.72917,-0.10417 c 0.33229,-0.33229 1.19479,-0.36782 1.91667,-0.0789 0.79773,0.31923 0.56078,0.55619 -0.60417,0.60417 -1.05416,0.0434 -1.64479,-0.19293 -1.3125,-0.52522 z m 10.72917,-8.33681 c 0,-0.58246 0.45,-1.05902 1,-1.05902 0.55,0 1,0.19844 1,0.44098 0,0.24254 -0.45,0.7191 -1,1.05902 -0.55,0.33992 -1,0.14148 -1,-0.44098 z m -6,-7.55902 c 0,-1.08333 -1.11111,-1.5 -4,-1.5 -2.88889,0 -4,0.41667 -4,1.5 0,1.08333 1.11111,1.5 4,1.5 2.88889,0 4,-0.41667 4,-1.5 z m 11,0 c 0,-1.07959 -1.10455,-1.5 -3.94098,-1.5 -3.79786,0 -5.6981,1.02758 -4.36517,2.36052 0.35172,0.35171 2.36448,0.63948 4.47282,0.63948 2.74074,0 3.83333,-0.42754 3.83333,-1.5 z m 11,0 c 0,-1.08333 -1.11111,-1.5 -4,-1.5 -2.88889,0 -4,0.41667 -4,1.5 0,1.08333 1.11111,1.5 4,1.5 2.88889,0 4,-0.41667 4,-1.5 z m -22.24397,-5.25 c 0.28349,-0.86296 -0.85369,-1.25 -3.6727,-1.25 -3.03317,0 -4.08333,0.4013 -4.08333,1.56036 0,1.18693 0.87899,1.48609 3.6727,1.25 2.01999,-0.1707 3.85749,-0.87286 4.08333,-1.56036 z m 11.00029,0 c 0.28327,-0.86291 -0.85414,-1.25 -3.67299,-1.25 -3.86659,0 -4.97019,0.7798 -3.36927,2.38073 1.1286,1.1286 6.58835,0.25197 7.04226,-1.13073 z m 11,0 c 0.28327,-0.86291 -0.85414,-1.25 -3.67299,-1.25 -3.86659,0 -4.97019,0.7798 -3.36927,2.38073 1.1286,1.1286 6.58835,0.25197 7.04226,-1.13073 z m -10.75632,-5.85941 c 0,-0.94561 -1.22663,-1.39059 -3.83333,-1.39059 -4.3003,0 -5.60602,0.76569 -4.19829,2.4619 1.31641,1.58618 8.03162,0.69047 8.03162,-1.07131 z m -11,0.10941 c 0,-1.07959 -1.10455,-1.5 -3.94098,-1.5 -3.79786,0 -5.6981,1.02758 -4.36517,2.36052 0.35172,0.35171 2.36448,0.63948 4.47282,0.63948 2.74074,0 3.83333,-0.42754 3.83333,-1.5 z m 22,0 c 0,-1.08333 -1.11111,-1.5 -4,-1.5 -2.88889,0 -4,0.41667 -4,1.5 0,1.08333 1.11111,1.5 4,1.5 2.88889,0 4,-0.41667 4,-1.5 z m -22,-5 c 0,-1.07959 -1.10455,-1.5 -3.94098,-1.5 -3.79786,0 -5.6981,1.02758 -4.36517,2.36052 0.35172,0.35171 2.36448,0.63948 4.47282,0.63948 2.74074,0 3.83333,-0.42754 3.83333,-1.5 z m 11,0 c 0,-1.07959 -1.10455,-1.5 -3.94098,-1.5 -3.79786,0 -5.6981,1.02758 -4.36517,2.36052 0.35172,0.35171 2.36448,0.63948 4.47282,0.63948 2.74074,0 3.83333,-0.42754 3.83333,-1.5 z m 11,0 c 0,-1.08333 -1.11111,-1.5 -4,-1.5 -2.88889,0 -4,0.41667 -4,1.5 0,1.08333 1.11111,1.5 4,1.5 2.88889,0 4,-0.41667 4,-1.5 z m -22,-8 c 0,-1.08333 -1.11111,-1.5 -4,-1.5 -2.88889,0 -4,0.41667 -4,1.5 0,1.08333 1.11111,1.5 4,1.5 2.88889,0 4,-0.41667 4,-1.5 z"
         style="fill:#008080;stroke:#008080;stroke-width:0.30000001;stroke-miterlimit:4;stroke-dasharray:none" />
      <path
         inkscape:connector-curvature="0"
         id="path5989"
         d="m 121.79164,403.2315 c -0.84256,-0.18286 -1.69439,-0.40598 -1.89294,-0.49584 l -0.36099,-0.16331 0.37248,-1.84349 c 0.27416,-1.3569 0.43685,-1.83512 0.61632,-1.81183 0.13411,0.0173 0.93321,0.28018 1.77579,0.58385 1.36033,0.49027 1.73215,0.55219 3.31921,0.55232 1.49496,0 1.93361,-0.0639 2.68214,-0.39253 2.4576,-1.0787 2.82666,-3.75124 0.63707,-4.61335 -0.28086,-0.11056 -1.40026,-0.24068 -2.48756,-0.2891 l -1.97691,-0.088 0.13227,-0.61584 c 0.0727,-0.33879 0.22095,-1.05635 0.32937,-1.59464 l 0.1971,-0.97879 1.222,0 c 1.59416,0 3.07091,-0.25011 3.83958,-0.64698 1.07801,-0.55658 1.70189,-2.18195 1.19855,-3.12249 -0.31309,-0.58498 -1.46808,-0.98769 -2.84457,-0.99189 -1.31301,-0.007 -3.47658,0.37579 -4.44458,0.78009 -0.31862,0.13311 -0.61235,0.20894 -0.65271,0.16857 -0.0766,-0.0766 0.59018,-3.51623 0.70364,-3.62971 0.0357,-0.0359 0.78101,-0.2116 1.65622,-0.39095 4.76394,-0.97598 9.06401,-0.3769 10.4634,1.45774 0.41246,0.54075 0.49967,0.83424 0.54982,1.85008 0.074,1.49917 -0.36691,2.79361 -1.32068,3.87717 -0.6449,0.73266 -2.24183,1.669 -2.85204,1.67233 -0.16971,0 0.075,0.18027 0.54374,0.39853 1.66436,0.7751 2.39658,2.0769 2.25794,4.01452 -0.11512,1.60894 -0.78245,3.00229 -1.9892,4.15337 -1.83601,1.75122 -3.61359,2.32583 -7.50416,2.42581 -2.16428,0.0559 -2.91362,0.008 -4.1703,-0.26469 z m 19.23442,0.0965 c -2.05676,-0.39579 -2.63919,-0.62216 -2.63164,-1.02275 0.008,-0.43179 0.60308,-3.32053 0.70486,-3.42223 0.0398,-0.0399 0.65269,0.15286 1.36192,0.42826 3.7163,1.44303 7.51465,0.85572 8.41594,-1.30135 0.40751,-0.97532 0.30474,-1.72641 -0.32195,-2.3531 -0.67665,-0.67665 -1.74436,-0.9418 -3.79275,-0.9418 -1.03723,0 -1.4385,-0.0592 -1.4386,-0.21274 -7e-5,-0.11708 0.1253,-0.84475 0.27863,-1.61706 l 0.27874,-1.40432 1.21077,0 c 3.42984,-0.007 4.95919,-0.77756 5.16622,-2.61434 0.11405,-1.01177 -0.21016,-1.51394 -1.22864,-1.90289 -1.08756,-0.41535 -3.59699,-0.26495 -5.44296,0.32622 -0.74494,0.23855 -1.37642,0.41176 -1.40331,0.38489 -0.0269,-0.0266 0.11418,-0.86258 0.31347,-1.85706 l 0.36234,-1.80816 1.20106,-0.27321 c 2.20068,-0.50051 4.70941,-0.67758 6.53921,-0.46152 2.10953,0.24906 3.0867,0.58651 3.96733,1.37 2.207,1.96355 0.78283,6.47839 -2.40518,7.62474 l -0.84939,0.30547 0.64432,0.32382 c 0.87178,0.43811 1.54221,1.08662 1.95651,1.89238 0.284,0.5524 0.33156,0.90004 0.26959,1.97055 -0.18224,3.1479 -2.2678,5.43182 -5.83719,6.39232 -1.40004,0.37677 -5.73295,0.48041 -7.3193,0.17515 z m -32.17356,-0.48513 c 0.19685,-0.84834 0.59848,-2.88342 0.59848,-3.03249 0,-0.0944 -1.7611,-0.15912 -4.33626,-0.15912 l -4.33625,0 0.10577,-0.52877 c 0.0581,-0.29089 0.2669,-1.28571 0.46383,-2.21075 l 0.35808,-1.68191 5.10648,-5.86847 5.10649,-5.86853 2.766,-0.007 c 2.54866,-0.007 2.76601,0.0179 2.76601,0.29927 0,0.25664 -2.01892,10.56843 -2.29807,11.73754 -0.089,0.37291 -0.0556,0.38295 1.27353,0.38295 1.59522,0 1.53319,-0.13038 1.05275,2.21282 l -0.29666,1.44682 -1.43883,0.0852 -1.43883,0.0851 -0.33181,1.74471 -0.3318,1.74471 -2.43889,0 -2.43889,0 0.0889,-0.38297 z m 2.18872,-10.88134 c 0.43418,-2.16978 0.76965,-3.96478 0.7455,-3.98892 -0.0425,-0.0425 -5.76169,6.4436 -6.56093,7.44075 l -0.39532,0.49318 2.71066,0 2.71066,0 0.78943,-3.94501 z m 46.5809,11.11436 c 0,-0.0876 0.88086,-4.50273 1.95749,-9.81136 1.0766,-5.30869 1.95748,-9.68176 1.95748,-9.71795 0,-0.0359 1.45019,-0.0659 3.22263,-0.0659 2.92298,0 3.23064,0.0279 3.30856,0.29788 0.0472,0.16383 0.56081,2.44257 1.14124,5.06389 0.58041,2.62132 1.10311,4.82056 1.16154,4.88715 0.0584,0.0666 1.56154,-2.19306 3.34029,-5.02139 l 3.2341,-5.14245 3.18965,-0.0466 c 2.48888,-0.0359 3.19135,0 3.19738,0.17022 0.004,0.11907 -0.85661,4.5634 -1.91304,9.87628 l -1.92077,9.65974 -2.43071,0 -2.43071,0 0.0916,-0.38295 c 0.35116,-1.46719 2.74041,-13.73362 2.65922,-13.6524 -0.056,0.0559 -1.52831,2.37512 -3.27187,5.15363 l -3.17008,5.05186 -1.62165,0.0486 -1.62165,0.0486 -0.42711,-1.83577 c -0.2349,-1.00966 -0.75729,-3.30702 -1.16085,-5.10534 -0.40356,-1.79826 -0.77524,-3.22866 -0.82596,-3.17863 -0.0507,0.0499 -0.70833,3.16812 -1.46138,6.9292 l -1.36916,6.83834 -2.41815,0.0472 c -1.42165,0.0279 -2.41814,-0.0186 -2.41814,-0.11209 z m 26.90243,-0.14795 c 0.005,-0.16383 0.86989,-4.58733 1.92295,-9.82997 l 1.91468,-9.5321 2.3668,-0.0479 c 1.30174,-0.0259 2.4587,-0.012 2.57104,0.0306 0.14913,0.0572 0.003,1.05755 -0.54378,3.7072 -0.41141,1.99589 -0.74857,3.648 -0.74925,3.67142 -6.6e-4,0.0233 1.67225,0.0425 3.71761,0.0425 l 3.71883,0 0.74934,-3.70221 0.74934,-3.70222 2.51069,-0.0472 c 2.31229,-0.0432 2.51003,-0.0233 2.50239,0.25531 -0.005,0.16636 -0.8699,4.59186 -1.92299,9.83456 l -1.9147,9.5321 -2.56459,0.0466 -2.5646,0.0473 0.7417,-3.70655 c 0.40794,-2.03859 0.78661,-3.91714 0.84147,-4.17458 l 0.0998,-0.46811 -3.72106,0 -3.72108,0 -0.84559,4.17026 -0.84561,4.17033 -2.51081,0 c -2.28095,0 -2.51007,-0.0273 -2.50254,-0.29789 z m 21.26872,0.22392 c 0,-0.08 0.45757,-2.33861 0.59135,-2.91893 0.0451,-0.19605 2.1526,-2.13692 4.71294,-4.34056 l 4.6312,-3.98592 -3.69353,-0.0459 -3.69353,-0.0459 0.088,-0.3797 c 0.1357,-0.58519 0.59764,-2.8608 0.59764,-2.94401 0,-0.0406 2.56601,-0.074 5.70224,-0.074 l 5.70224,0 0,2.03559 0,2.03561 -4.19974,3.62405 -4.19974,3.62412 3.77419,0.0459 c 2.69386,0.0326 3.77421,0.10158 3.77421,0.24061 0,0.10716 -0.12975,0.87169 -0.28833,1.69894 l -0.28833,1.50403 -6.60542,0 c -3.63298,0 -6.60542,-0.0333 -6.60542,-0.074 z"
         style="fill:#f9f9f9" />
      <g
         transform="translate(67.142857,210)"
         id="g6946">
        <g
           id="g6941"
           transform="translate(110.71428,140.71428)">
          <path
             sodipodi:nodetypes="sscssscccccscsssscsssscsssssssss"
             inkscape:connector-curvature="0"
             id="path5378"
             d="m 220.52673,335.26469 c 0,-0.53416 1.26039,-4.83681 2.80087,-9.56143 l 2.80086,-8.59021 11.0847,0.065 c 11.5649,0.0678 14.30955,1.10683 13.8988,5.26163 -0.1212,1.22603 -1.45909,2.86234 -3.26816,3.99717 l -3.06296,1.92138 1.45841,3.4533 1.45841,3.4533 2.96305,-9.07588 2.96305,-9.07587 12.60856,-0.3356 c 11.9392,-0.31778 14.41783,0.24348 14.40828,3.26256 -0.001,0.42583 -1.37495,1.84014 -3.05244,3.14291 -2.87725,2.23452 -3.15769,2.25199 -4.9513,0.30844 -2.52105,-2.73182 -10.42549,-2.87471 -11.59696,-0.20965 -0.71,1.61524 -0.20078,1.8634 4.00398,1.95124 l 4.81744,0.10064 -2.28704,1.93469 c -1.25786,1.06409 -3.79917,2.19295 -5.64735,2.5086 -2.70131,0.46136 -3.5239,1.15099 -4.19441,3.51646 -0.8213,2.89745 -0.98234,2.94256 -10.50567,2.94256 l -9.6716,0 -1.44932,-3.7012 c -0.87529,-2.23525 -2.04103,-3.7012 -2.94325,-3.7012 -0.99903,0 -1.82976,1.22612 -2.50765,3.7012 -0.97935,3.57569 -1.16825,3.7012 -5.57101,3.7012 -2.50651,0 -4.55729,-0.43705 -4.55729,-0.97121 z m 20.25659,-12.77003 c 0,-1.62844 -6.16678,-1.26411 -7.05713,0.41693 -1.4257,2.6918 -0.82576,3.04352 3.1365,1.83874 2.15635,-0.65567 3.92063,-1.67072 3.92063,-2.25567 z"
             style="fill:#008080;stroke:#000000;stroke-width:0.25128084" />
          <path
             sodipodi:nodetypes="ccssssscc"
             style="fill:#f58d1a;fill-opacity:1;stroke:#000000;stroke-width:0.27706257"
             d="m 275.16105,326.60012 11.88795,-9.45471 7.45383,0.19243 c 5.00288,0.12916 7.06144,0.60706 6.26046,1.45338 -0.65636,0.69352 -1.7136,0.88404 -2.34941,0.42339 -1.08183,-0.78381 -7.83715,3.82692 -19.0507,13.00274 -3.97404,3.25186 -5.77873,3.92285 -10.44699,3.8842 l -5.64309,-0.0467 z"
             id="path5384"
             inkscape:connector-curvature="0" />
          <path
             inkscape:connector-curvature="0"
             id="path5382"
             d="m 281.28216,335.42887 c -0.75044,-1.70724 -0.34624,-2.46309 2.58635,-4.83649 3.79142,-3.06846 4.43478,-2.80313 8.57364,3.53597 l 2.16145,3.31047 -6.216,0.007 c -4.62651,0.005 -6.44343,-0.51066 -7.10544,-2.01671 z"
             style="fill:#008080;fill-opacity:1;stroke:#000000;stroke-width:0.27706257"
             sodipodi:nodetypes="csscscc" />
        </g>
        <path
           style="fill:#008080;stroke:#008080"
           d="m 302.14849,480.28666 c -13.84376,-4.45796 -18.08837,-21.9585 -7.75752,-31.98426 7.89348,-7.66036 19.38691,-7.66231 27.04463,-0.005 11.49252,11.49252 4.42498,30.9833 -11.75953,32.43025 -2.65042,0.23696 -6.03783,0.0383 -7.52758,-0.4414 z m -42.36906,-19.4092 c -0.85912,-2.23885 2.25653,-15.0908 4.94422,-20.39471 3.24895,-6.41149 11.28978,-15.19267 17.6476,-19.27247 6.09604,-3.91182 15.62652,-6.99094 21.63833,-6.99094 4.4455,0 4.47225,0.0209 4.16091,3.25 -0.30572,3.1708 -0.45381,3.26509 -6.07677,3.86933 -3.39359,0.36466 -8.42866,1.93142 -12.24531,3.81035 -12.42163,6.11515 -20.43213,16.83959 -22.76921,30.48339 -1.07869,6.29731 -1.25265,6.58693 -3.95657,6.58693 -1.55555,0 -3.05999,-0.60384 -3.3432,-1.34188 z m 13.29028,0.72112 c -1.16361,-1.1636 -0.83277,-3.77945 1.38694,-10.96601 3.75934,-12.17133 16.59669,-22.45052 29.43317,-23.56789 3.81488,-0.33207 3.97919,-0.22264 4.27646,2.84825 0.2903,2.99881 0.0768,3.23104 -3.5,3.80762 -7.18273,1.15783 -8.04838,1.47563 -12.89466,4.73387 -5.7285,3.85138 -10.23495,10.68598 -11.87706,18.01307 -0.9974,4.45042 -1.55357,5.29701 -3.64464,5.54776 -1.3572,0.16275 -2.7883,-0.0247 -3.18021,-0.41667 z"
           id="path6880"
           inkscape:connector-curvature="0" />
        <path
           inkscape:connector-curvature="0"
           id="path6896"
           d="m 300.4722,511.52882 c -0.84256,-0.18286 -1.69439,-0.40598 -1.89294,-0.49584 l -0.36099,-0.16331 0.37248,-1.84349 c 0.27416,-1.3569 0.43685,-1.83512 0.61632,-1.81183 0.13411,0.0173 0.93321,0.28018 1.77579,0.58385 1.36033,0.49027 1.73215,0.55219 3.31921,0.55232 1.49496,0 1.93361,-0.0639 2.68214,-0.39253 2.4576,-1.0787 2.82666,-3.75124 0.63707,-4.61335 -0.28086,-0.11056 -1.40026,-0.24068 -2.48756,-0.2891 l -1.97691,-0.088 0.13227,-0.61584 c 0.0727,-0.33879 0.22095,-1.05635 0.32937,-1.59464 l 0.1971,-0.97879 1.222,0 c 1.59416,0 3.07091,-0.25011 3.83958,-0.64698 1.07801,-0.55658 1.70189,-2.18195 1.19855,-3.12249 -0.31309,-0.58498 -1.46808,-0.98769 -2.84457,-0.99189 -1.31301,-0.007 -3.47658,0.37579 -4.44458,0.78009 -0.31862,0.13311 -0.61235,0.20894 -0.65271,0.16857 -0.0766,-0.0766 0.59018,-3.51623 0.70364,-3.62971 0.0357,-0.0359 0.78101,-0.2116 1.65622,-0.39095 4.76394,-0.97598 9.06401,-0.3769 10.4634,1.45774 0.41246,0.54075 0.49967,0.83424 0.54982,1.85008 0.074,1.49917 -0.36691,2.79361 -1.32068,3.87717 -0.6449,0.73266 -2.24183,1.669 -2.85204,1.67233 -0.16971,0 0.075,0.18027 0.54374,0.39853 1.66436,0.7751 2.39658,2.0769 2.25794,4.01452 -0.11512,1.60894 -0.78245,3.00229 -1.9892,4.15337 -1.83601,1.75122 -3.61359,2.32583 -7.50416,2.42581 -2.16428,0.0559 -2.91362,0.008 -4.1703,-0.26469 z m 19.23442,0.0965 c -2.05676,-0.39579 -2.63919,-0.62216 -2.63164,-1.02275 0.008,-0.43179 0.60308,-3.32053 0.70486,-3.42223 0.0398,-0.0399 0.65269,0.15286 1.36192,0.42826 3.7163,1.44303 7.51465,0.85572 8.41594,-1.30135 0.40751,-0.97532 0.30474,-1.72641 -0.32195,-2.3531 -0.67665,-0.67665 -1.74436,-0.9418 -3.79275,-0.9418 -1.03723,0 -1.4385,-0.0592 -1.4386,-0.21274 -7e-5,-0.11708 0.1253,-0.84475 0.27863,-1.61706 l 0.27874,-1.40432 1.21077,0 c 3.42984,-0.007 4.95919,-0.77756 5.16622,-2.61434 0.11405,-1.01177 -0.21016,-1.51394 -1.22864,-1.90289 -1.08756,-0.41535 -3.59699,-0.26495 -5.44296,0.32622 -0.74494,0.23855 -1.37642,0.41176 -1.40331,0.38489 -0.0269,-0.0266 0.11418,-0.86258 0.31347,-1.85706 l 0.36234,-1.80816 1.20106,-0.27321 c 2.20068,-0.50051 4.70941,-0.67758 6.53921,-0.46152 2.10953,0.24906 3.0867,0.58651 3.96733,1.37 2.207,1.96355 0.78283,6.47839 -2.40518,7.62474 l -0.84939,0.30547 0.64432,0.32382 c 0.87178,0.43811 1.54221,1.08662 1.95651,1.89238 0.284,0.5524 0.33156,0.90004 0.26959,1.97055 -0.18224,3.1479 -2.2678,5.43182 -5.83719,6.39232 -1.40004,0.37677 -5.73295,0.48041 -7.3193,0.17515 z m -32.17356,-0.48513 c 0.19685,-0.84834 0.59848,-2.88342 0.59848,-3.03249 0,-0.0945 -1.7611,-0.15912 -4.33626,-0.15912 l -4.33625,0 0.10577,-0.52877 c 0.0581,-0.29089 0.2669,-1.28571 0.46383,-2.21075 l 0.35808,-1.68191 5.10648,-5.86847 5.10649,-5.86853 2.766,-0.007 c 2.54866,-0.007 2.76601,0.0179 2.76601,0.29927 0,0.25664 -2.01892,10.56843 -2.29807,11.73754 -0.089,0.37291 -0.0556,0.38295 1.27353,0.38295 1.59522,0 1.53319,-0.13038 1.05275,2.21282 l -0.29666,1.44682 -1.43883,0.0852 -1.43883,0.0851 -0.33181,1.74471 -0.3318,1.74471 -2.43889,0 -2.43889,0 0.0889,-0.38297 z m 2.18872,-10.88134 c 0.43418,-2.16978 0.76965,-3.96478 0.7455,-3.98892 -0.0425,-0.0425 -5.76169,6.4436 -6.56093,7.44075 l -0.39532,0.49318 2.71066,0 2.71066,0 0.78943,-3.94501 z m 46.5809,11.11436 c 0,-0.0876 0.88086,-4.50273 1.95749,-9.81136 1.0766,-5.30869 1.95748,-9.68176 1.95748,-9.71795 0,-0.0359 1.45019,-0.0659 3.22263,-0.0659 2.92298,0 3.23064,0.0279 3.30856,0.29788 0.0472,0.16383 0.56081,2.44257 1.14124,5.06389 0.58041,2.62132 1.10311,4.82056 1.16154,4.88715 0.0584,0.0666 1.56154,-2.19306 3.34029,-5.02139 l 3.2341,-5.14245 3.18965,-0.0466 c 2.48888,-0.0359 3.19135,0 3.19738,0.17022 0.004,0.11907 -0.85661,4.5634 -1.91304,9.87628 l -1.92077,9.65974 -2.43071,0 -2.43071,0 0.0917,-0.38295 c 0.35116,-1.46719 2.74041,-13.73362 2.65922,-13.6524 -0.056,0.0559 -1.52831,2.37512 -3.27187,5.15363 l -3.17008,5.05186 -1.62165,0.0486 -1.62165,0.0486 -0.42711,-1.83577 c -0.2349,-1.00966 -0.75729,-3.30702 -1.16085,-5.10534 -0.40356,-1.79826 -0.77524,-3.22866 -0.82596,-3.17863 -0.0507,0.0499 -0.70833,3.16812 -1.46138,6.9292 l -1.36916,6.83834 -2.41815,0.0472 c -1.42165,0.0279 -2.41814,-0.0186 -2.41814,-0.11209 z m 26.90243,-0.14795 c 0.005,-0.16383 0.86989,-4.58733 1.92295,-9.82997 l 1.91468,-9.5321 2.3668,-0.0479 c 1.30174,-0.0259 2.4587,-0.012 2.57104,0.0306 0.14913,0.0572 0.003,1.05755 -0.54378,3.7072 -0.41141,1.99589 -0.74857,3.648 -0.74925,3.67142 -6.6e-4,0.0232 1.67225,0.0425 3.71761,0.0425 l 3.71883,0 0.74934,-3.70221 0.74934,-3.70222 2.51069,-0.0472 c 2.31229,-0.0432 2.51003,-0.0232 2.50239,0.25531 -0.005,0.16636 -0.8699,4.59186 -1.92299,9.83456 l -1.9147,9.5321 -2.56459,0.0466 -2.5646,0.0473 0.7417,-3.70655 c 0.40794,-2.03859 0.78661,-3.91714 0.84147,-4.17458 l 0.0998,-0.46811 -3.72106,0 -3.72108,0 -0.84559,4.17026 -0.84561,4.17033 -2.51081,0 c -2.28095,0 -2.51007,-0.0273 -2.50254,-0.29789 z m 21.26872,0.22392 c 0,-0.08 0.45757,-2.33861 0.59135,-2.91893 0.0452,-0.19605 2.1526,-2.13692 4.71294,-4.34056 l 4.6312,-3.98592 -3.69353,-0.0459 -3.69353,-0.0459 0.088,-0.3797 c 0.1357,-0.58519 0.59764,-2.8608 0.59764,-2.94401 0,-0.0406 2.56601,-0.074 5.70224,-0.074 l 5.70224,0 0,2.03559 0,2.03561 -4.19974,3.62405 -4.19974,3.62412 3.77419,0.0459 c 2.69386,0.0326 3.77421,0.10158 3.77421,0.24061 0,0.10716 -0.12975,0.87169 -0.28833,1.69894 l -0.28833,1.50403 -6.60542,0 c -3.63298,0 -6.60542,-0.0333 -6.60542,-0.074 z"
           style="fill:#008080;stroke:#000000;stroke-width:0.30000001;stroke-miterlimit:4;stroke-dasharray:none" />
        <ellipse
           style="fill:none;fill-opacity:1;stroke:#008080;stroke-width:9.19449615;stroke-miterlimit:4;stroke-dasharray:none"
           id="path6933"
           cx="330.36447"
           cy="472.51981"
           rx="89.831337"
           ry="89.831329" />
      </g>
      <ellipse
         inkscape:transform-center-y="-268.78897"
         style="fill:none;fill-opacity:1;stroke:#008080;stroke-width:5.54845762;stroke-miterlimit:4;stroke-dasharray:none"
         id="ellipse6969"
         cx="397.50732"
         cy="413.73083"
         rx="54.209099"
         ry="54.209091" />
      <path
         inkscape:connector-curvature="0"
         id="path7002"
         d="m 397.50732,469.7943 0,122.5679"
         style="fill:#008080;fill-rule:evenodd;stroke:#008080;stroke-width:6.02799988;stroke-linecap:butt;stroke-linejoin:miter;stroke-miterlimit:4;stroke-dasharray:none;stroke-opacity:1" />
      <ellipse
         ry="54.209091"
         rx="54.209099"
         cy="413.73083"
         cx="397.50732"
         id="ellipse7004"
         style="fill:none;fill-opacity:1;stroke:#008080;stroke-width:5.54845762;stroke-miterlimit:4;stroke-dasharray:none"
         inkscape:transform-center-y="-268.78897" />
      <path
         inkscape:transform-center-y="-151.44156"
         style="fill:#008080;fill-rule:evenodd;stroke:#008080;stroke-width:6.02799988;stroke-linecap:butt;stroke-linejoin:miter;stroke-miterlimit:4;stroke-dasharray:none;stroke-opacity:1"
         d="m 397.50732,469.7943 0,122.5679"
         id="path7006"
         inkscape:connector-curvature="0" />
      <ellipse
         inkscape:transform-center-x="134.39448"
         transform="matrix(0.8660254,-0.5,0.5,0.8660254,0,0)"
         inkscape:transform-center-y="-232.77807"
         style="fill:none;fill-opacity:1;stroke:#008080;stroke-width:5.54845762;stroke-miterlimit:4;stroke-dasharray:none"
         id="ellipse7008"
         cx="2.9915366"
         cy="521.04419"
         rx="54.209099"
         ry="54.209091" />
      <path
         inkscape:transform-center-x="75.720775"
         inkscape:connector-curvature="0"
         id="path7010"
         d="m 291.14457,498.29411 61.28395,106.14692"
         style="fill:#008080;fill-rule:evenodd;stroke:#008080;stroke-width:6.02799988;stroke-linecap:butt;stroke-linejoin:miter;stroke-miterlimit:4;stroke-dasharray:none;stroke-opacity:1"
         inkscape:transform-center-y="-131.15224" />
      <ellipse
         ry="54.209091"
         rx="54.209099"
         cy="416.72238"
         cx="-392.32584"
         id="ellipse7012"
         style="fill:none;fill-opacity:1;stroke:#008080;stroke-width:5.54845762;stroke-miterlimit:4;stroke-dasharray:none"
         inkscape:transform-center-y="-134.39447"
         transform="matrix(0.5,-0.8660254,0.8660254,0.5,0,0)"
         inkscape:transform-center-x="232.77807" />
      <path
         inkscape:transform-center-y="-75.720785"
         style="fill:#008080;fill-rule:evenodd;stroke:#008080;stroke-width:6.02799988;stroke-linecap:butt;stroke-linejoin:miter;stroke-miterlimit:4;stroke-dasharray:none;stroke-opacity:1"
         d="M 213.28163,576.15705 319.42854,637.441"
         id="path7014"
         inkscape:connector-curvature="0"
         inkscape:transform-center-x="131.15224" />
      <ellipse
         inkscape:transform-center-x="268.78896"
         transform="matrix(0,-1,1,0,0,0)"
         inkscape:transform-center-y="3.2139514e-05"
         style="fill:none;fill-opacity:1;stroke:#008080;stroke-width:5.54845762;stroke-miterlimit:4;stroke-dasharray:none"
         id="ellipse7016"
         cx="-682.51984"
         cy="128.71835"
         rx="54.209099"
         ry="54.209091" />
      <path
         inkscape:transform-center-x="151.44157"
         inkscape:connector-curvature="0"
         id="path7018"
         d="m 184.78181,682.51981 122.5679,0"
         style="fill:#008080;fill-rule:evenodd;stroke:#008080;stroke-width:6.02799988;stroke-linecap:butt;stroke-linejoin:miter;stroke-miterlimit:4;stroke-dasharray:none;stroke-opacity:1" />
      <ellipse
         ry="54.209091"
         rx="54.209099"
         cy="-265.79742"
         cx="-789.83319"
         id="ellipse7020"
         style="fill:none;fill-opacity:1;stroke:#008080;stroke-width:5.54845762;stroke-miterlimit:4;stroke-dasharray:none"
         inkscape:transform-center-y="134.3945"
         transform="matrix(-0.5,-0.8660254,0.8660254,-0.5,0,0)"
         inkscape:transform-center-x="232.77804" />
      <path
         inkscape:transform-center-y="75.720785"
         style="fill:#008080;fill-rule:evenodd;stroke:#008080;stroke-width:6.02799988;stroke-linecap:butt;stroke-linejoin:miter;stroke-miterlimit:4;stroke-dasharray:none;stroke-opacity:1"
         d="M 213.28163,788.88257 319.42854,727.59862"
         id="path7022"
         inkscape:connector-curvature="0"
         inkscape:transform-center-x="131.15224" />
      <ellipse
         inkscape:transform-center-x="134.39448"
         transform="matrix(-0.8660254,-0.5,0.5,-0.8660254,0,0)"
         inkscape:transform-center-y="232.77807"
         style="fill:none;fill-opacity:1;stroke:#008080;stroke-width:5.54845762;stroke-miterlimit:4;stroke-dasharray:none"
         id="ellipse7024"
         cx="-685.51135"
         cy="-661.11481"
         rx="54.209099"
         ry="54.209091" />
      <path
         inkscape:transform-center-x="75.72078"
         inkscape:connector-curvature="0"
         id="path7026"
         d="M 291.14457,866.74551 352.42852,760.5986"
         style="fill:#008080;fill-rule:evenodd;stroke:#008080;stroke-width:6.02799988;stroke-linecap:butt;stroke-linejoin:miter;stroke-miterlimit:4;stroke-dasharray:none;stroke-opacity:1"
         inkscape:transform-center-y="131.15225" />
      <ellipse
         ry="54.209091"
         rx="54.209099"
         cy="-951.30878"
         cx="-397.50732"
         id="ellipse7028"
         style="fill:none;fill-opacity:1;stroke:#008080;stroke-width:5.54845762;stroke-miterlimit:4;stroke-dasharray:none"
         inkscape:transform-center-y="268.78895"
         transform="scale(-1,-1)" />
      <path
         inkscape:transform-center-y="151.44157"
         style="fill:#008080;fill-rule:evenodd;stroke:#008080;stroke-width:6.02799988;stroke-linecap:butt;stroke-linejoin:miter;stroke-miterlimit:4;stroke-dasharray:none;stroke-opacity:1"
         d="m 397.50733,895.24532 0,-122.56789"
         id="path7030"
         inkscape:connector-curvature="0" />
      <ellipse
         inkscape:transform-center-x="-134.39445"
         transform="matrix(-0.8660254,0.5,-0.5,-0.8660254,0,0)"
         inkscape:transform-center-y="232.77801"
         style="fill:none;fill-opacity:1;stroke:#008080;stroke-width:5.54845762;stroke-miterlimit:4;stroke-dasharray:none"
         id="ellipse7032"
         cx="-2.9915376"
         cy="-1058.6221"
         rx="54.209099"
         ry="54.209091" />
      <path
         inkscape:transform-center-x="-75.720785"
         inkscape:connector-curvature="0"
         id="path7034"
         d="M 503.87009,866.74551 442.58614,760.5986"
         style="fill:#008080;fill-rule:evenodd;stroke:#008080;stroke-width:6.02799988;stroke-linecap:butt;stroke-linejoin:miter;stroke-miterlimit:4;stroke-dasharray:none;stroke-opacity:1"
         inkscape:transform-center-y="131.15225" />
      <ellipse
         ry="54.209091"
         rx="54.209099"
         cy="-954.30023"
         cx="392.32584"
         id="ellipse7036"
         style="fill:none;fill-opacity:1;stroke:#008080;stroke-width:5.54845762;stroke-miterlimit:4;stroke-dasharray:none"
         inkscape:transform-center-y="134.39444"
         transform="matrix(-0.5,0.8660254,-0.8660254,-0.5,0,0)"
         inkscape:transform-center-x="-232.77798" />
      <path
         inkscape:transform-center-y="75.72079"
         style="fill:#008080;fill-rule:evenodd;stroke:#008080;stroke-width:6.02799988;stroke-linecap:butt;stroke-linejoin:miter;stroke-miterlimit:4;stroke-dasharray:none;stroke-opacity:1"
         d="M 581.73303,788.88257 475.58612,727.59862"
         id="path7038"
         inkscape:connector-curvature="0"
         inkscape:transform-center-x="-131.15225" />
      <ellipse
         inkscape:transform-center-x="-268.78886"
         transform="matrix(0,1,-1,0,0,0)"
         inkscape:transform-center-y="3.1107493e-05"
         style="fill:none;fill-opacity:1;stroke:#008080;stroke-width:5.54845762;stroke-miterlimit:4;stroke-dasharray:none"
         id="ellipse7040"
         cx="682.51984"
         cy="-666.2962"
         rx="54.209099"
         ry="54.209091" />
      <path
         inkscape:transform-center-x="-151.44158"
         inkscape:connector-curvature="0"
         id="path7042"
         d="m 610.23285,682.51981 -122.5679,0"
         style="fill:#008080;fill-rule:evenodd;stroke:#008080;stroke-width:6.02799988;stroke-linecap:butt;stroke-linejoin:miter;stroke-miterlimit:4;stroke-dasharray:none;stroke-opacity:1" />
      <ellipse
         ry="54.209091"
         rx="54.209099"
         cy="-271.78043"
         cx="789.83319"
         id="ellipse7044"
         style="fill:none;fill-opacity:1;stroke:#008080;stroke-width:5.54845762;stroke-miterlimit:4;stroke-dasharray:none"
         inkscape:transform-center-y="-134.3944"
         transform="matrix(0.5,0.8660254,-0.8660254,0.5,0,0)"
         inkscape:transform-center-x="-232.77801" />
      <path
         inkscape:transform-center-y="-75.720785"
         style="fill:#008080;fill-rule:evenodd;stroke:#008080;stroke-width:6.02799988;stroke-linecap:butt;stroke-linejoin:miter;stroke-miterlimit:4;stroke-dasharray:none;stroke-opacity:1"
         d="M 581.73303,576.15705 475.58612,637.441"
         id="path7046"
         inkscape:connector-curvature="0"
         inkscape:transform-center-x="-131.15225" />
      <ellipse
         inkscape:transform-center-x="-134.39445"
         transform="matrix(0.8660254,0.5,-0.5,0.8660254,0,0)"
         inkscape:transform-center-y="-232.77798"
         style="fill:none;fill-opacity:1;stroke:#008080;stroke-width:5.54845762;stroke-miterlimit:4;stroke-dasharray:none"
         id="ellipse7048"
         cx="685.51135"
         cy="123.53694"
         rx="54.209099"
         ry="54.209091" />
      <path
         inkscape:transform-center-x="-75.72079"
         inkscape:connector-curvature="0"
         id="path7050"
         d="M 503.87009,498.29411 442.58614,604.44102"
         style="fill:#008080;fill-rule:evenodd;stroke:#008080;stroke-width:6.02799988;stroke-linecap:butt;stroke-linejoin:miter;stroke-miterlimit:4;stroke-dasharray:none;stroke-opacity:1"
         inkscape:transform-center-y="-131.15225" />
    </g>
  </g>
</svg>
