<?xml version="1.0" encoding="UTF-8" standalone="no"?>
<!-- Created with Inkscape (http://www.inkscape.org/) -->

<svg
   xmlns:dc="http://purl.org/dc/elements/1.1/"
   xmlns:cc="http://creativecommons.org/ns#"
   xmlns:rdf="http://www.w3.org/1999/02/22-rdf-syntax-ns#"
   xmlns:svg="http://www.w3.org/2000/svg"
   xmlns="http://www.w3.org/2000/svg"
   xmlns:sodipodi="http://sodipodi.sourceforge.net/DTD/sodipodi-0.dtd"
   xmlns:inkscape="http://www.inkscape.org/namespaces/inkscape"
   width="50mm"
   height="40mm"
   viewBox="0 0 177.16535 141.73228"
   id="svg4789"
   version="1.1"
   inkscape:version="0.91 r13725"
   sodipodi:docname="433MHz_logo.svg">
  <defs
     id="defs4791" />
  <sodipodi:namedview
     id="base"
     pagecolor="#ffffff"
     bordercolor="#666666"
     borderopacity="1.0"
     inkscape:pageopacity="0.0"
     inkscape:pageshadow="2"
     inkscape:zoom="1.4"
     inkscape:cx="-1.3475591"
     inkscape:cy="59.922414"
     inkscape:document-units="px"
     inkscape:current-layer="layer1"
     showgrid="false"
     inkscape:window-width="1400"
     inkscape:window-height="1001"
     inkscape:window-x="0"
     inkscape:window-y="25"
     inkscape:window-maximized="1" />
  <metadata
     id="metadata4794">
    <rdf:RDF>
      <cc:Work
         rdf:about="">
        <dc:format>image/svg+xml</dc:format>
        <dc:type
           rdf:resource="http://purl.org/dc/dcmitype/StillImage" />
        <dc:title></dc:title>
      </cc:Work>
    </rdf:RDF>
  </metadata>
  <g
     inkscape:label="Layer 1"
     inkscape:groupmode="layer"
     id="layer1"
     transform="translate(0,-910.62992)">
    <g
       id="g5991"
       transform="matrix(0.8423562,0,0,0.8423562,-102.38585,524.23183)">
      <path
         inkscape:connector-curvature="0"
         id="path5370"
         d="m 136.22662,623.98604 c -2.11465,-0.76005 -4.9699,-2.43276 -6.34502,-3.71715 -5.51466,-5.15081 -5.31017,-2.14195 -5.31017,-78.13554 l 0,-70.39962 2.88378,-3.98095 c 1.58609,-2.18953 4.62359,-4.84454 6.75,-5.90004 3.72409,-1.84854 7.11971,-1.91909 92.36622,-1.91909 l 88.5,0 4.16579,2.22736 c 2.29118,1.22505 5.21618,3.70005 6.5,5.5 l 2.33421,3.27264 0.26457,70.5 c 0.29906,79.6928 0.79857,74.47318 -7.70372,80.5 l -4.23223,3 -88.16431,0.21714 c -72.90874,0.17958 -88.8296,-0.022 -92.00912,-1.16475 z m 71.35232,-56.32809 c 2.47913,-1.06994 6.05245,-3.24561 7.94072,-4.83482 l 3.43321,-2.88948 52.55928,-0.5 52.55928,-0.5 0,-42.67747 c 0,-41.34341 -0.0635,-42.76252 -2.03218,-45.39855 -1.1177,-1.4966 -3.58568,-3.55424 -5.4844,-4.57254 -3.28375,-1.76109 -7.67423,-1.85136 -89.96782,-1.84989 -80.39061,10e-4 -86.75836,0.12534 -89.94452,1.75 -1.8859,0.96165 -4.3609,3.01859 -5.5,4.57098 -2.01833,2.75065 -2.07108,3.90949 -2.07108,45.5 l 0,42.67747 19.5,0.5 19.5,0.5 5.78172,3.91264 c 3.17995,2.15196 7.90495,4.51302 10.5,5.24681 6.17799,1.74691 17.46931,1.04921 23.22579,-1.43515 z M 187.2564,554.41679 c -1.54826,-0.46472 -4.36491,-2.02711 -6.25923,-3.47198 -11.35447,-8.66048 -10.34102,-27.78852 1.85083,-34.93292 8.8509,-5.1866 17.86182,-4.25717 25.3128,2.6109 7.92087,7.30121 9.20921,18.0064 3.29024,27.33963 -4.75493,7.49775 -15.21017,11.15114 -24.19464,8.45437 z m -46.30354,-26.57141 c 1.9586,-16.66464 11.58999,-31.55229 26.07572,-40.30632 6.21408,-3.7553 16.9504,-7.10541 22.7712,-7.10541 3.5112,0 3.77165,0.20403 3.77165,2.95469 0,2.64619 -0.39154,3.01426 -3.75,3.52533 -16.10435,2.45065 -28.08248,10.21606 -36.502,23.66418 -2.6251,4.19295 -5.748,14.42023 -5.748,18.82425 0,3.96988 -0.0556,4.03155 -3.63768,4.03155 l -3.63768,0 0.65679,-5.58827 z m 14.1498,0.83827 c 2.08472,-15.14637 14.22855,-28.86865 28.93876,-32.70017 8.78364,-2.28785 9.53001,-2.14576 9.53001,1.81425 0,3.22936 -0.18033,3.38879 -4.5032,3.9813 -12.81933,1.75709 -25.39493,14.33644 -27.1527,27.1608 -0.59358,4.33059 -0.74037,4.49382 -4.0413,4.49382 l -3.42535,0 0.65378,-4.75 z"
         style="fill:#174b7d;fill-opacity:1" />
      <g
         transform="matrix(0.29830712,0,0,0.29830712,111.40626,385.99517)"
         id="g5394">
        <path
           style="fill:#000000;stroke:#000000"
           d="m 373.76726,527.90434 c 0,-2.12577 5.01585,-19.24861 11.14634,-38.05076 l 11.14634,-34.18572 44.11279,0.25858 c 46.02383,0.26978 56.94643,4.40472 55.31183,20.93923 -0.48234,4.87911 -5.8066,11.39101 -13.00602,15.90719 l -12.18936,7.64635 5.80389,13.74277 5.80389,13.74278 11.7918,-36.11845 11.7918,-36.11845 50.17715,-1.33554 c 47.51335,-1.26464 57.37734,0.96893 57.33933,12.98371 -0.005,1.69463 -5.47175,7.32304 -12.14753,12.50757 -11.45032,8.89252 -12.56634,8.96204 -19.70421,1.22745 -10.03282,-10.87156 -41.48941,-11.44022 -46.1514,-0.83432 -2.82554,6.42803 -0.79903,7.4156 15.93428,7.76517 l 19.17152,0.40051 -9.1015,7.69934 c -5.00583,4.23463 -15.11925,8.72709 -22.47427,9.98325 -10.75016,1.83602 -14.02374,4.58048 -16.69211,13.99414 -3.26845,11.53072 -3.90934,11.71022 -41.80851,11.71022 l -38.48918,0 -5.76774,-14.72932 c -3.4833,-8.89544 -8.1225,-14.72932 -11.713,-14.72932 -3.97574,0 -7.2817,4.87947 -9.97947,14.72932 -3.89741,14.22987 -4.64918,14.72932 -22.17043,14.72932 -9.97493,0 -18.13623,-1.73926 -18.13623,-3.86502 z m 80.61332,-50.81976 c 0,-6.48055 -24.54139,-5.03066 -28.08464,1.65922 -5.67372,10.71234 -3.28617,12.11202 12.48206,7.31747 8.58142,-2.6093 15.60258,-6.64881 15.60258,-8.97669 z"
           id="path5378"
           inkscape:connector-curvature="0"
           sodipodi:nodetypes="sscssscccccscsssscsssscsssssssss" />
        <g
           id="g5390"
           transform="matrix(1.1026012,0,0,1.1026012,27.892115,-243.34213)">
          <path
             sodipodi:nodetypes="ccssssscc"
             style="fill:#f58d1a;fill-opacity:1;stroke:#000000"
             d="m 510.88141,668.20609 42.90709,-34.12479 26.90309,0.69453 c 18.05686,0.46616 25.48678,2.19103 22.59581,5.24566 -2.36899,2.50311 -6.18487,3.19077 -8.47969,1.52813 -3.90465,-2.82899 -28.28659,13.8125 -68.75958,46.93071 -14.34345,11.73693 -20.85712,14.15872 -37.70624,14.01921 l -20.36757,-0.16866 z"
             id="path5384"
             inkscape:connector-curvature="0" />
          <path
             inkscape:connector-curvature="0"
             id="path5382"
             d="m 532.97431,700.07164 c -2.70856,-6.16191 -1.24969,-8.89001 9.33488,-17.4563 13.68435,-11.07499 16.00642,-10.11733 30.9448,12.76234 l 7.80129,11.94847 -22.43536,0.0245 c -16.69843,0.0182 -23.25623,-1.84313 -25.64561,-7.2789 z"
             style="fill:#000000;fill-opacity:1;stroke:#000000"
             sodipodi:nodetypes="csscscc" />
        </g>
      </g>
      <path
         inkscape:connector-curvature="0"
         id="path5989"
         d="m 193.87871,604.65621 c -1.00025,-0.21708 -2.01149,-0.48195 -2.2472,-0.58863 l -0.42855,-0.19387 0.44219,-2.1885 c 0.32547,-1.61083 0.5186,-2.17855 0.73166,-2.1509 0.15921,0.0205 1.10786,0.33261 2.10812,0.69311 1.61491,0.58202 2.05632,0.65553 3.94039,0.65569 1.77474,0 2.29548,-0.0758 3.18409,-0.466 2.91753,-1.28057 3.35566,-4.45327 0.7563,-5.47672 -0.33342,-0.13125 -1.66231,-0.28572 -2.9531,-0.3432 l -2.34688,-0.10449 0.15702,-0.7311 c 0.0863,-0.40219 0.26231,-1.25404 0.39101,-1.89306 l 0.23399,-1.16197 1.45069,0 c 1.8925,0 3.64562,-0.29692 4.55815,-0.76806 1.27975,-0.66074 2.02039,-2.59029 1.42285,-3.70685 -0.37168,-0.69446 -1.74283,-1.17254 -3.37692,-1.17752 -1.55874,-0.008 -4.12721,0.44611 -5.27636,0.92608 -0.37826,0.15802 -0.72695,0.24804 -0.77487,0.20012 -0.0909,-0.0909 0.70063,-4.17428 0.83532,-4.309 0.0424,-0.0426 0.92718,-0.2512 1.96618,-0.46411 5.65549,-1.15864 10.76031,-0.44744 12.42159,1.73055 0.48965,0.64195 0.59318,0.99036 0.65271,2.19631 0.0879,1.77974 -0.43557,3.31642 -1.56784,4.60277 -0.76559,0.86977 -2.66138,1.98135 -3.38578,1.9853 -0.20148,0 0.089,0.21401 0.64549,0.47311 1.97584,0.92016 2.84509,2.46559 2.68051,4.76583 -0.13666,1.91004 -0.92888,3.56415 -2.36147,4.93065 -2.17961,2.07896 -4.28986,2.7611 -8.90854,2.87979 -2.56932,0.0663 -3.45889,0.009 -4.95075,-0.31422 z m 22.83406,0.11459 c -2.44167,-0.46987 -3.1331,-0.7386 -3.12414,-1.21416 0.01,-0.5126 0.71595,-3.94195 0.83677,-4.06269 0.0473,-0.0474 0.77484,0.18147 1.6168,0.50841 4.4118,1.71309 8.92099,1.01587 9.99096,-1.54489 0.48377,-1.15785 0.36177,-2.0495 -0.38221,-2.79348 -0.80328,-0.80328 -2.07081,-1.11805 -4.50255,-1.11805 -1.23134,0 -1.7077,-0.0703 -1.70782,-0.25255 -9e-5,-0.13899 0.14875,-1.00284 0.33077,-1.91969 l 0.33091,-1.66713 1.43736,0 c 4.07172,-0.008 5.88728,-0.92308 6.13306,-3.1036 0.13539,-1.20113 -0.2495,-1.79727 -1.45858,-2.25901 -1.29109,-0.49309 -4.27015,-0.31454 -6.46159,0.38727 -0.88435,0.28319 -1.63401,0.48882 -1.66593,0.45692 -0.0319,-0.0316 0.13555,-1.02401 0.37213,-2.20461 l 0.43015,-2.14655 1.42584,-0.32433 c 2.61252,-0.59418 5.59075,-0.80439 7.763,-0.5479 2.50432,0.29567 3.66436,0.69628 4.7098,1.62639 2.62003,2.33103 0.92933,7.6908 -2.8553,9.05169 l -1.00835,0.36263 0.7649,0.38442 c 1.03493,0.5201 1.83083,1.28998 2.32266,2.24654 0.33715,0.65577 0.39361,1.06847 0.32004,2.33933 -0.21634,3.73702 -2.69221,6.44836 -6.9296,7.58862 -1.66205,0.44728 -6.80585,0.57031 -8.68908,0.20792 z m -38.19472,-0.57592 c 0.23369,-1.00711 0.71049,-3.42304 0.71049,-3.60001 0,-0.11213 -2.09069,-0.1889 -5.14778,-0.1889 l -5.14776,0 0.12556,-0.62773 c 0.069,-0.34533 0.31685,-1.52633 0.55064,-2.62448 l 0.42509,-1.99668 6.06214,-6.96673 6.06215,-6.9668 3.28365,-0.008 c 3.02563,-0.008 3.28366,0.0213 3.28366,0.35528 0,0.30466 -2.39676,12.54627 -2.72815,13.93417 -0.1057,0.4427 -0.066,0.45462 1.51187,0.45462 1.89376,0 1.82012,-0.15478 1.24976,2.62694 l -0.35217,1.71759 -1.70811,0.10109 -1.7081,0.10099 -0.3939,2.07123 -0.3939,2.07123 -2.89532,0 -2.89532,0 0.1055,-0.45464 z m 2.59833,-12.91775 c 0.51544,-2.57584 0.91369,-4.70677 0.88502,-4.73543 -0.0504,-0.0505 -6.83997,7.6495 -7.78878,8.83326 l -0.4693,0.58548 3.21795,0 3.21795,0 0.93716,-4.68331 z m 55.29835,13.19437 c 0,-0.104 1.04571,-5.34539 2.32382,-11.64751 1.27809,-6.30219 2.32382,-11.49367 2.32382,-11.53663 0,-0.0426 1.72159,-0.0782 3.82573,-0.0782 3.47,0 3.83524,0.0331 3.92774,0.35363 0.056,0.19449 0.66577,2.89969 1.35482,6.01158 0.68904,3.11189 1.30956,5.72271 1.37892,5.80176 0.0693,0.0791 1.85378,-2.60348 3.96542,-5.96113 l 3.83934,-6.10484 3.78658,-0.0553 c 2.95467,-0.0426 3.7886,0 3.79576,0.20208 0.005,0.14136 -1.01692,5.41742 -2.27105,11.72459 l -2.28024,11.46753 -2.88561,0 -2.88561,0 0.10881,-0.45462 c 0.41687,-1.74177 3.25326,-16.30382 3.15688,-16.2074 -0.0665,0.0663 -1.81433,2.81962 -3.88419,6.11812 l -3.76335,5.99729 -1.92513,0.0577 -1.92514,0.0577 -0.50704,-2.17933 c -0.27886,-1.19861 -0.89901,-3.92591 -1.3781,-6.06078 -0.47908,-2.1348 -0.92032,-3.83289 -0.98054,-3.7735 -0.0602,0.0592 -0.84089,3.76102 -1.73487,8.22598 l -1.62539,8.11811 -2.8707,0.056 c -1.68771,0.0331 -2.87068,-0.0221 -2.87068,-0.13306 z m 31.93711,-0.17563 c 0.006,-0.19449 1.03269,-5.44584 2.28283,-11.66962 l 2.273,-11.31599 2.80974,-0.0569 c 1.54536,-0.0308 2.91884,-0.0142 3.0522,0.0363 0.17704,0.0679 0.003,1.25547 -0.64555,4.40099 -0.4884,2.36941 -0.88866,4.33071 -0.88946,4.35851 -7.9e-4,0.0276 1.9852,0.0505 4.41334,0.0505 l 4.4148,0 0.88957,-4.39506 0.88958,-4.39508 2.98055,-0.056 c 2.74503,-0.0513 2.97978,-0.0276 2.97071,0.30309 -0.006,0.1975 -1.0327,5.45121 -2.28287,11.67507 l -2.27303,11.31599 -3.04455,0.0553 -3.04455,0.0561 0.88051,-4.40021 c 0.48428,-2.42011 0.93382,-4.65022 0.99895,-4.95584 l 0.11843,-0.55571 -4.41745,0 -4.41746,0 -1.00384,4.9507 -1.00386,4.95079 -2.98071,0 c -2.70781,0 -2.97981,-0.0324 -2.97088,-0.35363 z m 25.24909,0.26582 c 0,-0.095 0.5432,-2.77627 0.70201,-3.4652 0.0536,-0.23273 2.55546,-2.53683 5.59495,-5.15287 l 5.49792,-4.73187 -4.38476,-0.0545 -4.38477,-0.0545 0.10451,-0.45076 c 0.1611,-0.6947 0.70949,-3.39618 0.70949,-3.49497 0,-0.0482 3.04622,-0.0878 6.76939,-0.0878 l 6.76939,0 0,2.41655 0,2.41656 -4.98571,4.30228 -4.9857,4.30236 4.48052,0.0545 c 3.198,0.0387 4.48054,0.12059 4.48054,0.28564 0,0.12722 -0.15404,1.03482 -0.34229,2.01689 l -0.34229,1.78551 -7.84161,0 c -4.31287,0 -7.84159,-0.0395 -7.84159,-0.0878 z"
         style="fill:#f9f9f9" />
    </g>
  </g>
</svg>
