<?xml version="1.0" encoding="UTF-8" standalone="no"?>
<!-- Created with Inkscape (http://www.inkscape.org/) -->

<svg
   xmlns:dc="http://purl.org/dc/elements/1.1/"
   xmlns:cc="http://creativecommons.org/ns#"
   xmlns:rdf="http://www.w3.org/1999/02/22-rdf-syntax-ns#"
   xmlns:svg="http://www.w3.org/2000/svg"
   xmlns="http://www.w3.org/2000/svg"
   xmlns:sodipodi="http://sodipodi.sourceforge.net/DTD/sodipodi-0.dtd"
   xmlns:inkscape="http://www.inkscape.org/namespaces/inkscape"
   width="55mm"
   height="38mm"
   viewBox="0 0 194.88189 134.64567"
   id="svg2"
   version="1.1"
   inkscape:version="0.91 r13725"
   sodipodi:docname="general.svg">
  <defs
     id="defs4" />
  <sodipodi:namedview
     id="base"
     pagecolor="#ffffff"
     bordercolor="#666666"
     borderopacity="1.0"
     inkscape:pageopacity="0.0"
     inkscape:pageshadow="2"
     inkscape:zoom="1.979899"
     inkscape:cx="68.425605"
     inkscape:cy="33.05571"
     inkscape:document-units="px"
     inkscape:current-layer="layer1"
     showgrid="false"
     inkscape:window-width="1400"
     inkscape:window-height="1001"
     inkscape:window-x="0"
     inkscape:window-y="25"
     inkscape:window-maximized="1" />
  <metadata
     id="metadata7">
    <rdf:RDF>
      <cc:Work
         rdf:about="">
        <dc:format>image/svg+xml</dc:format>
        <dc:type
           rdf:resource="http://purl.org/dc/dcmitype/StillImage" />
        <dc:title></dc:title>
      </cc:Work>
    </rdf:RDF>
  </metadata>
  <g
     inkscape:label="Layer 1"
     inkscape:groupmode="layer"
     id="layer1"
     transform="translate(0,-917.71653)">
    <path
       style="fill:#000000"
       d="m 85.974647,1049.0274 c -5.74033,-1.2273 -17.55845,-5.956 -22.02275,-8.8118 -5.87223,-3.7564 -15.29124,-13.2097 -19.5342,-19.6053 -4.53871,-6.8414 -3.47314,-6.8633 1.55576,-0.032 5.27866,7.1706 14.20344,14.1045 24.00119,18.6473 10.30434,4.7777 16.22807,5.7776 31.089633,5.2478 11.2707,-0.4017 13.79144,-0.8214 19.84772,-3.3046 9.93083,-4.0717 20.64707,-11.5931 26.50348,-18.6019 6.2634,-7.4958 6.69704,-6.4677 0.56603,1.3421 -5.47385,6.9726 -16.24664,16.0149 -23.00686,19.3109 -10.49669,5.1179 -29.199623,7.903 -39.000003,5.8076 z m 20.500003,-16.7079 c 0,-1.3022 1.35,-6.4642 3,-11.4711 3.79199,-11.5067 3.78358,-13.3242 -0.0767,-16.5725 l -3.07675,-2.5889 17.01771,0 c 9.92319,0 17.26779,0.4047 17.61759,0.9707 0.87027,1.4081 -2.15775,6.7855 -4.53834,8.0596 -1.11969,0.5992 -5.02076,3.7946 -8.66905,7.1008 -3.64829,3.3062 -8.28263,6.8528 -10.29854,7.8812 -2.0159,1.0285 -5.07143,3.4714 -6.79005,5.4288 -3.68463,4.1966 -4.18587,4.3393 -4.18587,1.1914 z M 11.894957,995.8016 c -3.8712899,-2.36071 -5.9401399,-7.17427 -5.8514799,-13.61453 0.13234,-9.61267 4.9638599,-14.5 14.3344499,-14.5 6.06777,0 10.09672,1.67044 10.09672,4.18619 0,1.74351 -0.19244,1.76566 -2.95034,0.33949 -3.48568,-1.80252 -8.96504,-1.97699 -12.43502,-0.39596 -6.6509299,3.03036 -6.6509299,18.7102 0,21.74056 2.68862,1.22502 8.26972,1.49506 10.80357,0.52273 1.11022,-0.42603 1.58179,-1.91664 1.58179,-5 0,-4.35392 -0.0311,-4.39301 -3.5,-4.39301 -2.44445,0 -3.5,-0.45238 -3.5,-1.5 0,-1.15152 1.27777,-1.5 5.5,-1.5 l 5.5,0 0,6.47432 c 0,6.15806 -0.14412,6.54885 -2.95034,8 -4.15715,2.14974 -12.82142,1.96229 -16.62935,-0.35979 z m 26.57969,-13.11453 0,-15 9,0 c 7.33333,0 9,0.27778 9,1.5 0,1.19048 -1.44445,1.5 -7,1.5 l -7,0 0,5 0,5 7,0 c 5.55555,0 7,0.30952 7,1.5 0,1.19048 -1.44445,1.5 -7,1.5 l -7,0 0,5.5 0,5.5 7.5,0 c 6,0 7.5,0.3 7.5,1.5 0,1.22807 -1.72223,1.5 -9.5,1.5 l -9.5,0 0,-15 z m 25,-0.0664 0,-15.06642 2.75,0.31642 c 2.40894,0.27718 3.52166,1.80468 8.97199,12.31642 l 6.22199,12 0.028,-12.25 c 0.0265,-11.574 0.13837,-12.25 2.02801,-12.25 1.91111,0 2,0.66667 2,15 l 0,15 -2.76881,0 c -2.53844,0 -3.28245,-1.01924 -8.94211,-12.25 l -6.17329,-12.25 -0.0579,12.25 c -0.0547,11.56403 -0.16989,12.25 -2.0579,12.25 -1.9115,0 -2,-0.66667 -2,-15.06642 z m 30,0.0664 0,-15 9.000003,0 c 7.33333,0 9,0.27778 9,1.5 0,1.19048 -1.44444,1.5 -7,1.5 l -7.000003,0 0,5 0,5 7.000003,0 c 5.55556,0 7,0.30952 7,1.5 0,1.19048 -1.44444,1.5 -7,1.5 l -7.000003,0 0,5.5 0,5.5 7.500003,0 c 6,0 7.5,0.3 7.5,1.5 0,1.22807 -1.72222,1.5 -9.5,1.5 l -9.500003,0 0,-15 z m 26.000003,0 0,-15 5.95295,0 c 7.03213,0 10.41638,1.32042 11.93678,4.65732 1.59837,3.50805 1.37752,5.73321 -0.8501,8.56517 l -1.96038,2.49221 3.52727,6.64265 c 1.93999,3.65346 3.6728,6.64265 3.85068,6.64265 0.17788,0 2.71828,-6.525 5.64533,-14.5 4.66244,-12.70322 5.5965,-14.5 7.53784,-14.5 2.36384,0 2.37742,0.0285 9.93476,20.81707 3.2946,9.06273 3.32846,9.30842 1.24006,9 -1.43331,-0.21167 -2.53581,-1.48051 -3.31667,-3.81707 -1.16357,-3.48177 -1.20411,-3.50153 -7.78063,-3.79447 l -6.61096,-0.29447 -1.21175,4.04447 c -1.16421,3.88579 -1.37539,4.04447 -5.38253,4.04447 -4.03625,0 -4.24773,-0.16429 -6.55658,-5.0938 -2.70983,-5.78559 -5.17172,-7.9062 -9.17858,-7.9062 -2.75178,0 -2.77749,0.0602 -2.77749,6.5 0,5.83333 -0.20513,6.5 -2,6.5 -1.91111,0 -2,-0.66667 -2,-15 z m 40.50121,2.25 c -0.39202,-0.9625 -1.39997,-3.775 -2.2399,-6.25 -0.83993,-2.475 -1.8495,-4.85967 -2.2435,-5.29928 -0.394,-0.4396 -1.84703,2.3729 -3.22896,6.25 l -2.5126,7.04928 5.46887,0 c 4.8133,0 5.38342,-0.20978 4.75609,-1.75 z m -27.05791,-5.47251 c 0.85618,-1.22238 1.5567,-2.79738 1.5567,-3.5 0,-2.50589 -3.93879,-5.27749 -7.5,-5.27749 l -3.5,0 0,5.5 0,5.5 3.9433,0 c 2.94127,0 4.33886,-0.56476 5.5,-2.22251 z m 39.5567,3.22251 c 0,-14.33333 0.0889,-15 2,-15 1.90123,0 2,0.66667 2,13.5 l 0,13.5 7,0 c 5.55556,0 7,0.30952 7,1.5 0,1.22222 -1.66667,1.5 -9,1.5 l -9,0 0,-15 z M 75.690387,963.23421 c -1.06119,-1.34907 -2.50233,-4.49908 -3.20255,-7 -1.48692,-5.31076 -3.17387,-6.19342 -2.01478,-1.05419 0.43328,1.92112 0.41616,3.26327 -0.038,2.98256 -0.45421,-0.28071 -1.31879,-2.88499 -1.92131,-5.78729 -1.27203,-6.12735 -0.18367,-10.25415 4.82109,-18.28049 1.68309,-2.69925 2.64929,-5.05066 2.14711,-5.22536 -1.61344,-0.56128 -10.05577,3.67668 -16.53608,8.30093 -3.4629,2.47108 -8.45185,7.08573 -11.08654,10.25479 -6.77472,8.14874 -6.94502,8.27841 -4.28383,3.26191 1.31295,-2.475 5.98988,-8.1442 10.39318,-12.59823 12.1203,-12.25993 24.76704,-17.36704 43.006,-17.36704 21.120053,0 39.461113,9.10157 50.784873,25.2015 4.70508,6.6896 7.35512,11.26528 3.62771,6.26377 -13.68465,-18.36233 -41.37732,-31.08864 -53.853033,-24.74845 -3.34118,1.698 -5.26701,4.24845 -3.20799,4.24845 0.56003,0 2.06003,0.39609 3.33334,0.8802 3.090763,1.1751 4.309863,0.92789 4.340613,-0.8802 0.0345,-2.0292 6.36346,-1.63847 10.71397,0.66145 l 3.26052,1.72369 -2.779,1.01067 c -1.61477,0.58726 -2.57298,1.54754 -2.28724,2.29218 0.27047,0.70482 -0.32081,1.71638 -1.31396,2.2479 -0.99316,0.53152 -3.69171,3.46435 -5.99679,6.51741 -3.50437,4.6415 -4.015883,5.87837 -3.12185,7.54886 1.3957,2.60789 -0.17614,2.56696 -2.559533,-0.0667 -1.60539,-1.77393 -2.57722,-1.96928 -6.90499,-1.38803 -5.65756,0.75986 -7.3315,1.78276 -8.66739,5.29641 -0.66902,1.75967 -0.49673,3.07571 0.62723,4.7911 1.89846,2.89741 3.62328,2.99514 6.0249,0.34139 2.01053,-2.22162 4.17014,-1.22083 3.14278,1.45641 -0.46631,1.2152 -2.16444,1.56722 -7.5602,1.56722 -6.19599,0 -7.1703,-0.26888 -8.88822,-2.45286 z m 33.784263,0.45286 c 0,-0.55 0.42344,-1 0.94098,-1 0.51754,0 1.2191,0.45 1.55902,1 0.33992,0.55 -0.0835,1 -0.94098,1 -0.85746,0 -1.55902,-0.45 -1.55902,-1 z m -7,-2.5 c -1.375,-0.78602 -2.05,-1.42913 -1.5,-1.42913 0.55,0 2.125,0.64311 3.5,1.42913 1.375,0.78602 2.05,1.42913 1.5,1.42913 -0.55,0 -2.125,-0.64311 -3.5,-1.42913 z"
       id="path4177"
       inkscape:connector-curvature="0" />
  </g>
</svg>
