<?xml version="1.0" encoding="UTF-8" standalone="no"?>
<!-- Created with Inkscape (http://www.inkscape.org/) -->

<svg
   xmlns:dc="http://purl.org/dc/elements/1.1/"
   xmlns:cc="http://creativecommons.org/ns#"
   xmlns:rdf="http://www.w3.org/1999/02/22-rdf-syntax-ns#"
   xmlns:svg="http://www.w3.org/2000/svg"
   xmlns="http://www.w3.org/2000/svg"
   xmlns:sodipodi="http://sodipodi.sourceforge.net/DTD/sodipodi-0.dtd"
   xmlns:inkscape="http://www.inkscape.org/namespaces/inkscape"
   width="744.09448819"
   height="1052.3622047"
   id="svg2"
   version="1.1"
   inkscape:version="0.48.4 r9939"
   sodipodi:docname="New document 1">
  <defs
     id="defs4" />
  <sodipodi:namedview
     id="base"
     pagecolor="#ffffff"
     bordercolor="#666666"
     borderopacity="1.0"
     inkscape:pageopacity="0.0"
     inkscape:pageshadow="2"
     inkscape:zoom="0.34988092"
     inkscape:cx="176.00841"
     inkscape:cy="690.43215"
     inkscape:document-units="px"
     inkscape:current-layer="layer1"
     showgrid="false"
     inkscape:snap-bbox="true"
     inkscape:bbox-paths="true"
     inkscape:bbox-nodes="true"
     inkscape:snap-bbox-edge-midpoints="true"
     inkscape:snap-bbox-midpoints="true"
     inkscape:snap-global="false"
     inkscape:window-width="1280"
     inkscape:window-height="975"
     inkscape:window-x="0"
     inkscape:window-y="25"
     inkscape:window-maximized="1" />
  <metadata
     id="metadata7">
    <rdf:RDF>
      <cc:Work
         rdf:about="">
        <dc:format>image/svg+xml</dc:format>
        <dc:type
           rdf:resource="http://purl.org/dc/dcmitype/StillImage" />
        <dc:title></dc:title>
      </cc:Work>
    </rdf:RDF>
  </metadata>
  <g
     inkscape:label="Layer 1"
     inkscape:groupmode="layer"
     id="layer1">
    <rect
       style="color:#000000;fill:#ded8d5;fill-opacity:1;fill-rule:nonzero;stroke:#000000;stroke-width:8.86920261;stroke-linecap:butt;stroke-linejoin:miter;stroke-miterlimit:4;stroke-opacity:1;stroke-dasharray:none;stroke-dashoffset:0;marker:none;visibility:visible;display:inline;overflow:visible;enable-background:accumulate"
       id="rect2996"
       width="449.53064"
       height="636.69354"
       x="141.755"
       y="106.78458"
       ry="43.713619" />
    <path
       sodipodi:type="arc"
       style="color:#000000;fill:#ded8d5;fill-opacity:1;fill-rule:nonzero;stroke:#000000;stroke-width:1.75;stroke-linecap:butt;stroke-linejoin:miter;stroke-miterlimit:4;stroke-opacity:1;stroke-dasharray:none;stroke-dashoffset:0;marker:none;visibility:visible;display:inline;overflow:visible;enable-background:accumulate"
       id="path3766"
       sodipodi:cx="375.65201"
       sodipodi:cy="594.85999"
       sodipodi:rx="40.167229"
       sodipodi:ry="36.125244"
       d="m 415.81924,594.85999 a 40.167229,36.125244 0 1 1 -0.004,-0.5358"
       sodipodi:start="0"
       sodipodi:end="6.2683532"
       sodipodi:open="true"
       transform="matrix(5.5780141,0,0,6.2021276,-1728.8719,-2941.4849)" />
    <g
       id="g3833"
       transform="matrix(5.7679402,0,0,5.7679402,-1859.076,-1999.8145)">
      <path
         transform="matrix(0.75803723,0,0,0.84285259,101.09813,-25.000014)"
         sodipodi:open="true"
         sodipodi:end="6.2683532"
         sodipodi:start="0"
         d="m 415.81924,594.85999 c 0,19.95142 -17.98348,36.12524 -40.16723,36.12524 -22.18375,0 -40.16723,-16.17382 -40.16723,-36.12524 0,-19.95143 17.98348,-36.12525 40.16723,-36.12525 21.95144,0 39.83723,15.84913 40.16281,35.58945"
         sodipodi:ry="36.125244"
         sodipodi:rx="40.167229"
         sodipodi:cy="594.85999"
         sodipodi:cx="375.65201"
         id="path3766-3"
         style="color:#000000;fill:#ded8d5;fill-opacity:1;fill-rule:nonzero;stroke:#000000;stroke-width:1.75;stroke-linecap:butt;stroke-linejoin:miter;stroke-miterlimit:4;stroke-opacity:1;stroke-dasharray:none;stroke-dashoffset:0;marker:none;visibility:visible;display:inline;overflow:visible;enable-background:accumulate"
         sodipodi:type="arc" />
      <path
         inkscape:transform-center-y="74.279363"
         inkscape:transform-center-x="-88.485122"
         transform="matrix(0.70885254,0,0,0.78816472,119.57445,7.5316159)"
         sodipodi:open="true"
         sodipodi:end="6.2683532"
         sodipodi:start="0"
         d="m 415.81924,594.85999 c 0,19.95142 -17.98348,36.12524 -40.16723,36.12524 -22.18375,0 -40.16723,-16.17382 -40.16723,-36.12524 0,-19.95143 17.98348,-36.12525 40.16723,-36.12525 21.95144,0 39.83723,15.84913 40.16281,35.58945"
         sodipodi:ry="36.125244"
         sodipodi:rx="40.167229"
         sodipodi:cy="594.85999"
         sodipodi:cx="375.65201"
         id="path3766-3-6"
         style="color:#000000;fill:#ded8d5;fill-opacity:1;fill-rule:nonzero;stroke:#000000;stroke-width:1.75;stroke-linecap:butt;stroke-linejoin:miter;stroke-miterlimit:4;stroke-opacity:1;stroke-dasharray:none;stroke-dashoffset:0;marker:none;visibility:visible;display:inline;overflow:visible;enable-background:accumulate"
         sodipodi:type="arc" />
      <path
         transform="translate(-0.75787227,-0.25262409)"
         sodipodi:open="true"
         sodipodi:end="6.2683532"
         sodipodi:start="0"
         d="m 390.55685,464.12698 c 0,2.02305 -1.64,3.66305 -3.66305,3.66305 -2.02305,0 -3.66305,-1.64 -3.66305,-3.66305 0,-2.02304 1.64,-3.66305 3.66305,-3.66305 2.00186,0 3.63295,1.60708 3.66265,3.60872"
         sodipodi:ry="3.6630492"
         sodipodi:rx="3.6630492"
         sodipodi:cy="464.12698"
         sodipodi:cx="386.8938"
         id="path3806"
         style="color:#000000;fill:#ded8d5;fill-opacity:1;fill-rule:nonzero;stroke:#000000;stroke-width:1.75;stroke-linecap:butt;stroke-linejoin:miter;stroke-miterlimit:4;stroke-opacity:1;stroke-dasharray:none;stroke-dashoffset:0;marker:none;visibility:visible;display:inline;overflow:visible;enable-background:accumulate"
         sodipodi:type="arc" />
      <path
         transform="translate(-17.304757,12.504902)"
         sodipodi:open="true"
         sodipodi:end="6.2683532"
         sodipodi:start="0"
         d="m 390.55685,464.12698 c 0,2.02305 -1.64,3.66305 -3.66305,3.66305 -2.02305,0 -3.66305,-1.64 -3.66305,-3.66305 0,-2.02304 1.64,-3.66305 3.66305,-3.66305 2.00186,0 3.63295,1.60708 3.66265,3.60872"
         sodipodi:ry="3.6630492"
         sodipodi:rx="3.6630492"
         sodipodi:cy="464.12698"
         sodipodi:cx="386.8938"
         id="path3806-7"
         style="color:#000000;fill:#ded8d5;fill-opacity:1;fill-rule:nonzero;stroke:#000000;stroke-width:1.75;stroke-linecap:butt;stroke-linejoin:miter;stroke-miterlimit:4;stroke-opacity:1;stroke-dasharray:none;stroke-dashoffset:0;marker:none;visibility:visible;display:inline;overflow:visible;enable-background:accumulate"
         sodipodi:type="arc" />
      <path
         transform="translate(15.283749,12.504902)"
         sodipodi:open="true"
         sodipodi:end="6.2683532"
         sodipodi:start="0"
         d="m 390.55685,464.12698 c 0,2.02305 -1.64,3.66305 -3.66305,3.66305 -2.02305,0 -3.66305,-1.64 -3.66305,-3.66305 0,-2.02304 1.64,-3.66305 3.66305,-3.66305 2.00186,0 3.63295,1.60708 3.66265,3.60872"
         sodipodi:ry="3.6630492"
         sodipodi:rx="3.6630492"
         sodipodi:cy="464.12698"
         sodipodi:cx="386.8938"
         id="path3806-5"
         style="color:#000000;fill:#ded8d5;fill-opacity:1;fill-rule:nonzero;stroke:#000000;stroke-width:1.75;stroke-linecap:butt;stroke-linejoin:miter;stroke-miterlimit:4;stroke-opacity:1;stroke-dasharray:none;stroke-dashoffset:0;marker:none;visibility:visible;display:inline;overflow:visible;enable-background:accumulate"
         sodipodi:type="arc" />
    </g>
    <path
       sodipodi:type="arc"
       style="color:#000000;fill:#10e665;fill-opacity:1;fill-rule:nonzero;stroke:#000000;stroke-width:1.75;stroke-linecap:butt;stroke-linejoin:miter;stroke-miterlimit:4;stroke-opacity:1;stroke-dasharray:none;stroke-dashoffset:0;marker:none;visibility:visible;display:inline;overflow:visible;enable-background:accumulate"
       id="path3840"
       sodipodi:cx="386.56009"
       sodipodi:cy="413.03751"
       sodipodi:rx="4.2871728"
       sodipodi:ry="4.2871728"
       d="m 390.84726,413.03751 a 4.2871728,4.2871728 0 1 1 -4.7e-4,-0.0636"
       sodipodi:start="0"
       sodipodi:end="6.2683532"
       sodipodi:open="true"
       transform="matrix(5.7679402,0,0,5.7679402,-1863.1352,-1957.2443)" />
    <path
       style="fill:#00346d;fill-opacity:1"
       d="m 276.21685,233.22057 c -12.734,-9.1051 -1.82048,-24.82008 19.1705,-27.60467 16.05979,-2.13039 15.4789,-7.41745 -0.75278,-6.85162 -9.63972,0.33627 -11.56806,-0.34608 -11.56806,-4.09241 0,-2.4726 1.77295,-5.17604 3.93991,-6.00754 6.34744,-2.43574 28.34694,-1.73713 33.58567,1.06655 5.8735,3.14341 5.99797,7.88991 0.75428,28.76506 l -4.06357,16.17717 -10.25846,-0.34896 c -5.6422,-0.19207 -13.62105,0.38299 -17.73088,1.27731 -5.05242,1.0996 -9.2873,0.32877 -13.07661,-2.38089 z m 24.44891,-8.79392 c 6.64986,-3.55887 6.14413,-9.88452 -0.7864,-9.83739 -7.95583,0.0519 -12.81521,3.76831 -11.02697,8.42823 1.776,4.62831 5.06529,5.02064 11.81337,1.40916 z m 118.23539,9.17674 c -3.82668,-2.79814 -4.32595,-5.37676 -2.96437,-15.31048 0.90049,-6.57014 2.80028,-16.26449 4.22161,-21.54308 2.2882,-8.49756 3.4629,-9.59739 10.25107,-9.59739 7.07179,0 7.54874,0.5318 6.14632,6.84966 -0.83624,3.76733 -2.2439,12.17375 -3.12813,18.68091 -1.42877,10.51461 -1.08397,11.82705 3.09814,11.79313 7.80356,-0.0635 10.42117,-3.17888 13.59815,-16.18507 4.27681,-17.50881 6.61427,-21.13863 13.61239,-21.13863 4.22635,0 6.10681,1.35823 6.03477,4.35889 -0.1517,6.31716 -8.28403,38.67836 -10.64104,42.34343 -2.50779,3.89941 -13.4194,4.09656 -14.69643,0.26532 -0.71228,-2.13673 -2.27822,-2.13673 -6.27079,0 -7.05199,3.77414 -13.635,3.59746 -19.26169,-0.51681 z m 50.97458,1.39267 c 0,-1.08472 5.02462,-6.90353 11.16581,-12.93069 l 11.16587,-10.95845 -6.18428,-10.55268 c -3.40135,-5.80398 -6.18427,-11.19372 -6.18427,-11.97724 0,-0.78352 3.37904,-1.42456 7.509,-1.42456 5.66694,0 8.61972,1.82647 12.03686,7.4456 l 4.52795,7.44554 9.75751,-8.15903 c 43.15595,-36.08637 42.98361,-36.05355 13.982,-2.66254 -8.48821,9.77285 -15.4331,18.99284 -15.4331,20.48882 0,1.49591 2.23755,6.38978 4.97231,10.87516 2.73475,4.48538 4.97646,9.55632 4.98154,11.26877 0.0173,5.7553 -11.91651,3.32521 -17.30377,-3.52358 l -5.22073,-6.63711 -6.92756,6.63711 c -6.56398,6.28867 -22.84514,9.61319 -22.84514,4.66488 z M 206.9605,231.36393 c 0.52373,-1.71239 3.97936,-15.72306 7.67932,-31.13482 l 6.72726,-28.02141 8.6991,0 c 6.51708,0 8.35647,0.89282 7.33324,3.55934 -0.75122,1.95758 -2.1519,7.84209 -3.11267,13.07661 l -1.74682,9.51734 13.90564,-13.07662 c 11.83558,-11.12999 15.31826,-13.06375 23.39517,-12.98992 l 9.48959,0.0865 -15.67017,14.89225 -15.67017,14.89224 9.03485,16.15589 9.0349,16.15588 -9.55483,-0.005 c -9.04839,-0.005 -9.93325,-0.73004 -16.69339,-13.66777 -6.44447,-12.3337 -11.51945,-15.83536 -11.5563,-7.97365 -0.006,1.63152 -1.18116,7.16966 -2.6078,12.30693 -2.35171,8.46809 -3.39,9.34043 -11.1165,9.34043 -5.66533,0 -8.20334,-1.04382 -7.57042,-3.11347 z m 121.79657,-2.3077 c 0.84316,-3.18303 3.34968,-13.91354 5.56993,-23.84558 3.84214,-17.18679 4.37545,-18.05821 11.05172,-18.05821 3.85812,0 7.44197,1.28157 7.96408,2.84797 0.71223,2.13674 2.27822,2.13674 6.27079,0 8.13188,-4.35208 17.43026,-3.40504 21.3374,2.17319 3.03982,4.33991 2.98849,7.55006 -0.37838,23.66246 l -3.89514,18.6414 -8.36617,0 c -6.81038,0 -8.12051,-0.81062 -7.04548,-4.35889 3.97388,-13.11554 5.98003,-27.03387 4.15915,-28.85498 -1.14333,-1.14344 -4.72995,-1.70385 -7.97032,-1.24542 -5.01557,0.70969 -6.46292,3.24078 -9.73455,17.02373 -3.71092,15.63383 -4.12909,16.21783 -12.1696,16.99587 -7.63474,0.73882 -8.19925,0.32474 -6.79354,-4.98154 z m 64.83523,-26.95906 7.56315,-32.38024 8.47334,0 c 5.75023,0 8.09242,1.00057 7.28808,3.11348 -0.6519,1.71244 -4.24394,16.28353 -7.98237,32.38024 l -6.79711,29.26681 -8.05413,0 -8.05406,0 7.5631,-32.38029 z"
       id="path3859"
       inkscape:connector-curvature="0" />
  </g>
</svg>
