<?xml version="1.0" encoding="UTF-8" standalone="no"?>
<!-- Created with Inkscape (http://www.inkscape.org/) -->

<svg
   xmlns:dc="http://purl.org/dc/elements/1.1/"
   xmlns:cc="http://creativecommons.org/ns#"
   xmlns:rdf="http://www.w3.org/1999/02/22-rdf-syntax-ns#"
   xmlns:svg="http://www.w3.org/2000/svg"
   xmlns="http://www.w3.org/2000/svg"
   xmlns:sodipodi="http://sodipodi.sourceforge.net/DTD/sodipodi-0.dtd"
   xmlns:inkscape="http://www.inkscape.org/namespaces/inkscape"
   width="30mm"
   height="60mm"
   viewBox="0 0 106.29921 212.59843"
   id="svg2"
   version="1.1"
   inkscape:version="0.91 r13725"
   sodipodi:docname="OnOffSwitch.svg">
  <defs
     id="defs4" />
  <sodipodi:namedview
     id="base"
     pagecolor="#ffffff"
     bordercolor="#666666"
     borderopacity="1.0"
     inkscape:pageopacity="0.0"
     inkscape:pageshadow="2"
     inkscape:zoom="1.4"
     inkscape:cx="72.797303"
     inkscape:cy="37.055217"
     inkscape:document-units="px"
     inkscape:current-layer="layer1"
     showgrid="false"
     inkscape:window-width="1400"
     inkscape:window-height="1001"
     inkscape:window-x="0"
     inkscape:window-y="25"
     inkscape:window-maximized="1" />
  <metadata
     id="metadata7">
    <rdf:RDF>
      <cc:Work
         rdf:about="">
        <dc:format>image/svg+xml</dc:format>
        <dc:type
           rdf:resource="http://purl.org/dc/dcmitype/StillImage" />
        <dc:title></dc:title>
      </cc:Work>
    </rdf:RDF>
  </metadata>
  <g
     inkscape:label="Layer 1"
     inkscape:groupmode="layer"
     id="layer1"
     transform="translate(0,-839.76377)">
    <path
       style="fill:#000000"
       d="m 15.18072,1048.2217 c -1.629993,-0.7086 -3.795922,-2.6535 -4.813169,-4.322 -1.8228029,-2.9897 -1.8495281,-4.399 -1.8495281,-97.53054 0,-93.16574 0.026056,-94.53998 1.8515471,-97.53407 3.372243,-5.53111 4.481208,-5.67882 42.637797,-5.67882 38.156591,0 39.265555,0.14771 42.637795,5.67882 1.825464,2.99409 1.851547,4.36833 1.851547,97.53407 0,93.16564 -0.02605,94.53974 -1.851547,97.53394 -3.378396,5.5412 -4.452259,5.6827 -42.837689,5.6429 -27.682044,-0.029 -35.259986,-0.2954 -37.626753,-1.3243 z m 59.720819,-11.8316 c 1.665159,-0.6958 3.922575,-2.4029 5.016494,-3.7935 l 1.988934,-2.5285 0,-82.02011 c 0,-90.38568 0.349465,-84.8916 -5.595366,-87.96579 -3.737232,-1.93264 -42.871235,-1.93264 -46.608466,0 -5.944831,3.07419 -5.595366,-2.41989 -5.595366,87.96579 l 0,82.02011 1.986448,2.5253 c 3.560834,4.5268 6.0053,4.9868 26.713256,5.0257 14.195751,0.027 19.839934,-0.2872 22.094066,-1.229 z m -37.861063,-7.2029 c -1.212847,-0.641 -3.070678,-2.3303 -4.128514,-3.7541 -1.855097,-2.4971 -1.932658,-3.7403 -2.186002,-35.0422 -0.292023,-36.0817 -0.118562,-37.37218 5.482777,-40.78719 2.701167,-1.64682 4.609091,-1.85159 17.257353,-1.85159 12.466033,0 14.58108,0.21991 17.143593,1.78241 5.288599,3.22465 5.308122,3.35061 5.627155,36.28483 0.161306,16.65164 0.0289,32.05654 -0.294308,34.23304 -0.362813,2.4435 -1.586,5.0757 -3.197589,6.8809 l -2.61,2.9235 -15.444645,0.2478 c -11.134263,0.1786 -16.060076,-0.077 -17.64982,-0.9174 z m 21.746498,-12.0875 c 7.116515,-3.7027 9.629734,-11.8839 5.522597,-17.9774 -6.974063,-10.34701 -21.865007,-7.0065 -23.359676,5.2404 -1.141443,9.3526 9.599905,17.0228 17.837079,12.737 z m -8.53195,-4.3199 c -2.980338,-1.6915 -4.128514,-3.7079 -4.128514,-7.2508 0,-5.6061 5.676046,-8.9611 11.426993,-6.7542 2.308695,0.8859 4.36442,5.6291 3.717078,8.5764 -1.047707,4.7702 -7.003871,7.7054 -11.015557,5.4286 z M 49.7963,882.14783 l 0,-15.13789 3.66979,0 3.669791,0 0,15.13789 0,15.13788 -3.669791,0 -3.66979,0 0,-15.13788 z"
       id="path4205"
       inkscape:connector-curvature="0" />
  </g>
</svg>
