<?xml version="1.0" encoding="UTF-8" standalone="no"?>
<!-- Created with Inkscape (http://www.inkscape.org/) -->

<svg
   xmlns:dc="http://purl.org/dc/elements/1.1/"
   xmlns:cc="http://creativecommons.org/ns#"
   xmlns:rdf="http://www.w3.org/1999/02/22-rdf-syntax-ns#"
   xmlns:svg="http://www.w3.org/2000/svg"
   xmlns="http://www.w3.org/2000/svg"
   xmlns:sodipodi="http://sodipodi.sourceforge.net/DTD/sodipodi-0.dtd"
   xmlns:inkscape="http://www.inkscape.org/namespaces/inkscape"
   width="50mm"
   height="50mm"
   viewBox="0 0 177.16535 177.16535"
   id="svg4209"
   version="1.1"
   inkscape:version="0.91 r13725"
   sodipodi:docname="kosik.svg">
  <defs
     id="defs4211" />
  <sodipodi:namedview
     id="base"
     pagecolor="#ffffff"
     bordercolor="#666666"
     borderopacity="1.0"
     inkscape:pageopacity="0.0"
     inkscape:pageshadow="2"
     inkscape:zoom="1.979899"
     inkscape:cx="97.010204"
     inkscape:cy="73.779122"
     inkscape:document-units="px"
     inkscape:current-layer="layer1"
     showgrid="false"
     inkscape:window-width="1400"
     inkscape:window-height="1001"
     inkscape:window-x="0"
     inkscape:window-y="25"
     inkscape:window-maximized="1" />
  <metadata
     id="metadata4214">
    <rdf:RDF>
      <cc:Work
         rdf:about="">
        <dc:format>image/svg+xml</dc:format>
        <dc:type
           rdf:resource="http://purl.org/dc/dcmitype/StillImage" />
        <dc:title></dc:title>
      </cc:Work>
    </rdf:RDF>
  </metadata>
  <g
     inkscape:label="Layer 1"
     inkscape:groupmode="layer"
     id="layer1"
     transform="translate(0,-875.19685)">
    <path
       style="fill:#000000"
       d="m 23.193756,1044.1913 c -4.07345,-1.7981 -5.689664,-4.2506 -5.689664,-8.6336 0,-3.0229 0.448345,-4.3905 1.970501,-6.0107 l 1.97051,-2.0975 -4.024877,0 c -5.314253,0 -7.8148767,-1.7182 -7.4802919,-5.1396 0.4570099,-4.6734 -0.5790534,-4.5891 56.4778569,-4.6022 56.628709,-0.013 54.719469,0.1391 54.719469,-4.3596 0,-2.8281 -1.81013,-4.7752 -11.38675,-12.2484 l -8.96217,-6.99364 -9.536157,-0.7728 C 76.565876,992.1431 41.599699,989.38858 28.477016,988.38805 21.296643,987.84058 16.006662,987.05124 14.93924,986.36801 12.861715,985.03823 13.009159,985.84237 9.357914,955.92798 6.2452854,930.42637 6.0527147,927.2476 7.5471782,926.03757 c 1.2851245,-1.04054 14.8101488,-1.64693 58.7254688,-2.63294 43.533703,-0.97746 61.628123,-1.65169 62.276913,-2.32055 0.27688,-0.28545 2.40298,-5.45681 4.72466,-11.49192 7.16255,-18.6187 7.50137,-19.41701 8.64319,-20.36463 0.6104,-0.5066 6.33454,-1.82687 12.7203,-2.93394 18.33989,-3.17949 17.30204,-3.11582 19.23779,-1.18007 2.09218,2.09218 2.1622,3.43752 0.29756,5.71783 -1.16208,1.42114 -3.65014,2.11575 -13.59442,3.79529 -6.69461,1.13069 -12.24728,2.13104 -12.33925,2.22303 -0.092,0.092 -2.60184,6.37999 -5.57745,13.97335 -2.97561,7.59336 -9.36899,23.86462 -14.2075,36.15836 -11.8252,30.04559 -14.63264,37.25099 -15.90187,40.81285 l -1.07516,3.01721 6.84288,5.3433 c 9.19967,7.18356 11.16851,9.87906 11.60296,15.88536 0.40932,5.6588 -1.44205,9.3775 -6.10255,12.2579 -2.56899,1.5877 -2.73683,1.8782 -1.38144,2.3905 2.72152,1.0287 5.32271,4.575 5.7162,7.7932 1.01376,8.2908 -8.81185,13.5683 -15.48653,8.3179 -3.99749,-3.1444 -4.19967,-10.4957 -0.38105,-13.8548 0.84376,-0.7422 1.5341,-1.5911 1.5341,-1.8863 0,-0.7933 -81.277675,-0.2718 -81.769887,0.5245 -0.230879,0.3736 -0.04178,0.6793 0.420124,0.6793 1.283613,0 3.320082,4.487 3.320082,7.3152 0,3.6842 -1.979995,6.9125 -5.167093,8.4249 -3.332136,1.5813 -4.225665,1.604 -7.43145,0.1889 z m 7.662694,-5.0657 c 0.926538,-1.1779 1.684612,-2.7745 1.684612,-3.5481 0,-0.7735 -0.758074,-2.3701 -1.684612,-3.548 -3.40828,-4.3329 -9.96565,-1.9081 -9.96565,3.6852 0,5.2049 6.739919,7.5117 9.96565,3.4109 z m -5.966353,-1.3638 c -2.123114,-1.5525 -1.037087,-4.6227 1.635177,-4.6227 2.267689,0 3.419968,2.0305 2.226228,3.9229 -1.119206,1.7744 -2.139078,1.9592 -3.861405,0.6998 z m 97.872783,1.8798 c 3.417,-3.417 0.94276,-9.7537 -3.80846,-9.7537 -2.8012,0 -5.94525,2.9487 -5.94525,5.5757 0,4.8306 6.37182,7.5599 9.75371,4.178 z m -5.65726,-1.993 c -1.47037,-1.7717 -0.67894,-4.0666 1.5096,-4.3774 3.00767,-0.4271 4.22747,2.1104 2.05758,4.2803 -1.58384,1.5838 -2.31674,1.6038 -3.56718,0.097 z m -12.74137,-55.94679 c 0.7313,-1.91489 1.32964,-5.75542 1.32964,-8.5345 l 0,-5.05289 -8.12809,0 -8.128092,0 0,8.07903 0,8.07903 3.048035,0.31883 c 1.676419,0.17536 4.735719,0.38032 6.79845,0.45547 3.707297,0.13507 3.765707,0.0966 5.080057,-3.34497 z m -18.177779,-5.8657 0,-7.72169 -8.12809,0 -8.128092,0 0,7.2613 0,7.2613 2.235225,0.3386 c 1.229374,0.18624 4.887015,0.39341 8.128092,0.4604 l 5.892865,0.12178 0,-7.72169 z m -19.507419,-0.81281 0,-6.90888 -8.568684,0 -8.568694,0 0.237397,6.265 c 0.278615,7.35288 0.258514,7.33872 10.600709,7.47174 l 6.299272,0.081 0,-6.90888 z m -19.507424,-0.86078 0,-6.0481 -8.534497,0 -8.534496,0 0,5.63987 0,5.63985 3.454439,0.46178 c 4.299232,0.57469 12.18857,0.94225 13.004947,0.60587 0.335284,-0.13814 0.609607,-2.97281 0.609607,-6.29927 z m -19.673486,-0.57004 0.24034,-5.47806 -4.913993,0 c -4.821015,0 -4.913822,0.0423 -4.905044,2.23523 0.0049,1.22937 0.232505,3.58742 0.505755,5.24012 0.452921,2.73949 0.757245,3.0332 3.44549,3.32537 5.408441,0.58783 5.366394,0.62759 5.627452,-5.32266 z m 0.166065,-16.45098 0,-7.72169 -6.172343,0 -6.172343,0 0.525229,4.26725 c 0.28888,2.34699 0.730496,5.82175 0.981378,7.72169 l 0.45614,3.45444 5.190965,0 5.190974,0 0,-7.72169 z m 19.507421,0 0,-7.72169 -8.534497,0 -8.534496,0 0,7.72169 0,7.72169 8.534496,0 8.534497,0 0,-7.72169 z m 19.507424,-0.0285 0,-7.75013 -8.331295,0.23165 -8.331297,0.23163 -0.239754,6.43063 c -0.13187,3.53684 -0.05194,6.92016 0.177688,7.51848 0.310274,0.80856 2.510792,1.08786 8.571052,1.08786 l 8.153606,0 0,-7.75012 z m 19.507419,0.0285 0,-7.72169 -8.12809,0 -8.128092,0 0,7.72169 0,7.72169 8.128092,0 8.12809,0 0,-7.72169 z m 19.507419,0 0,-7.72169 -8.12809,0 -8.128092,0 0,7.72169 0,7.72169 8.128092,0 8.12809,0 0,-7.72169 z m 8.23007,-0.002 2.94682,-7.71941 -3.96283,0 -3.96282,0 0,7.72169 c 0,5.6367 0.27433,7.72107 1.01601,7.71939 0.5588,-0.002 2.34207,-3.47602 3.96282,-7.72169 z m -86.432451,-18.08273 0.233699,-7.51848 -7.436245,0 -7.436237,0 0.455831,2.64163 c 0.250712,1.45289 0.684492,4.47045 0.963944,6.70567 0.803413,6.426 0.526415,6.19406 7.080681,5.92871 l 5.90462,-0.23904 0.233707,-7.51849 z m 19.506349,-0.4064 0.232634,-7.92489 -7.278235,0 c -4.003029,0 -7.856801,0.22201 -8.563929,0.49336 -1.03647,0.39774 -1.285693,1.86828 -1.285693,7.58622 0,3.90107 0.256205,7.34906 0.56934,7.6622 0.313135,0.31313 4.062217,0.46554 8.331294,0.33866 l 7.761955,-0.23066 0.232634,-7.92489 z m 19.507773,-0.0288 0.232983,-7.95365 -8.361075,0.23197 -8.361079,0.23196 -0.238258,6.84094 c -0.131041,3.76252 -0.04601,7.34204 0.189051,7.95449 0.330244,0.86062 2.230665,1.06068 8.366353,0.88075 l 7.939041,-0.2328 0.232984,-7.95366 z m 19.50607,-0.37764 0.231643,-8.33129 -8.156531,0 -8.156524,0 0,8.56393 0,8.56393 7.92489,-0.23264 7.924888,-0.23263 0.231634,-8.3313 z m 19.682189,-0.2032 c 0,-10.2851 1.1067,-9.35725 -10.037476,-8.41522 l -6.218706,0.52567 0,7.87335 c 0,4.33035 0.243843,8.1172 0.541876,8.41523 0.298024,0.29803 3.955666,0.54187 8.128092,0.54187 l 7.586214,0 0,-8.9409 z m 15.49518,0.81281 c 1.71435,-4.24693 3.13555,-8.17889 3.15822,-8.7377 0.0302,-0.7444 -2.02302,-1.01601 -7.68048,-1.01601 l -7.72168,0 0,8.39903 c 0,4.61947 0.26027,8.6593 0.57838,8.97741 0.31811,0.31812 2.37167,0.47052 4.56347,0.33867 l 3.98509,-0.23971 3.117,-7.72169 z"
       id="path4768"
       inkscape:connector-curvature="0" />
  </g>
</svg>
