<?xml version="1.0" encoding="UTF-8" standalone="no"?>
<!-- Created with Inkscape (http://www.inkscape.org/) -->

<svg
   xmlns:dc="http://purl.org/dc/elements/1.1/"
   xmlns:cc="http://creativecommons.org/ns#"
   xmlns:rdf="http://www.w3.org/1999/02/22-rdf-syntax-ns#"
   xmlns:svg="http://www.w3.org/2000/svg"
   xmlns="http://www.w3.org/2000/svg"
   xmlns:sodipodi="http://sodipodi.sourceforge.net/DTD/sodipodi-0.dtd"
   xmlns:inkscape="http://www.inkscape.org/namespaces/inkscape"
   width="750"
   height="750"
   id="svg2"
   inkscape:label="Pozadí"
   version="1.1"
   inkscape:version="0.48.4 r9939"
   sodipodi:docname="Nový dokument 21">
  <defs
     id="defs5220" />
  <sodipodi:namedview
     id="base"
     pagecolor="#ffffff"
     bordercolor="#666666"
     borderopacity="1.0"
     inkscape:pageopacity="0.0"
     inkscape:pageshadow="2"
     inkscape:zoom="0.24748737"
     inkscape:cx="366.61292"
     inkscape:cy="311.25088"
     inkscape:document-units="px"
     inkscape:current-layer="layer1"
     showgrid="false"
     inkscape:window-width="685"
     inkscape:window-height="413"
     inkscape:window-x="665"
     inkscape:window-y="333"
     inkscape:window-maximized="0" />
  <metadata
     id="metadata5223">
    <rdf:RDF>
      <cc:Work
         rdf:about="">
        <dc:format>image/svg+xml</dc:format>
        <dc:type
           rdf:resource="http://purl.org/dc/dcmitype/StillImage" />
        <dc:title></dc:title>
      </cc:Work>
    </rdf:RDF>
  </metadata>
  <g
     inkscape:label="Vrstva 1"
     inkscape:groupmode="layer"
     id="layer1"
     transform="translate(0,-302.36215)">
    <g
       id="g5213"
       transform="matrix(0.88692424,0,0,0.88692424,131.26942,-428.17433)">
      <path
         style="fill:#007d00"
         d="m 19.61239,1252.7466 c -14.71918,-26.24 -28.36462,-50.5338 -30.32322,-53.9863 l -3.56107,-6.2771 14.82321,0.2771 14.82321,0.2772 14.19445,25.5 c 7.80694,14.025 14.93276,26.7593 15.83515,28.2984 l 1.6407,2.7985 8.49672,-15.2985 c 4.6732,-8.4141 11.85784,-21.2609 15.96586,-28.5484 l 7.46913,-13.25 14.53233,0 c 7.99278,0 14.38233,0.3655 14.19899,0.8122 -1.10862,2.7014 -60.42545,107.1738 -60.83333,107.1433 -0.275,-0.02 -12.54296,-21.5064 -27.26213,-47.7464 z m 350.50718,44.6141 c -4.06514,-6.7259 -57.1586,-101.4343 -57.79783,-103.1001 -0.60686,-1.5815 0.519,-1.7231 13.69871,-1.7231 l 14.35991,0 15.85871,28.555 c 8.72228,15.7053 15.96774,28.4178 16.10101,28.25 0.13327,-0.1677 7.32833,-13.0175 15.98903,-28.555 l 15.74673,-28.25 14.39934,0 c 7.91964,0 14.39934,0.2112 14.39934,0.4693 0,0.6051 -59.07465,105.7629 -60.02748,106.8539 -0.39541,0.4528 -1.62277,-0.6722 -2.72747,-2.5 z m -454.524154,-3.3818 c -12.58276,-3.0662 -23.467016,-11.1429 -28.615226,-21.2343 -4.61707,-9.0502 -5.10567,-13.6357 -5.10567,-47.9172 l 0,-32.2899 46,0 46,0 0,13 0,13 -32.5,0 -32.5,0 0,6.5 0,6.5 32.5,0 32.5,0 0,12.5 0,12.5 -32,0 c -17.6,0 -32,0.2429 -32,0.5398 0,0.2969 0.904415,2.3127 2.009811,4.4794 3.621718,7.0992 5.024279,7.4162 35.310525,7.9808 l 26.820337,0.5 -9.64e-4,12.5 -9.63e-4,12.5 -26.319373,0.1748 c -19.73179,0.1311 -27.765848,-0.1776 -32.098477,-1.2334 z m 196.279104,-30.6547 c 0,-35.1733 0.4935,-39.4108 5.70494,-48.9859 3.32057,-6.101 10.47085,-12.8427 17.2812,-16.2938 9.5639,-4.8464 15.50803,-5.4707 52.26386,-5.4896 l 33.75,-0.017 -0.0227,22.75 c -0.026,26.0829 -1.24471,44.5195 -3.42404,51.7994 -3.43077,11.4602 -13.71945,21.424 -26.50632,25.6693 -6.13512,2.0369 -8.82721,2.1975 -42.79695,2.5541 l -36.25,0.3804 0,-32.3665 z m 76.55531,4.0383 c 5.06095,-2.7746 5.63659,-5.3783 6.20682,-28.075 l 0.52133,-20.75 -23.12149,0 c -35.24033,0 -34.16197,-0.9621 -34.16197,30.4805 l 0,20.6781 23.75,-0.3293 c 19.90263,-0.276 24.24494,-0.6006 26.80531,-2.0043 z m 92.15622,27.0335 c -11.38111,-2.1813 -21.8933,-8.9779 -27.6413,-17.8711 -6.93085,-10.7234 -7.57023,-15.072 -7.57023,-51.4874 l 0,-32 13.25,-0.279 13.25,-0.2791 0,32.5689 c 0,46.1717 -1.78996,43.8219 33.75,44.3057 l 23.25,0.3165 0,12.9335 0,12.9335 -21.75,-0.1118 c -11.9625,-0.062 -23.90481,-0.5249 -26.53847,-1.0297 z m 195.69027,-0.3442 c -12.45127,-2.7089 -22.82512,-10.2028 -28.27275,-20.4236 -5.38379,-10.101 -6.09226,-15.9365 -6.11169,-50.3407 l -0.0174,-30.75 46,0 46,0 0,13 0,13 -32.54772,0 -32.54771,0 0.29771,6.25 0.29772,6.25 32.75,0.2637 32.75,0.2636 0,11.9864 0,11.9863 -32,0 -32,0 0,2.9231 c 0,3.7459 4.77823,8.6434 9.79133,10.0357 2.09121,0.5808 14.72093,1.0325 28.95867,1.0356 l 25.25,0.01 0,13 0,13 -26.25,-0.079 c -17.79934,-0.054 -28.21319,-0.5066 -32.3482,-1.4062 z m 83.51487,1.0711 c -0.22917,-0.228 -0.19167,-16.0905 0.0833,-35.25 l 0.5,-34.8354 3.39391,-7.2411 c 6.00787,-12.818 18.37012,-21.8573 33.10609,-24.2072 3.575,-0.5701 21.0125,-1.04 38.75,-1.0441 l 32.25,-0.01 0,28.9276 c 0,31.7405 -0.91949,41.8931 -4.51245,49.825 -3.18143,7.0234 -11.17238,15.2789 -18.04823,18.6457 -10.09355,4.9423 -15.89798,5.5654 -52.02265,5.5843 -18.19584,0.01 -33.27084,-0.1692 -33.5,-0.3972 z m 76.13723,-27.4162 c 5.12557,-2.6322 5.42225,-4.0461 5.76668,-27.4842 l 0.32058,-21.8149 -24.49984,0.3149 c -33.61767,0.4322 -32.43577,-0.7157 -32.56447,31.6294 l -0.0769,19.3144 24.25,-0.3241 c 17.49049,-0.2337 24.96188,-0.6896 26.8039,-1.6355 z"
         id="path5217"
         inkscape:connector-curvature="0" />
      <path
         style="fill:#010101"
         d="m 45.10468,1297.3201 c -3.98031,-6.6214 -57.27264,-101.7297 -57.85958,-103.2593 -0.53788,-1.4017 0.9965,-1.5483 13.61846,-1.3015 l 14.22465,0.2782 15.64315,28.2315 c 8.60374,15.5274 15.86816,28.2308 16.14316,28.2299 0.275,-8e-4 7.64351,-12.8175 16.37446,-28.4815 l 15.87445,-28.4799 14.44894,0 14.44893,0 -3.00009,5.25 c -1.65005,2.8875 -15.36231,27.2022 -30.47168,54.0326 l -27.47159,48.7826 -1.97326,-3.2826 z m 296.91077,-50.2471 c -16.57751,-29.4339 -30.14093,-53.7578 -30.14093,-54.0532 0,-0.2955 6.40871,-0.4124 14.24159,-0.2598 l 14.24158,0.2775 15.50842,28.2051 c 8.52962,15.5129 15.75944,28.2254 16.06625,28.25 0.30682,0.025 7.72549,-12.7801 16.48595,-28.4551 l 15.9281,-28.5 14.26406,0 c 13.56269,0 15.4274,0.3555 13.37601,2.55 -0.48842,0.5225 -14.03952,24.35 -30.11356,52.95 -16.07404,28.6 -29.336,52.1241 -29.47103,52.2757 -0.13503,0.1517 -13.80893,-23.8064 -30.38644,-53.2402 z m -422.190326,47.4036 c -16.866393,-2.4833 -29.531774,-12.3806 -35.113064,-27.4391 -2.10558,-5.6809 -2.24391,-7.8221 -2.60092,-40.2601 l -0.37706,-34.2602 45.820218,0.2602 45.820222,0.2601 0.280669,12.2363 0.280669,12.2363 -32.780669,0.2637 -32.780669,0.2637 0,6.5 0,6.5 32.75,0.2637 32.75,0.2636 0,11.9864 0,11.9863 -32,0 c -30.481648,0 -32,0.088 -32,1.8521 0,2.9864 4.258177,8.5064 8.019933,10.3964 3.048608,1.5316 6.734547,1.7486 29.730067,1.75 l 26.25,0 0,13 0,13 -24.25,-0.1219 c -13.3375,-0.067 -26.747228,-0.4897 -29.799396,-0.939 z m 361.531496,-0.3949 c -17.19872,-3.1253 -29.63308,-14.5085 -33.94919,-31.0792 -1.22406,-4.6994 -1.53291,-12.391 -1.53291,-38.1751 l 0,-32.2899 13,0 13,0 0,33.3521 c 0,33.0096 0.0233,33.387 2.26993,36.75 4.28678,6.4169 6.50185,6.8946 31.98007,6.8964 l 22.75,0 0,13 0,13 -20.25,-0.09 c -11.65533,-0.052 -23.22859,-0.6315 -27.2679,-1.3655 z m 198.53412,0.2922 c -16.97845,-2.446 -30.30556,-13.3205 -35.01634,-28.5722 -1.75957,-5.6968 -1.95752,-9.5572 -2.02747,-39.5387 l -0.0775,-33.2255 45.55255,-0.2601 45.55255,-0.2601 0,12.5101 0,12.5101 -32.5,0 -32.5,0 0,7 0,7 32.5,0 32.5,0 0,12 0,12 -32,0 c -28.23354,0 -32,0.1824 -32,1.5497 0,2.771 2.89594,7.2399 6.23491,9.6215 3.18178,2.2694 3.96677,2.3416 30.76509,2.8288 l 27.5,0.5 0,12.5 0,12.5 -24,0.1352 c -13.2,0.074 -26.9177,-0.2851 -30.48378,-0.7988 z m -367.99886,-30.0864 c 0.0189,-32.8833 0.74323,-39.3972 5.40367,-48.5942 5.01873,-9.9039 12.41419,-16.0078 24.57897,-20.2863 6.21143,-2.1847 8.08712,-2.303 42.25,-2.6644 l 35.75,-0.3782 -0.0309,29.3365 c -0.0348,33.1189 -0.80241,41.4867 -4.577,49.8976 -2.95141,6.5767 -10.52442,14.4354 -17.18499,17.8333 -9.17458,4.6806 -13.41435,5.1057 -50.91721,5.1057 l -35.2899,0 0.0174,-30.25 z m 74.88898,3.9436 c 1.87348,-0.6565 4.34848,-2.4631 5.5,-4.0148 1.94878,-2.6259 2.11691,-4.3466 2.42963,-24.8661 l 0.33597,-22.0449 -23.83597,0.4166 c -34.61342,0.6049 -33.52663,-0.3837 -34.15082,31.0656 l -0.41184,20.75 23.36335,-0.056 c 15.39196,-0.037 24.52555,-0.4637 26.76968,-1.25 z"
         id="path5215"
         inkscape:connector-curvature="0" />
    </g>
  </g>
</svg>
