<?xml version="1.0" encoding="UTF-8" standalone="no"?>
<!-- Created with Inkscape (http://www.inkscape.org/) -->

<svg
   xmlns:dc="http://purl.org/dc/elements/1.1/"
   xmlns:cc="http://creativecommons.org/ns#"
   xmlns:rdf="http://www.w3.org/1999/02/22-rdf-syntax-ns#"
   xmlns:svg="http://www.w3.org/2000/svg"
   xmlns="http://www.w3.org/2000/svg"
   xmlns:sodipodi="http://sodipodi.sourceforge.net/DTD/sodipodi-0.dtd"
   xmlns:inkscape="http://www.inkscape.org/namespaces/inkscape"
   width="744.09448"
   height="900"
   id="svg2"
   inkscape:label="Pozadí"
   version="1.1"
   inkscape:version="0.48.4 r9939"
   sodipodi:docname="interTechno.svg">
  <defs
     id="defs3979" />
  <sodipodi:namedview
     id="base"
     pagecolor="#ffffff"
     bordercolor="#666666"
     borderopacity="1.0"
     inkscape:pageopacity="0.0"
     inkscape:pageshadow="2"
     inkscape:zoom="0.175"
     inkscape:cx="1913.1732"
     inkscape:cy="649.98433"
     inkscape:document-units="px"
     inkscape:current-layer="layer1"
     showgrid="false"
     inkscape:window-width="1443"
     inkscape:window-height="688"
     inkscape:window-x="475"
     inkscape:window-y="116"
     inkscape:window-maximized="0" />
  <metadata
     id="metadata3982">
    <rdf:RDF>
      <cc:Work
         rdf:about="">
        <dc:format>image/svg+xml</dc:format>
        <dc:type
           rdf:resource="http://purl.org/dc/dcmitype/StillImage" />
        <dc:title />
      </cc:Work>
    </rdf:RDF>
  </metadata>
  <g
     inkscape:label="Vrstva 1"
     inkscape:groupmode="layer"
     id="layer1"
     transform="translate(0,-152.36218)">
    <path
       style="fill:#12442f;fill-opacity:1"
       d="m 282.10229,892.65271 c 0,-8.4682 10.09993,-19.13284 22.44429,-23.69939 l 22.44419,-8.30268 -22.86411,-7.25678 c -16.82654,-5.34052 -21.24771,-12.3498 -16.74284,-26.5435 6.85123,-21.58644 -13.89345,-26.75252 -32.54199,-8.10398 -15.8878,15.8878 -34.54106,1.06516 -30.99964,-24.63366 2.48803,-18.05477 -1.47493,-21.26157 -23.48883,-19.00718 -26.71995,2.73633 -47.3554,-21.38064 -28.34651,-33.12883 18.12339,-11.20084 9.60331,-24.85021 -15.51168,-24.85021 -18.42234,0 -25.12143,-5.35921 -25.12143,-20.09715 0,-11.05342 4.52185,-20.09713 10.04858,-20.09713 5.52671,0 10.04856,-6.78279 10.04856,-15.07286 0,-8.37378 -8.93207,-15.07286 -20.09714,-15.07286 -24.77585,0 -26.38231,-25.37968 -2.51214,-39.68754 16.74765,-10.03861 16.74765,-11.19178 0,-24.21644 -24.04964,-18.70341 -22.54508,-46.63029 2.51214,-46.63029 22.4884,0 25.78533,-10.38953 8.71433,-27.46053 -15.1015,-15.1015 -3.35804,-44.04932 15.01025,-37.00075 19.23859,7.38258 31.10163,-13.36973 17.21088,-30.10713 -14.70146,-17.71412 8.84656,-38.71996 29.26174,-26.10267 19.42822,12.00724 29.41941,3.95954 23.44543,-18.88488 -6.24439,-23.87842 13.20462,-36.79053 31.9645,-21.22117 17.82978,14.79742 36.23927,4.43021 28.40168,-15.99412 -3.87422,-10.0961 1.43534,-17.26625 15.51178,-20.94735 27.42537,-7.17186 27.81917,-23.34996 0.56875,-23.34996 -14.42361,0 -19.7995,-5.41065 -17.47195,-17.58499 2.84364,-14.8739 16.89998,-18.03257 91.1739,-20.48834 82.62115,-2.7318 87.81194,-1.69228 87.81194,17.585 0,11.51285 -6.60311,20.48833 -15.07285,20.48833 -22.55884,0 -18.1646,16.94471 6.03536,23.2731 11.62299,3.03949 18.12964,10.33927 14.4798,16.24481 -11.13533,18.0174 4.47482,33.39201 20.44572,20.13725 18.9703,-15.74391 48.24781,-3.65246 40.43766,16.70061 -8.84294,23.04429 3.0204,37.46409 19.54156,23.75282 21.69445,-18.00483 36.69316,-1.35645 29.26154,32.47978 -6.00081,27.32137 -4.62014,29.55125 14.53405,23.47186 24.69114,-7.83657 40.79328,19.15449 22.39997,37.5478 -17.07101,17.071 -13.77408,27.46053 8.71433,27.46053 13.39805,0 20.09713,6.69908 20.09713,20.09713 0,11.16508 -6.69908,20.09715 -15.07285,20.09715 -8.29007,0 -15.07286,6.78279 -15.07286,15.07285 0,8.29007 6.78279,15.07286 15.07286,15.07286 8.37377,0 15.07285,8.93208 15.07285,20.09715 0,13.39805 -6.69908,20.09713 -20.09713,20.09713 -21.48104,0 -28.04406,25.82202 -8.24075,32.42312 18.64754,6.21584 1.1159,37.91688 -20.96925,37.91688 -15.351,0 -19.36761,6.20067 -17.90032,27.63357 1.5938,23.28123 -2.06488,27.63356 -23.22969,27.63356 -19.8417,0 -24.50474,4.49181 -22.18724,21.37221 3.04995,22.21478 -22.85256,40.39445 -33.3511,23.40754 -11.37278,-18.40145 -36.59902,-10.69962 -30.26992,9.24177 4.34441,13.68797 -0.28637,20.86053 -16.90781,26.18648 -19.2791,6.17765 -20.11634,8.07603 -5.30605,12.03104 9.67174,2.58281 17.58499,13.40804 17.58499,24.05624 0,17.6807 -7.84632,19.3604 -90.43713,19.3604 -74.53487,0 -90.43714,-2.7072 -90.43714,-15.3966 z m 38.09666,-158.91894 c -1.65029,-49.09541 -7.30914,-87.21596 -12.97522,-87.40608 -5.52672,-0.18591 -11.49355,8.88554 -13.2596,20.15793 -2.38684,15.23474 -10.76905,20.49516 -32.65785,20.49516 -27.65558,0 -29.44684,-2.44501 -29.44684,-40.19428 l 0,-40.19428 145.70428,0 145.70427,0 0,40.19428 c 0,37.96129 -1.67479,40.19428 -30.14571,40.19428 -23.44663,0 -30.14571,-4.46598 -30.14571,-20.09713 0,-11.16507 -6.69908,-20.09715 -15.07286,-20.09715 -12.27422,0 -15.07285,16.68173 -15.07285,89.84407 0,49.41425 4.52185,92.63878 10.04857,96.05449 5.52672,3.41571 10.04857,-2.61645 10.04857,-13.40469 0,-22.79619 28.72203,-37.25698 43.88432,-22.09469 16.39524,16.39524 30.32427,12.07425 16.14644,-5.00902 -10.54145,-12.7016 -9.57941,-17.71996 5.51264,-28.7555 10.05541,-7.35273 27.68332,-10.94902 39.17316,-7.99193 18.49268,4.75951 19.30752,3.44657 7.09941,-11.43878 -11.25972,-13.72897 -11.42533,-19.66586 -0.90236,-32.34555 7.08896,-8.54158 18.94728,-13.20533 26.35188,-10.3639 15.96245,6.12532 17.76928,-5.97447 3.08491,-20.65874 -13.30682,-13.30692 -1.82583,-43.88432 16.47743,-43.88432 7.69882,0 13.99776,-4.52186 13.99776,-10.04857 0,-5.52673 -6.78279,-10.04858 -15.07285,-10.04858 -9.37863,0 -15.07285,-9.49027 -15.07285,-25.12143 0,-18.6624 5.31971,-25.12142 20.69021,-25.12142 11.3796,0 18.01748,-4.3244 14.751,-9.60975 -3.26649,-5.28525 -11.98283,-7.29044 -19.36953,-4.45594 -21.77666,8.35649 -28.94471,-38.71373 -8.3785,-55.01793 15.95583,-12.64924 15.50695,-13.3625 -5.31258,-8.44281 -29.92504,7.07138 -50.48884,-26.43719 -30.79033,-50.17252 11.53426,-13.89778 10.30682,-14.96825 -9.83342,-8.57604 -29.63455,9.40566 -51.53601,-8.7077 -45.26068,-37.43233 3.52042,-16.1143 2.21109,-18.50787 -4.75357,-8.69042 -14.32284,20.18959 -46.9216,9.68583 -50.62883,-16.31325 -1.77688,-12.46052 -7.4292,-20.06076 -12.56071,-16.88924 -5.1316,3.17144 -9.33019,48.45713 -9.33019,100.63473 0,77.62843 2.73914,94.86836 15.07285,94.86836 8.37378,0 15.07286,8.93207 15.07286,20.09714 0,18.60844 -6.69908,20.09714 -90.43714,20.09714 -83.73805,0 -90.43713,-1.4887 -90.43713,-20.09714 0,-13.39807 6.69908,-20.09714 20.09714,-20.09714 18.50555,0 20.09714,-6.69908 20.09714,-84.59098 0,-93.52415 -9.72179,-140.12239 -20.0876,-96.28329 -4.34138,18.36105 -12.5784,25.12142 -30.60834,25.12142 -16.05862,0 -26.66891,7.0143 -30.40035,20.09714 -4.16211,14.59294 -13.32752,19.54879 -33.46516,18.09487 -22.5938,-1.63129 -25.59219,0.57779 -16.1799,11.9183 18.06703,21.76953 -3.92065,54.81787 -32.41639,48.72321 -20.76868,-4.44187 -21.25754,-3.64421 -5.63725,9.19857 23.01887,18.92567 12.73195,57.38557 -15.76338,58.93497 -16.98279,0.92345 -17.78326,2.12054 -3.85232,5.76113 9.67174,2.52743 17.58499,13.93949 17.58499,25.36009 0,11.4206 -7.91325,26.7717 -17.58499,34.11359 -16.33878,12.40295 -16.03491,13.37163 4.28752,13.66857 27.5361,0.40195 34.99887,29.32866 14.03735,54.41 -14.76186,17.66307 -14.40443,18.48273 5.37789,12.33381 26.97339,-8.38403 53.44684,18.71054 35.66038,36.49701 -17.12549,17.12557 -14.17352,32.27983 3.44041,17.66157 19.83468,-16.46127 48.72412,5.60679 41.83362,31.95586 -5.2945,20.24646 3.81463,23.88645 19.79206,7.90904 15.58794,-15.58795 43.88432,-0.42808 43.88432,23.51134 0,14.57665 3.21132,17.82043 10.46307,10.56867 6.12973,-6.12972 9.25092,-46.52327 7.53643,-97.53192 z"
       id="path3008"
       inkscape:connector-curvature="0" />
  </g>
</svg>
