<?xml version="1.0" encoding="UTF-8" standalone="no"?>
<!-- Created with Inkscape (http://www.inkscape.org/) -->

<svg
   xmlns:dc="http://purl.org/dc/elements/1.1/"
   xmlns:cc="http://creativecommons.org/ns#"
   xmlns:rdf="http://www.w3.org/1999/02/22-rdf-syntax-ns#"
   xmlns:svg="http://www.w3.org/2000/svg"
   xmlns="http://www.w3.org/2000/svg"
   xmlns:sodipodi="http://sodipodi.sourceforge.net/DTD/sodipodi-0.dtd"
   xmlns:inkscape="http://www.inkscape.org/namespaces/inkscape"
   width="744.09448"
   height="177.16534"
   id="svg2"
   version="1.1"
   inkscape:version="0.48.4 r9939"
   sodipodi:docname="Kanlux-logo.svg">
  <defs
     id="defs4" />
  <sodipodi:namedview
     id="base"
     pagecolor="#ffffff"
     bordercolor="#666666"
     borderopacity="1.0"
     inkscape:pageopacity="0.0"
     inkscape:pageshadow="2"
     inkscape:zoom="0.34988092"
     inkscape:cx="176.00841"
     inkscape:cy="690.43215"
     inkscape:document-units="px"
     inkscape:current-layer="layer1"
     showgrid="false"
     inkscape:snap-bbox="true"
     inkscape:bbox-paths="true"
     inkscape:bbox-nodes="true"
     inkscape:snap-bbox-edge-midpoints="true"
     inkscape:snap-bbox-midpoints="true"
     inkscape:snap-global="false"
     inkscape:window-width="1280"
     inkscape:window-height="975"
     inkscape:window-x="0"
     inkscape:window-y="25"
     inkscape:window-maximized="1"
     units="cm" />
  <metadata
     id="metadata7">
    <rdf:RDF>
      <cc:Work
         rdf:about="">
        <dc:format>image/svg+xml</dc:format>
        <dc:type
           rdf:resource="http://purl.org/dc/dcmitype/StillImage" />
        <dc:title></dc:title>
      </cc:Work>
    </rdf:RDF>
  </metadata>
  <g
     inkscape:label="Layer 1"
     inkscape:groupmode="layer"
     id="layer1"
     transform="translate(0,-875.19552)">
    <path
       style="fill:#00346d;fill-opacity:1"
       d="m 164.2857,1031.7467 c -26.8182,-19.1757 -3.834,-52.27183 40.37363,-58.13627 33.82241,-4.48667 32.59904,-15.62137 -1.58537,-14.42971 -20.30154,0.7082 -24.36268,-0.72887 -24.36268,-8.61874 0,-5.20736 3.73389,-10.90091 8.29757,-12.65206 13.36789,-5.12975 59.6995,-3.65845 70.73243,2.24618 12.36978,6.62012 12.63191,16.61639 1.58854,60.5801 l -8.55801,34.0696 -21.60462,-0.7351 c -11.88265,-0.4042 -28.68635,0.8068 -37.34176,2.6901 -10.64056,2.3159 -19.55933,0.6925 -27.53973,-5.0141 z m 51.49013,-18.5202 c 14.00481,-7.4951 12.93971,-20.81716 -1.65619,-20.7179 -16.75522,0.10937 -26.98921,7.9362 -23.22313,17.75 3.74031,9.7474 10.66767,10.5737 24.87932,2.9679 z m 249.00728,19.3264 c -8.0591,-5.8929 -9.11058,-11.3235 -6.24306,-32.2443 1.89648,-13.83693 5.8975,-34.25351 8.89085,-45.37037 4.81902,-17.89612 7.29296,-20.2124 21.58905,-20.2124 14.89342,0 15.89789,1.11998 12.94435,14.4256 -1.76114,7.9341 -4.72572,25.63829 -6.58794,39.34254 -3.00903,22.14403 -2.28287,24.90823 6.52478,24.83663 16.43454,-0.1337 21.94729,-6.6948 28.63811,-34.08618 9.00709,-36.87407 13.92985,-44.51859 28.66812,-44.51859 8.9008,0 12.8611,2.86047 12.70938,9.17994 -0.31947,13.30414 -17.4464,81.45773 -22.41035,89.17653 -5.28147,8.2122 -28.26165,8.6275 -30.9511,0.5587 -1.50009,-4.4999 -4.79802,-4.4999 -13.20649,0 -14.8517,7.9485 -28.71571,7.5765 -40.5657,-1.0883 z m 107.35401,2.933 c 0,-2.2845 10.58199,-14.539 23.51552,-27.2325 l 23.51567,-23.07871 -13.02428,-22.22426 c -7.16335,-12.22336 -13.02427,-23.5743 -13.02427,-25.22443 0,-1.65012 7.11637,-3.00017 15.81419,-3.00017 11.93474,0 18.15338,3.8466 25.34999,15.68066 l 9.536,15.68052 20.54961,-17.18315 c 90.88771,-75.99899 90.52478,-75.92988 29.4465,-5.6074 -17.87641,20.58192 -32.50258,39.9995 -32.50258,43.15007 0,3.15044 4.71237,13.45706 10.47185,22.90347 5.75946,9.4463 10.48058,20.1259 10.49127,23.7323 0.0364,12.1207 -25.09653,7.0031 -36.44226,-7.4208 l -10.99501,-13.9779 -14.58966,13.9779 c -13.82392,13.2441 -48.11254,20.2457 -48.11254,9.8244 z m -553.707393,-7.6494 c 1.102999,-3.6063 8.380656,-33.11318 16.172878,-65.57081 l 14.167819,-59.01393 18.320565,0 c 13.725169,0 17.598969,1.88029 15.444029,7.49609 -1.58209,4.1227 -4.53196,16.51566 -6.555376,27.53972 l -3.678852,20.0438 29.28569,-27.53975 c 24.92608,-23.4401 32.26072,-27.51265 49.27093,-27.35717 l 19.98536,0.18219 -33.00184,31.36351 -33.00185,31.36351 19.02766,34.02474 19.02777,34.0248 -20.12276,-0.013 c -19.05618,-0.012 -20.91972,-1.5376 -35.156782,-28.7846 -13.572253,-25.97546 -24.260307,-33.35006 -24.337918,-16.79306 -0.01287,3.43603 -2.48756,15.09956 -5.492104,25.91866 -4.952771,17.8341 -7.139443,19.6713 -23.411677,19.6713 -11.931354,0 -17.276482,-2.1983 -15.943542,-6.5571 z m 256.507243,-4.86 c 1.77572,-6.7036 7.05453,-29.30236 11.73043,-50.21954 8.09168,-36.19589 9.21484,-38.03113 23.27527,-38.03113 8.12532,0 15.67301,2.69902 16.77258,5.9979 1.49999,4.50004 4.79802,4.50004 13.20647,0 17.126,-9.16562 36.70866,-7.17111 44.93722,4.57681 6.40195,9.13998 6.29385,15.90066 -0.79689,49.83386 l -8.20327,39.2594 -17.61941,0 c -14.34286,0 -17.10203,-1.7073 -14.838,-9.1801 8.36912,-27.62163 12.59413,-56.93405 8.7593,-60.76936 -2.40789,-2.40813 -9.96142,-3.58837 -16.78572,-2.6229 -10.56294,1.49463 -13.61112,6.82519 -20.50126,35.85248 -7.81531,32.92538 -8.69599,34.15518 -25.62956,35.79378 -16.07898,1.5561 -17.26785,0.6838 -14.3074,-10.4912 z m 136.54495,-56.77662 15.92822,-68.19375 17.84511,0 c 12.11015,0 17.04289,2.10722 15.34891,6.55708 -1.37292,3.60645 -8.93786,34.2936 -16.8111,68.19375 l -14.31493,61.63684 -16.96224,0 -16.96209,0 15.92812,-68.19392 z"
       id="path3859"
       inkscape:connector-curvature="0" />
  </g>
</svg>
