<?xml version="1.0" encoding="UTF-8" standalone="no"?>
<!-- Created with Inkscape (http://www.inkscape.org/) -->

<svg
   xmlns:dc="http://purl.org/dc/elements/1.1/"
   xmlns:cc="http://creativecommons.org/ns#"
   xmlns:rdf="http://www.w3.org/1999/02/22-rdf-syntax-ns#"
   xmlns:svg="http://www.w3.org/2000/svg"
   xmlns="http://www.w3.org/2000/svg"
   xmlns:sodipodi="http://sodipodi.sourceforge.net/DTD/sodipodi-0.dtd"
   xmlns:inkscape="http://www.inkscape.org/namespaces/inkscape"
   width="744.09448819"
   height="1052.3622047"
   id="svg2"
   inkscape:label="Pozadí"
   version="1.1"
   inkscape:version="0.48.4 r9939"
   sodipodi:docname="Nový dokument 8">
  <defs
     id="defs4216" />
  <sodipodi:namedview
     id="base"
     pagecolor="#ffffff"
     bordercolor="#666666"
     borderopacity="1.0"
     inkscape:pageopacity="0.0"
     inkscape:pageshadow="2"
     inkscape:zoom="0.35"
     inkscape:cx="319.28571"
     inkscape:cy="468.57143"
     inkscape:document-units="px"
     inkscape:current-layer="layer1"
     showgrid="false"
     inkscape:window-width="825"
     inkscape:window-height="759"
     inkscape:window-x="1049"
     inkscape:window-y="181"
     inkscape:window-maximized="0" />
  <metadata
     id="metadata4219">
    <rdf:RDF>
      <cc:Work
         rdf:about="">
        <dc:format>image/svg+xml</dc:format>
        <dc:type
           rdf:resource="http://purl.org/dc/dcmitype/StillImage" />
        <dc:title></dc:title>
      </cc:Work>
    </rdf:RDF>
  </metadata>
  <g
     inkscape:label="Vrstva 1"
     inkscape:groupmode="layer"
     id="layer1">
    <g
       id="g4303"
       transform="translate(15.994461,-7.609659)">
      <rect
         y="129.69862"
         x="107.61076"
         height="808.18475"
         width="496.88403"
         id="rect4031"
         style="color:#000000;fill:#dfdfdf;fill-opacity:1;fill-rule:nonzero;stroke:none;stroke-width:1;marker:none;visibility:visible;display:inline;overflow:visible;enable-background:accumulate" />
      <rect
         transform="matrix(1,0,0.01481319,0.99989028,0,0)"
         y="129.71242"
         x="165.55501"
         height="808.27332"
         width="365.17978"
         id="rect4033"
         style="color:#000000;fill:#e6e6e6;fill-opacity:1;fill-rule:nonzero;stroke:none;stroke-width:1;marker:none;visibility:visible;display:inline;overflow:visible;enable-background:accumulate" />
      <rect
         inkscape:transform-center-y="-404.09231"
         inkscape:transform-center-x="-186.25788"
         style="color:#000000;fill:#cccccc;fill-opacity:1;fill-rule:nonzero;stroke:none;stroke-width:1;marker:none;visibility:visible;display:inline;overflow:visible;enable-background:accumulate"
         id="rect4060"
         width="25.732649"
         height="808.18506"
         x="517.91779"
         y="129.69815"
         transform="matrix(1,0,0.00104394,0.99999946,0,0)" />
      <rect
         transform="matrix(-1,0,-0.00104394,0.99999946,0,0)"
         y="129.69887"
         x="-194.18814"
         height="808.18506"
         width="25.732649"
         id="rect4062"
         style="color:#000000;fill:#cccccc;fill-opacity:1;fill-rule:nonzero;stroke:none;stroke-width:1;marker:none;visibility:visible;display:inline;overflow:visible;enable-background:accumulate"
         inkscape:transform-center-x="186.25787"
         inkscape:transform-center-y="-404.09232" />
      <path
         sodipodi:nodetypes="csc"
         inkscape:connector-curvature="0"
         id="path4066"
         d="m 197.21424,696.88294 c 54.82761,21.34602 88.17704,56.00199 158.83877,18.97416 71.75953,-37.60304 99.97968,-23.96595 158.83853,-9.48696"
         style="fill:#ffffff;fill-opacity:0;stroke:#c5c2c2;stroke-width:26.46724129;stroke-linecap:butt;stroke-linejoin:miter;stroke-miterlimit:4;stroke-opacity:1;stroke-dasharray:none" />
      <path
         style="fill:#ffffff;fill-opacity:0;stroke:#c5c2c2;stroke-width:26.46724129;stroke-linecap:butt;stroke-linejoin:miter;stroke-miterlimit:4;stroke-opacity:1;stroke-dasharray:none"
         d="m 197.21424,767.97291 c 54.82761,21.34601 88.17704,56.00198 158.83877,18.97416 71.75953,-37.60305 99.97968,-23.96596 158.83853,-9.48696"
         id="path4094"
         inkscape:connector-curvature="0"
         sodipodi:nodetypes="csc" />
      <path
         sodipodi:nodetypes="csc"
         inkscape:connector-curvature="0"
         id="path4096"
         d="m 197.21424,839.06276 c 54.82761,21.34601 88.17704,56.00198 158.83877,18.97415 71.75953,-37.60304 99.97968,-23.96595 158.83853,-9.48696"
         style="fill:#ffffff;fill-opacity:0;stroke:#c5c2c2;stroke-width:26.46724129;stroke-linecap:butt;stroke-linejoin:miter;stroke-miterlimit:4;stroke-opacity:1;stroke-dasharray:none" />
      <path
         transform="matrix(11.852773,0,0,11.852773,1988.9838,-5444.9341)"
         d="m -126.42857,504.41574 c 0,6.26252 -5.07677,11.33929 -11.33928,11.33929 -6.26252,0 -11.33929,-5.07677 -11.33929,-11.33929 0,-6.26251 5.07677,-11.33928 11.33929,-11.33928 6.26251,0 11.33928,5.07677 11.33928,11.33928 z"
         sodipodi:ry="11.339286"
         sodipodi:rx="11.339286"
         sodipodi:cy="504.41574"
         sodipodi:cx="-137.76785"
         id="path4098"
         style="color:#000000;fill:#b3b3b3;fill-opacity:1;fill-rule:nonzero;stroke:none;stroke-width:2.23300004;marker:none;visibility:visible;display:inline;overflow:visible;enable-background:accumulate"
         sodipodi:type="arc" />
      <path
         transform="matrix(9.482218,0,0,9.482218,1662.3975,-4249.189)"
         sodipodi:type="arc"
         style="color:#000000;fill:#999999;fill-opacity:1;fill-rule:nonzero;stroke:none;stroke-width:2.23300004;marker:none;visibility:visible;display:inline;overflow:visible;enable-background:accumulate"
         id="path4100"
         sodipodi:cx="-137.76785"
         sodipodi:cy="504.41574"
         sodipodi:rx="11.339286"
         sodipodi:ry="11.339286"
         d="m -126.42857,504.41574 c 0,6.26252 -5.07677,11.33929 -11.33928,11.33929 -6.26252,0 -11.33929,-5.07677 -11.33929,-11.33929 0,-6.26251 5.07677,-11.33928 11.33929,-11.33928 6.26251,0 11.33928,5.07677 11.33928,11.33928 z" />
      <path
         d="m -126.42857,504.41574 c 0,6.26252 -5.07677,11.33929 -11.33928,11.33929 -6.26252,0 -11.33929,-5.07677 -11.33929,-11.33929 0,-6.26251 5.07677,-11.33928 11.33929,-11.33928 6.26251,0 11.33928,5.07677 11.33928,11.33928 z"
         sodipodi:ry="11.339286"
         sodipodi:rx="11.339286"
         sodipodi:cy="504.41574"
         sodipodi:cx="-137.76785"
         id="path4102"
         style="color:#000000;fill:#ffffff;fill-opacity:0;fill-rule:nonzero;stroke:#c5c2c2;stroke-width:2.23300004;stroke-linecap:butt;stroke-linejoin:miter;stroke-miterlimit:4;stroke-opacity:1;stroke-dasharray:none;stroke-dashoffset:0;marker:none;visibility:visible;display:inline;overflow:visible;enable-background:accumulate"
         sodipodi:type="arc"
         transform="matrix(7.5857744,0,0,7.5857744,1401.1287,-3292.593)" />
      <path
         transform="matrix(7.2064857,0,0,7.2064857,1348.8748,-3101.2739)"
         sodipodi:type="arc"
         style="color:#000000;fill:#ff0000;fill-opacity:1;fill-rule:nonzero;stroke:#c5c2c2;stroke-width:2.23300004;stroke-linecap:butt;stroke-linejoin:miter;stroke-miterlimit:4;stroke-opacity:1;stroke-dasharray:none;stroke-dashoffset:0;marker:none;visibility:visible;display:inline;overflow:visible;enable-background:accumulate"
         id="path4104"
         sodipodi:cx="-137.76785"
         sodipodi:cy="504.41574"
         sodipodi:rx="11.339286"
         sodipodi:ry="11.339286"
         d="m -126.42857,504.41574 c 0,6.26252 -5.07677,11.33929 -11.33928,11.33929 -6.26252,0 -11.33929,-5.07677 -11.33929,-11.33929 0,-6.26251 5.07677,-11.33928 11.33929,-11.33928 6.26251,0 11.33928,5.07677 11.33928,11.33928 z" />
      <path
         transform="matrix(11.852773,0,0,11.852773,2004.6,-5480.1266)"
         d="m -137.63328,484.84586 c 0,0.80197 -0.65012,1.45209 -1.45209,1.45209 -0.80197,0 -1.4521,-0.65012 -1.4521,-1.45209 0,-0.80197 0.65013,-1.4521 1.4521,-1.4521 0.80197,0 1.45209,0.65013 1.45209,1.4521 z"
         sodipodi:ry="1.4520943"
         sodipodi:rx="1.4520943"
         sodipodi:cy="484.84586"
         sodipodi:cx="-139.08537"
         id="path4106"
         style="color:#000000;fill:#ff0000;fill-opacity:1;fill-rule:nonzero;stroke:none;stroke-width:2.23300004;marker:none;visibility:visible;display:inline;overflow:visible;enable-background:accumulate"
         sodipodi:type="arc" />
      <path
         sodipodi:type="arc"
         style="color:#000000;fill:#ff0000;fill-opacity:1;fill-rule:nonzero;stroke:none;stroke-width:2.23300004;marker:none;visibility:visible;display:inline;overflow:visible;enable-background:accumulate"
         id="path4133"
         sodipodi:cx="-139.08537"
         sodipodi:cy="484.84586"
         sodipodi:rx="1.4520943"
         sodipodi:ry="1.4520943"
         d="m -137.63328,484.84586 c 0,0.80197 -0.65012,1.45209 -1.45209,1.45209 -0.80197,0 -1.4521,-0.65012 -1.4521,-1.45209 0,-0.80197 0.65013,-1.4521 1.4521,-1.4521 0.80197,0 1.45209,0.65013 1.45209,1.4521 z"
         transform="matrix(11.852773,0,0,11.852773,2004.6,-5480.1266)" />
      <g
         transform="matrix(11.852773,0,0,11.852773,2000.3334,-5482.5887)"
         id="g4205">
        <g
           inkscape:transform-center-x="-5.3443716"
           id="g4189"
           transform="translate(68.482143,-1.6964286)">
          <path
             style="color:#000000;fill:none;stroke:#c5c2c2;stroke-width:1.51550364;stroke-linecap:butt;stroke-linejoin:miter;stroke-miterlimit:4;stroke-opacity:1;stroke-dasharray:none;stroke-dashoffset:0;marker:none;visibility:visible;display:inline;overflow:visible;enable-background:accumulate"
             d="m -203.96875,492.59375 c 2.06656,-1.1404 3.46875,-3.31647 3.46875,-5.84375 0,-2.51769 -1.38383,-4.73092 -3.4375,-5.875"
             id="path4191"
             inkscape:connector-curvature="0"
             sodipodi:nodetypes="csc" />
          <path
             style="color:#000000;fill:none;stroke:#c5c2c2;stroke-width:1.39999998;stroke-miterlimit:4;stroke-opacity:1;stroke-dasharray:none;marker:none;visibility:visible;display:inline;overflow:visible;enable-background:accumulate"
             d="m -205.625,490.9375 c 1.69067,-0.64165 2.90625,-2.27184 2.90625,-4.1875 0,-1.91519 -1.21624,-3.54552 -2.90625,-4.1875"
             id="path4193"
             inkscape:connector-curvature="0"
             sodipodi:nodetypes="csc" />
          <path
             style="color:#000000;fill:none;stroke:#c5c2c2;stroke-width:1.57235456;stroke-linecap:butt;stroke-linejoin:miter;stroke-miterlimit:4;stroke-opacity:1;stroke-dasharray:none;stroke-dashoffset:0;marker:none;visibility:visible;display:inline;overflow:visible;enable-background:accumulate"
             d="m -202.28125,494.28125 c 2.44956,-1.60938 4.09375,-4.38127 4.09375,-7.53125 0,-3.14921 -1.6452,-5.92169 -4.09375,-7.53125"
             id="path4195"
             inkscape:connector-curvature="0"
             sodipodi:nodetypes="csc" />
        </g>
        <g
           transform="matrix(-1,0,0,1,-345.93293,-1.6964286)"
           id="g4197"
           inkscape:transform-center-x="5.3443757">
          <path
             sodipodi:nodetypes="csc"
             inkscape:connector-curvature="0"
             id="path4199"
             d="m -203.96875,492.59375 c 2.06656,-1.1404 3.46875,-3.31647 3.46875,-5.84375 0,-2.51769 -1.38383,-4.73092 -3.4375,-5.875"
             style="color:#000000;fill:none;stroke:#c5c2c2;stroke-width:1.51550364;stroke-linecap:butt;stroke-linejoin:miter;stroke-miterlimit:4;stroke-opacity:1;stroke-dasharray:none;stroke-dashoffset:0;marker:none;visibility:visible;display:inline;overflow:visible;enable-background:accumulate" />
          <path
             sodipodi:nodetypes="csc"
             inkscape:connector-curvature="0"
             id="path4201"
             d="m -205.625,490.9375 c 1.69067,-0.64165 2.90625,-2.27184 2.90625,-4.1875 0,-1.91519 -1.21624,-3.54552 -2.90625,-4.1875"
             style="color:#000000;fill:none;stroke:#c5c2c2;stroke-width:1.39999998;stroke-miterlimit:4;stroke-opacity:1;stroke-dasharray:none;marker:none;visibility:visible;display:inline;overflow:visible;enable-background:accumulate" />
          <path
             sodipodi:nodetypes="csc"
             inkscape:connector-curvature="0"
             id="path4203"
             d="m -202.28125,494.28125 c 2.44956,-1.60938 4.09375,-4.38127 4.09375,-7.53125 0,-3.14921 -1.6452,-5.92169 -4.09375,-7.53125"
             style="color:#000000;fill:none;stroke:#c5c2c2;stroke-width:1.57235456;stroke-linecap:butt;stroke-linejoin:miter;stroke-miterlimit:4;stroke-opacity:1;stroke-dasharray:none;stroke-dashoffset:0;marker:none;visibility:visible;display:inline;overflow:visible;enable-background:accumulate" />
        </g>
      </g>
    </g>
  </g>
</svg>
