<?xml version="1.0" encoding="UTF-8" standalone="no"?>
<!-- Created with Inkscape (http://www.inkscape.org/) -->

<svg
   xmlns:dc="http://purl.org/dc/elements/1.1/"
   xmlns:cc="http://creativecommons.org/ns#"
   xmlns:rdf="http://www.w3.org/1999/02/22-rdf-syntax-ns#"
   xmlns:svg="http://www.w3.org/2000/svg"
   xmlns="http://www.w3.org/2000/svg"
   xmlns:sodipodi="http://sodipodi.sourceforge.net/DTD/sodipodi-0.dtd"
   xmlns:inkscape="http://www.inkscape.org/namespaces/inkscape"
   width="744.09448819"
   height="1052.3622047"
   id="svg2"
   inkscape:label="Pozadí"
   version="1.1"
   inkscape:version="0.48.4 r9939"
   sodipodi:docname="Nový dokument 11">
  <defs
     id="defs4042" />
  <sodipodi:namedview
     id="base"
     pagecolor="#ffffff"
     bordercolor="#666666"
     borderopacity="1.0"
     inkscape:pageopacity="0.0"
     inkscape:pageshadow="2"
     inkscape:zoom="0.35"
     inkscape:cx="375"
     inkscape:cy="520"
     inkscape:document-units="px"
     inkscape:current-layer="layer1"
     showgrid="false"
     inkscape:window-width="814"
     inkscape:window-height="650"
     inkscape:window-x="665"
     inkscape:window-y="333"
     inkscape:window-maximized="0" />
  <metadata
     id="metadata4045">
    <rdf:RDF>
      <cc:Work
         rdf:about="">
        <dc:format>image/svg+xml</dc:format>
        <dc:type
           rdf:resource="http://purl.org/dc/dcmitype/StillImage" />
        <dc:title></dc:title>
      </cc:Work>
    </rdf:RDF>
  </metadata>
  <g
     inkscape:label="Vrstva 1"
     inkscape:groupmode="layer"
     id="layer1">
    <g
       id="g3857"
       transform="matrix(9.7688153,0,0,-9.7688153,-11.316253,5748.9446)">
      <rect
         style="color:#000000;fill:#ccc2b8;fill-opacity:1;fill-rule:nonzero;stroke:none;stroke-width:1;marker:none;visibility:visible;display:inline;overflow:visible;enable-background:accumulate"
         id="rect3826"
         width="58.083771"
         height="103.2881"
         x="10.469475"
         y="483.09073" />
      <path
         id="rect3832"
         d="m 16.625,483.09375 0,5.875 C 14.714847,490.70416 13.5,493.20403 13.5,496 l 0,32.75 c 0,2.79597 1.214847,5.29584 3.125,7.03125 l 0,50.59375 45.75,0 0,-50.5625 c 1.928846,-1.73642 3.125,-4.2509 3.125,-7.0625 l 0,-32.75 c 0,-2.8116 -1.196154,-5.32608 -3.125,-7.0625 l 0,-5.84375 -45.75,0 z"
         style="color:#000000;fill:#e8d7d0;fill-opacity:1;fill-rule:nonzero;stroke:none;stroke-width:1;marker:none;visibility:visible;display:inline;overflow:visible;enable-background:accumulate"
         inkscape:connector-curvature="0" />
      <path
         d="m 283.09525,518.3703 c 0,11.92494 -9.66708,21.59201 -21.59202,21.59201 -11.92493,0 -21.59201,-9.66707 -21.59201,-21.59201 0,-11.92494 9.66708,-21.59201 21.59201,-21.59201 11.92494,0 21.59202,9.66707 21.59202,21.59201 z"
         sodipodi:ry="21.59201"
         sodipodi:rx="21.59201"
         sodipodi:cy="518.3703"
         sodipodi:cx="261.50323"
         id="path3830"
         style="color:#000000;fill:#8c8781;fill-opacity:1;fill-rule:nonzero;stroke:none;stroke-width:1;marker:none;visibility:visible;display:inline;overflow:visible;enable-background:accumulate"
         sodipodi:type="arc"
         transform="matrix(1.11132,0,0,1.11132,-251.10241,-64.068943)" />
      <path
         transform="translate(-221.99187,-6.363961)"
         sodipodi:type="arc"
         style="color:#000000;fill:#595957;fill-opacity:1;fill-rule:nonzero;stroke:none;stroke-width:1;marker:none;visibility:visible;display:inline;overflow:visible;enable-background:accumulate"
         id="path3828"
         sodipodi:cx="261.50323"
         sodipodi:cy="518.3703"
         sodipodi:rx="21.59201"
         sodipodi:ry="21.59201"
         d="m 283.09525,518.3703 c 0,11.92494 -9.66708,21.59201 -21.59202,21.59201 -11.92493,0 -21.59201,-9.66707 -21.59201,-21.59201 0,-11.92494 9.66708,-21.59201 21.59201,-21.59201 11.92494,0 21.59202,9.66707 21.59202,21.59201 z" />
      <path
         inkscape:connector-curvature="0"
         id="rect3836"
         d="m 37.48011,560.25 0,12.28125 c -0.588247,0.54771 -0.96875,1.32035 -0.96875,2.1875 0,1.65685 1.343146,3 3,3 1.656854,0 3,-1.34315 3,-3 0,-0.8601 -0.357601,-1.64049 -0.9375,-2.1875 l 0,-12.28125 -4.09375,0 z"
         style="color:#000000;fill:#c3b4ad;fill-opacity:1;fill-rule:nonzero;stroke:none;stroke-width:0.92295021;marker:none;visibility:visible;display:inline;overflow:visible;enable-background:accumulate" />
      <g
         style="fill:#31322c;fill-opacity:1;stroke:none"
         transform="translate(-220.95831,-6.363961)"
         id="g3840">
        <g
           style="fill:#31322c;fill-opacity:1;stroke:none"
           transform="translate(-0.0107966,0)"
           id="g3842">
          <path
             sodipodi:type="arc"
             style="color:#000000;fill:#31322c;fill-opacity:1;fill-rule:nonzero;stroke:none;stroke-width:1;marker:none;visibility:visible;display:inline;overflow:visible;enable-background:accumulate"
             id="path3844"
             sodipodi:cx="250.93452"
             sodipodi:cy="515.04944"
             sodipodi:rx="2.9168155"
             sodipodi:ry="2.9168155"
             d="m 253.85134,515.04944 c 0,1.61091 -1.3059,2.91681 -2.91682,2.91681 -1.61091,0 -2.91681,-1.3059 -2.91681,-2.91681 0,-1.61091 1.3059,-2.91682 2.91681,-2.91682 1.61092,0 2.91682,1.30591 2.91682,2.91682 z" />
          <path
             d="m 253.85134,515.04944 c 0,1.61091 -1.3059,2.91681 -2.91682,2.91681 -1.61091,0 -2.91681,-1.3059 -2.91681,-2.91681 0,-1.61091 1.3059,-2.91682 2.91681,-2.91682 1.61092,0 2.91682,1.30591 2.91682,2.91682 z"
             sodipodi:ry="2.9168155"
             sodipodi:rx="2.9168155"
             sodipodi:cy="515.04944"
             sodipodi:cx="250.93452"
             id="path3846"
             style="color:#000000;fill:#31322c;fill-opacity:1;fill-rule:nonzero;stroke:none;stroke-width:1;marker:none;visibility:visible;display:inline;overflow:visible;enable-background:accumulate"
             sodipodi:type="arc"
             transform="translate(19.091883,0)" />
        </g>
        <path
           sodipodi:type="arc"
           style="color:#000000;fill:#c8bfae;fill-opacity:1;fill-rule:nonzero;stroke:none;stroke-width:1;marker:none;visibility:visible;display:inline;overflow:visible;enable-background:accumulate"
           id="path3848"
           sodipodi:cx="250.93452"
           sodipodi:cy="515.04944"
           sodipodi:rx="2.9168155"
           sodipodi:ry="2.9168155"
           d="m 253.85134,515.04944 c 0,1.61091 -1.3059,2.91681 -2.91682,2.91681 -1.61091,0 -2.91681,-1.3059 -2.91681,-2.91681 0,-1.61091 1.3059,-2.91682 2.91681,-2.91682 1.61092,0 2.91682,1.30591 2.91682,2.91682 z"
           transform="translate(9.5351449,11.170424)" />
      </g>
      <path
         transform="matrix(0.6561,0,0,0.6561,-131.40269,192.29681)"
         d="m 263.5,582.86218 c 0,1.65686 -1.34315,3 -3,3 -1.65685,0 -3,-1.34314 -3,-3 0,-1.65685 1.34315,-3 3,-3 1.65685,0 3,1.34315 3,3 z"
         sodipodi:ry="3"
         sodipodi:rx="3"
         sodipodi:cy="582.86218"
         sodipodi:cx="260.5"
         id="path3851"
         style="color:#000000;fill:#ff0000;fill-opacity:0.50892861;fill-rule:nonzero;stroke:none;stroke-width:1;marker:none;visibility:visible;display:inline;overflow:visible;enable-background:accumulate"
         sodipodi:type="arc" />
      <path
         style="fill:#12442f;fill-opacity:1"
         d="m 37.131431,555.86877 c 0,-0.20968 0.250079,-0.47374 0.555732,-0.58681 l 0.555729,-0.20558 -0.566127,-0.17968 c -0.416633,-0.13223 -0.526104,-0.30578 -0.414561,-0.65723 0.16964,-0.53449 -0.344009,-0.6624 -0.805756,-0.20066 -0.393389,0.39339 -0.855253,0.0264 -0.767566,-0.60994 0.06161,-0.44704 -0.03652,-0.52644 -0.581595,-0.47062 -0.661599,0.0677 -1.172543,-0.5294 -0.701874,-0.82029 0.448745,-0.27734 0.237783,-0.6153 -0.384076,-0.6153 -0.456147,0 -0.622019,-0.1327 -0.622019,-0.49762 0,-0.27369 0.111963,-0.49761 0.248807,-0.49761 0.136844,0 0.248808,-0.16795 0.248808,-0.37322 0,-0.20733 -0.221163,-0.37321 -0.497615,-0.37321 -0.613463,0 -0.65324,-0.62841 -0.0622,-0.98268 0.41468,-0.24856 0.41468,-0.27711 0,-0.59961 -0.595481,-0.46311 -0.558227,-1.15459 0.0622,-1.15459 0.556824,0 0.638457,-0.25725 0.215771,-0.67994 -0.373921,-0.37392 -0.08315,-1.09068 0.371661,-0.91615 0.476357,0.18279 0.770092,-0.33104 0.42615,-0.74547 -0.364015,-0.43861 0.219045,-0.95873 0.724535,-0.64631 0.481052,0.2973 0.728439,0.098 0.58052,-0.4676 -0.154614,-0.59125 0.326953,-0.91096 0.791457,-0.52545 0.441474,0.36639 0.897302,0.10969 0.70324,-0.39602 -0.09593,-0.24999 0.03554,-0.42752 0.384079,-0.51867 0.679066,-0.17758 0.688816,-0.57816 0.01408,-0.57816 -0.357136,0 -0.490246,-0.13397 -0.432615,-0.43541 0.07041,-0.36828 0.418452,-0.44649 2.257511,-0.5073 2.04574,-0.0676 2.174267,-0.0419 2.174267,0.43541 0,0.28507 -0.163496,0.5073 -0.373211,0.5073 -0.558568,0 -0.449765,0.41956 0.149438,0.57626 0.287791,0.0753 0.448899,0.256 0.358527,0.40223 -0.275716,0.44612 0.110799,0.8268 0.506246,0.4986 0.469714,-0.38982 1.19464,-0.0904 1.001257,0.41352 -0.218956,0.57059 0.07479,0.92763 0.483858,0.58813 0.537166,-0.44581 0.908541,-0.0336 0.72453,0.80422 -0.148582,0.67649 -0.114396,0.7317 0.359871,0.58117 0.611365,-0.19404 1.010061,0.47428 0.554634,0.9297 -0.422687,0.42269 -0.341053,0.67994 0.215771,0.67994 0.331743,0 0.497615,0.16587 0.497615,0.49762 0,0.27645 -0.165872,0.49761 -0.373211,0.49761 -0.205267,0 -0.373212,0.16795 -0.373212,0.37321 0,0.20527 0.167945,0.37321 0.373212,0.37321 0.207339,0 0.373211,0.22117 0.373211,0.49762 0,0.33174 -0.165872,0.49761 -0.497615,0.49761 -0.531881,0 -0.694385,0.63937 -0.204045,0.80282 0.461722,0.1539 0.02763,0.93884 -0.519209,0.93884 -0.380098,0 -0.479551,0.15353 -0.443221,0.68422 0.03946,0.57645 -0.05113,0.68422 -0.575178,0.68422 -0.49129,0 -0.60675,0.11122 -0.549367,0.52918 0.07552,0.55005 -0.565841,1.00019 -0.82579,0.57959 -0.281595,-0.45563 -0.906209,-0.26493 -0.749498,0.22883 0.10757,0.33892 -0.0071,0.51651 -0.418646,0.64839 -0.47736,0.15296 -0.49809,0.19996 -0.13138,0.29789 0.239477,0.0639 0.435413,0.33199 0.435413,0.59565 0,0.43778 -0.194279,0.47937 -2.239268,0.47937 -1.84552,0 -2.239268,-0.067 -2.239268,-0.38123 z m 0.943292,-3.93491 c -0.04086,-1.21563 -0.180978,-2.15951 -0.321273,-2.16422 -0.136844,-0.005 -0.284586,0.22001 -0.328314,0.49912 -0.0591,0.37722 -0.266647,0.50747 -0.808625,0.50747 -0.684765,0 -0.729118,-0.0605 -0.729118,-0.99523 l 0,-0.99523 3.60771,0 3.607709,0 0,0.99523 c 0,0.93994 -0.04147,0.99523 -0.746422,0.99523 -0.58055,0 -0.746423,-0.11058 -0.746423,-0.49761 0,-0.27645 -0.165872,-0.49762 -0.373211,-0.49762 -0.303916,0 -0.373212,0.41305 -0.373212,2.22459 0,1.22352 0.111964,2.29378 0.248808,2.37835 0.136844,0.0846 0.248807,-0.0648 0.248807,-0.3319 0,-0.56445 0.711172,-0.9225 1.086598,-0.54708 0.405954,0.40596 0.750844,0.29897 0.399794,-0.12402 -0.261012,-0.3145 -0.237191,-0.43876 0.136496,-0.712 0.248976,-0.18206 0.685452,-0.27111 0.969946,-0.19789 0.457888,0.11785 0.478064,0.0853 0.175785,-0.28323 -0.278796,-0.33993 -0.282897,-0.48694 -0.02234,-0.80089 0.175526,-0.21149 0.469144,-0.32697 0.652485,-0.25662 0.395239,0.15167 0.439977,-0.14793 0.07638,-0.51152 -0.329483,-0.32948 -0.04521,-1.08659 0.40799,-1.08659 0.190626,0 0.346591,-0.11197 0.346591,-0.24881 0,-0.13685 -0.167945,-0.24881 -0.373211,-0.24881 -0.232219,0 -0.373211,-0.23498 -0.373211,-0.62202 0,-0.46209 0.131719,-0.62202 0.5123,-0.62202 0.281764,0 0.446121,-0.10707 0.365242,-0.23794 -0.08088,-0.13086 -0.296701,-0.18051 -0.479599,-0.11033 -0.539201,0.20691 -0.716686,-0.95857 -0.207456,-1.36227 0.395074,-0.3132 0.38396,-0.33086 -0.131542,-0.20905 -0.740959,0.17509 -1.250129,-0.6546 -0.762384,-1.2423 0.285594,-0.34411 0.255202,-0.37062 -0.24348,-0.21234 -0.733766,0.23289 -1.276057,-0.21561 -1.120677,-0.92685 0.08717,-0.39899 0.05475,-0.45826 -0.117701,-0.21517 -0.35464,0.4999 -1.161802,0.23982 -1.253594,-0.40393 -0.044,-0.30853 -0.183951,-0.49671 -0.31101,-0.41818 -0.127061,0.0785 -0.23102,1.19982 -0.23102,2.49176 0,1.92212 0.06782,2.34899 0.373211,2.34899 0.207339,0 0.373212,0.22116 0.373212,0.49761 0,0.46076 -0.165873,0.49762 -2.239268,0.49762 -2.073396,0 -2.239268,-0.0369 -2.239268,-0.49762 0,-0.33174 0.165872,-0.49761 0.497615,-0.49761 0.458206,0 0.497615,-0.16587 0.497615,-2.09452 0,-2.3157 -0.240717,-3.4695 -0.497379,-2.38402 -0.107495,0.45463 -0.311447,0.62202 -0.757878,0.62202 -0.397619,0 -0.660335,0.17368 -0.752727,0.49762 -0.103056,0.36132 -0.329996,0.48403 -0.828614,0.44803 -0.559434,-0.0404 -0.633676,0.0143 -0.400622,0.29511 0.447348,0.53902 -0.09708,1.35731 -0.802646,1.20641 -0.514243,-0.10999 -0.526348,-0.0902 -0.139581,0.22776 0.569958,0.46861 0.315249,1.42089 -0.39031,1.45926 -0.420502,0.0229 -0.440322,0.0525 -0.09538,0.14265 0.239477,0.0626 0.435413,0.34514 0.435413,0.62792 0,0.28278 -0.195936,0.66288 -0.435413,0.84467 -0.404556,0.30711 -0.397032,0.33109 0.106161,0.33844 0.681808,0.01 0.86659,0.7262 0.347572,1.34722 -0.365511,0.43735 -0.356661,0.45764 0.133159,0.30539 0.667874,-0.20759 1.32337,0.46329 0.882969,0.90369 -0.424036,0.42404 -0.350943,0.79926 0.08519,0.43731 0.491117,-0.40759 1.206433,0.13882 1.035821,0.79124 -0.131094,0.50131 0.09445,0.59144 0.490061,0.19583 0.385966,-0.38596 1.086598,-0.0106 1.086598,0.58215 0,0.36093 0.07951,0.44125 0.259071,0.26169 0.151775,-0.15178 0.229057,-1.15194 0.186605,-2.41494 z"
         id="path3855"
         inkscape:connector-curvature="0" />
    </g>
  </g>
</svg>
