<?xml version="1.0" encoding="UTF-8" standalone="no"?>
<!-- Created with Inkscape (http://www.inkscape.org/) -->

<svg
   xmlns:dc="http://purl.org/dc/elements/1.1/"
   xmlns:cc="http://creativecommons.org/ns#"
   xmlns:rdf="http://www.w3.org/1999/02/22-rdf-syntax-ns#"
   xmlns:svg="http://www.w3.org/2000/svg"
   xmlns="http://www.w3.org/2000/svg"
   xmlns:sodipodi="http://sodipodi.sourceforge.net/DTD/sodipodi-0.dtd"
   xmlns:inkscape="http://www.inkscape.org/namespaces/inkscape"
   width="744.09448819"
   height="1052.3622047"
   id="svg2"
   inkscape:label="Pozadí"
   version="1.1"
   inkscape:version="0.48.4 r9939"
   sodipodi:docname="Nový dokument 15">
  <defs
     id="defs4144" />
  <sodipodi:namedview
     id="base"
     pagecolor="#ffffff"
     bordercolor="#666666"
     borderopacity="1.0"
     inkscape:pageopacity="0.0"
     inkscape:pageshadow="2"
     inkscape:zoom="0.35"
     inkscape:cx="375"
     inkscape:cy="520"
     inkscape:document-units="px"
     inkscape:current-layer="layer1"
     showgrid="false"
     inkscape:window-width="780"
     inkscape:window-height="718"
     inkscape:window-x="665"
     inkscape:window-y="333"
     inkscape:window-maximized="0" />
  <metadata
     id="metadata4147">
    <rdf:RDF>
      <cc:Work
         rdf:about="">
        <dc:format>image/svg+xml</dc:format>
        <dc:type
           rdf:resource="http://purl.org/dc/dcmitype/StillImage" />
        <dc:title></dc:title>
      </cc:Work>
    </rdf:RDF>
  </metadata>
  <g
     inkscape:label="Vrstva 1"
     inkscape:groupmode="layer"
     id="layer1">
    <rect
       y="13.142"
       x="222.49911"
       height="1027.0118"
       width="303.505"
       id="rect3934"
       style="color:#000000;fill:#c1b2a9;fill-opacity:1;fill-rule:nonzero;stroke:none;stroke-width:1;marker:none;visibility:visible;display:inline;overflow:visible;enable-background:accumulate" />
    <rect
       y="13.142"
       x="260.05978"
       height="1027.0118"
       width="231.9527"
       id="rect3936"
       style="color:#000000;fill:#cdc2b9;fill-opacity:1;fill-rule:nonzero;stroke:none;stroke-width:1;marker:none;visibility:visible;display:inline;overflow:visible;enable-background:accumulate" />
    <rect
       style="color:#000000;fill:#87827c;fill-opacity:0.98039216;fill-rule:nonzero;stroke:none;stroke-width:1;marker:none;visibility:visible;display:inline;overflow:visible;enable-background:accumulate"
       id="rect3938"
       width="226.46678"
       height="77.794334"
       x="339.76685"
       y="304.09546"
       ry="38.897167"
       transform="matrix(0.96005188,0.27982207,-0.1763693,0.98432407,0,0)" />
    <rect
       transform="matrix(0.96005188,0.27982207,-0.1763693,0.98432407,0,0)"
       ry="38.897167"
       y="184.95741"
       x="317.87997"
       height="77.794334"
       width="226.46678"
       id="rect3940"
       style="color:#000000;fill:#817c78;fill-opacity:0.90196078;fill-rule:nonzero;stroke:none;stroke-width:1;marker:none;visibility:visible;display:inline;overflow:visible;enable-background:accumulate" />
    <rect
       style="color:#000000;fill:#817c78;fill-opacity:0.90196078;fill-rule:nonzero;stroke:none;stroke-width:1;marker:none;visibility:visible;display:inline;overflow:visible;enable-background:accumulate"
       id="rect3942"
       width="226.46678"
       height="77.794334"
       x="295.99365"
       y="65.819359"
       ry="38.897167"
       transform="matrix(0.96005188,0.27982207,-0.1763693,0.98432407,0,0)" />
    <path
       d="m 150.5,481.67468 a 2.1875,2.1875 0 1 1 -4.375,0 2.1875,2.1875 0 1 1 4.375,0 z"
       sodipodi:ry="2.1875"
       sodipodi:rx="2.1875"
       sodipodi:cy="481.67468"
       sodipodi:cx="148.3125"
       id="path3944"
       style="color:#000000;fill:#ff0000;fill-opacity:0.53571424;fill-rule:nonzero;stroke:none;stroke-width:1;marker:none;visibility:visible;display:inline;overflow:visible;enable-background:accumulate"
       sodipodi:type="arc"
       transform="matrix(8.6711292,0,0,8.6711292,-914.87833,-4084.2669)" />
    <path
       sodipodi:type="arc"
       style="color:#000000;fill:#89837c;fill-opacity:0.99607915;fill-rule:nonzero;stroke:none;stroke-width:1;marker:none;visibility:visible;display:inline;overflow:visible;enable-background:accumulate"
       id="path3954"
       sodipodi:cx="156.625"
       sodipodi:cy="541.48718"
       sodipodi:rx="3.5"
       sodipodi:ry="3.5"
       d="m 160.125,541.48718 a 3.5,3.5 0 1 1 -7,0 3.5,3.5 0 1 1 7,0 z"
       transform="matrix(11.514022,0,0,11.735444,-1365.0238,-5760.3545)" />
    <path
       transform="matrix(8.0517628,0,0,8.2066043,-822.74758,-3849.5329)"
       d="m 160.125,541.48718 a 3.5,3.5 0 1 1 -7,0 3.5,3.5 0 1 1 7,0 z"
       sodipodi:ry="3.5"
       sodipodi:rx="3.5"
       sodipodi:cy="541.48718"
       sodipodi:cx="156.625"
       id="path3946"
       style="color:#000000;fill:#4d4d4d;fill-opacity:1;fill-rule:nonzero;stroke:none;stroke-width:1;marker:none;visibility:visible;display:inline;overflow:visible;enable-background:accumulate"
       sodipodi:type="arc" />
    <path
       id="path3948"
       d="m 303.14434,168.92208 c -11.11031,1.15872 -21.19943,8.88609 -24.92949,20.05199 -4.97342,14.8879 3.11407,30.46671 18.15517,34.95549 l 47.14928,14.09058 0,-59.34304 -29.26508,-8.67113 c -3.76022,-1.12222 -7.40643,-1.47011 -11.10988,-1.08389 z m 102.15675,28.18117 0,59.34303 29.26506,8.67114 c 15.04111,4.48879 31.06597,-3.80923 36.03939,-18.69712 4.9734,-14.8879 -3.11407,-30.73768 -18.15519,-35.22647 l -47.14926,-14.09058 z"
       style="color:#000000;fill:#4d4d4d;fill-opacity:1;fill-rule:nonzero;stroke:none;stroke-width:1;marker:none;visibility:visible;display:inline;overflow:visible;enable-background:accumulate"
       inkscape:connector-curvature="0" />
    <path
       id="path3950"
       d="m 303.14434,292.48567 c -11.11031,1.15872 -21.19943,8.61511 -24.92949,19.78101 -4.97342,14.88789 3.11407,30.46671 18.15517,34.95549 l 47.14928,14.09058 0,-59.07206 -29.26508,-8.67113 c -3.76022,-1.12221 -7.40643,-1.4701 -11.10988,-1.08389 z m 102.15675,28.18117 0,59.07207 29.26506,8.67113 c 15.04111,4.48878 31.06597,-3.80923 36.03939,-18.69712 4.9734,-14.8879 -3.11407,-30.46671 -18.15519,-34.95549 l -47.14926,-14.09059 z"
       style="color:#000000;fill:#4d4d4d;fill-opacity:1;fill-rule:nonzero;stroke:none;stroke-width:1;marker:none;visibility:visible;display:inline;overflow:visible;enable-background:accumulate"
       inkscape:connector-curvature="0" />
    <path
       id="path3952"
       d="m 303.14434,415.77829 c -11.11031,1.15873 -21.19943,8.61511 -24.92949,19.78101 -4.97342,14.88789 3.11407,30.4667 18.15517,34.95549 l 47.14928,14.09059 0,-59.07207 -29.26508,-8.67113 c -3.76022,-1.12221 -7.40643,-1.4701 -11.10988,-1.08389 z m 102.15675,28.18117 0,59.34304 29.26506,8.67113 c 15.04111,4.48877 31.06597,-4.0802 36.03939,-18.9681 4.9734,-14.88789 -3.11407,-30.4667 -18.15519,-34.95548 l -47.14926,-14.09059 z"
       style="color:#000000;fill:#4d4d4d;fill-opacity:1;fill-rule:nonzero;stroke:none;stroke-width:1;marker:none;visibility:visible;display:inline;overflow:visible;enable-background:accumulate"
       inkscape:connector-curvature="0" />
    <path
       style="fill:#12442f;fill-opacity:1"
       d="m 350.76957,919.90066 c 0,-2.23716 2.66768,-5.05371 5.92827,-6.25986 l 5.9282,-2.19302 -6.03918,-1.91675 c -4.44439,-1.41062 -5.61214,-3.26199 -4.42229,-7.01095 1.80968,-5.7017 -3.66969,-7.0662 -8.59534,-2.14056 -4.19647,4.19649 -9.12332,0.28094 -8.18796,-6.50647 0.65727,-4.76887 -0.38934,-5.61586 -6.20411,-5.02042 -7.05761,0.72231 -12.50803,-5.64724 -7.48726,-8.75029 4.78698,-2.95841 2.53657,-6.56369 -4.09711,-6.56369 -4.86589,0 -6.63533,-1.41547 -6.63533,-5.30829 0,-2.91949 1.19437,-5.3083 2.65415,-5.3083 1.45979,0 2.65415,-1.79154 2.65415,-3.98117 0,-2.21174 -2.35924,-3.98119 -5.3083,-3.98119 -6.54409,0 -6.96837,-6.70355 -0.66333,-10.48269 4.42357,-2.65154 4.42357,-2.95616 0,-6.39634 -6.3523,-4.9402 -5.95491,-12.31657 0.66333,-12.31657 5.9399,0 6.81075,-2.74415 2.30176,-7.25314 -3.98881,-3.9888 -0.88697,-11.63483 3.96461,-9.77305 5.08154,1.94996 8.21495,-3.53141 4.54592,-7.95221 -3.88309,-4.67886 2.33671,-10.22717 7.72902,-6.89458 5.13157,3.17155 7.77054,1.04591 6.19265,-4.98807 -1.64933,-6.30703 3.48771,-9.71748 8.44283,-5.60519 4.70938,3.90852 9.57188,1.17017 7.50174,-4.22449 -1.02328,-2.66672 0.37892,-4.56058 4.09711,-5.53288 7.24395,-1.89429 7.34791,-6.16742 0.15001,-6.16742 -3.80974,0 -5.22965,-1.42918 -4.61486,-4.64477 0.75092,-3.92864 4.46381,-4.76297 24.0818,-5.41158 21.82281,-0.72143 23.19389,-0.44742 23.19389,4.6447 0,3.04096 -1.74412,5.41165 -3.98118,5.41165 -5.95854,0 -4.79782,4.4756 1.5941,6.14714 3.07002,0.80294 4.78863,2.73088 3.82458,4.29074 -2.94116,4.75896 1.18196,8.81991 5.40037,5.31886 5.01061,-4.15841 12.7437,-0.96475 10.68085,4.41117 -2.33574,6.08671 0.79773,9.89542 5.16148,6.27383 5.73023,-4.7556 9.69181,-0.35811 7.72892,8.57895 -1.58499,7.21646 -1.22037,7.80541 3.83889,6.19969 6.52173,-2.06988 10.77474,5.05925 5.91649,9.91751 -4.50899,4.50899 -3.63816,7.25314 2.30174,7.25314 3.53886,0 5.3083,1.76944 5.3083,5.3083 0,2.94904 -1.76944,5.30829 -3.98119,5.30829 -2.18971,0 -3.98125,1.79154 -3.98125,3.98126 0,2.18964 1.79154,3.98118 3.98125,3.98118 2.21175,0 3.98119,2.35923 3.98119,5.30829 0,3.53886 -1.76944,5.30828 -5.3083,5.30828 -5.67378,0 -7.40731,6.82037 -2.17662,8.56396 4.92537,1.6418 0.29482,10.01499 -5.53859,10.01499 -4.05471,0 -5.11563,1.6378 -4.72811,7.29882 0.42141,6.14932 -0.54543,7.29885 -6.13561,7.29885 -5.24084,0 -6.47248,1.18646 -5.86039,5.64507 0.80556,5.86767 -6.03605,10.66948 -8.80908,6.1827 -3.00385,-4.86042 -9.66692,-2.82611 -7.99522,2.44101 1.14755,3.61542 -0.078,5.50989 -4.46588,6.91669 -5.09222,1.63174 -5.31332,2.1331 -1.40143,3.1778 2.5546,0.68241 4.64469,3.54154 4.64469,6.35359 0,4.67027 -2.07249,5.11424 -23.88723,5.11424 -19.68702,0 -23.88732,-0.71103 -23.88732,-4.06676 z m 10.0625,-41.97547 c -0.43616,-12.96767 -1.93053,-23.03649 -3.42718,-23.0867 -1.4597,-0.052 -3.03576,2.34692 -3.50227,5.32433 -0.63039,4.02401 -2.84439,5.41338 -8.62595,5.41338 -7.30464,0 -7.77784,-0.646 -7.77784,-10.6165 l 0,-10.61657 38.48508,0 38.48508,0 0,10.61657 c 0,10.02669 -0.44223,10.6165 -7.96244,10.6165 -6.19301,0 -7.96244,-1.17952 -7.96244,-5.3082 0,-2.94905 -1.76943,-5.3083 -3.98119,-5.3083 -3.24203,0 -3.98124,4.40615 -3.98124,23.73064 0,13.05168 1.19436,24.46861 2.65413,25.37084 1.45979,0.90224 2.65415,-0.69108 2.65415,-3.54059 0,-6.02114 7.58638,-9.84069 11.59123,-5.83592 4.33044,4.33053 8.0096,3.18924 4.2648,-1.32304 -2.78438,-3.35486 -2.53024,-4.68034 1.45605,-7.59522 2.65589,-1.94207 7.31202,-2.8919 10.34684,-2.1109 4.88444,1.25715 5.09974,0.91038 1.87512,-3.02137 -2.97403,-3.62609 -3.01772,-5.19426 -0.23845,-8.54331 1.87236,-2.25615 5.00454,-3.48797 6.96031,-2.73748 4.21616,1.61794 4.69343,-1.57806 0.81509,-5.45657 -3.51475,-3.51484 -0.48212,-11.59122 4.35221,-11.59122 2.03346,0 3.69729,-1.19436 3.69729,-2.65414 0,-1.45979 -1.79155,-2.65415 -3.98127,-2.65415 -2.47717,0 -3.98117,-2.50665 -3.98117,-6.63532 0,-4.92936 1.40507,-6.63541 5.4649,-6.63541 3.00575,0 4.75896,-1.14217 3.89618,-2.53822 -0.86277,-1.39595 -3.16504,-1.92559 -5.11604,-1.17692 -5.75192,2.20714 -7.64526,-10.22552 -2.21304,-14.53195 4.21442,-3.34107 4.09588,-3.52949 -1.40326,-2.23004 -7.90408,1.86775 -13.33568,-6.98286 -8.13266,-13.25209 3.04652,-3.67083 2.72239,-3.9536 -2.59734,-2.26524 -7.82735,2.48437 -13.6122,-2.29993 -11.95472,-9.887 0.92982,-4.2563 0.58443,-4.88852 -1.25557,-2.29542 -3.78314,5.33267 -12.39348,2.55834 -13.37261,-4.30886 -0.46911,-3.29122 -1.96229,-5.29867 -3.31766,-4.46095 -1.35548,0.83763 -2.46443,12.79903 -2.46443,26.58074 0,20.5041 0.72317,25.05765 3.98116,25.05765 2.21184,0 3.98127,2.35925 3.98127,5.3083 0,4.91506 -1.76943,5.3083 -23.88731,5.3083 -22.1178,0 -23.88722,-0.39281 -23.88722,-5.3083 0,-3.53885 1.76942,-5.3083 5.30828,-5.3083 4.88784,0 5.3083,-1.76942 5.3083,-22.34307 0,-24.70265 -2.56786,-37.01072 -5.30578,-25.43146 -1.14676,4.84976 -3.32234,6.63541 -8.08461,6.63541 -4.24157,0 -7.04408,1.85268 -8.02973,5.3083 -1.09932,3.85439 -3.52021,5.16338 -8.83918,4.77934 -5.96772,-0.43095 -6.75966,0.15261 -4.27365,3.14806 4.77207,5.75 -1.0355,14.47904 -8.56212,12.86925 -5.48563,-1.1732 -5.61482,-0.96249 -1.48902,2.42965 6.08003,4.99891 3.36293,15.1573 -4.16352,15.56659 -4.48576,0.24365 -4.69716,0.56016 -1.01757,1.5217 2.55461,0.66767 4.64478,3.68184 4.64478,6.69836 0,3.01652 -2.09017,7.07122 -4.64478,9.01051 -4.31561,3.27595 -4.23531,3.53184 1.13246,3.61023 7.27317,0.10579 9.24428,7.74661 3.70768,14.37144 -3.89905,4.66532 -3.80462,4.88185 1.42051,3.25774 7.12455,-2.21452 14.11695,4.94202 9.41902,9.63996 -4.52339,4.52329 -3.74368,8.52605 0.90873,4.66489 5.23892,-4.34788 12.86951,1.48094 11.04953,8.44056 -1.39839,5.34767 1.00758,6.30912 5.22774,2.08897 4.11723,-4.11722 11.59121,-0.11273 11.59121,6.21009 0,3.85015 0.84805,4.70694 2.76358,2.7915 1.61908,-1.61899 2.44344,-12.28821 1.99063,-25.76107 z"
       id="path3008-3"
       inkscape:connector-curvature="0" />
  </g>
</svg>
