<?xml version="1.0" encoding="UTF-8" standalone="no"?>
<!-- Created with Inkscape (http://www.inkscape.org/) -->

<svg
   xmlns:dc="http://purl.org/dc/elements/1.1/"
   xmlns:cc="http://creativecommons.org/ns#"
   xmlns:rdf="http://www.w3.org/1999/02/22-rdf-syntax-ns#"
   xmlns:svg="http://www.w3.org/2000/svg"
   xmlns="http://www.w3.org/2000/svg"
   xmlns:sodipodi="http://sodipodi.sourceforge.net/DTD/sodipodi-0.dtd"
   xmlns:inkscape="http://www.inkscape.org/namespaces/inkscape"
   width="50mm"
   height="40mm"
   viewBox="0 0 177.16535 141.73228"
   id="svg4789"
   version="1.1"
   inkscape:version="0.91 r13725"
   sodipodi:docname="RFLink433MHz_logo2.svg">
  <defs
     id="defs4791" />
  <sodipodi:namedview
     id="base"
     pagecolor="#ffffff"
     bordercolor="#666666"
     borderopacity="1.0"
     inkscape:pageopacity="0.0"
     inkscape:pageshadow="2"
     inkscape:zoom="2"
     inkscape:cx="17.339722"
     inkscape:cy="-32.663175"
     inkscape:document-units="px"
     inkscape:current-layer="g4441"
     showgrid="false"
     inkscape:window-width="1400"
     inkscape:window-height="1001"
     inkscape:window-x="0"
     inkscape:window-y="25"
     inkscape:window-maximized="1"
     showguides="false"
     inkscape:snap-global="true"
     inkscape:object-paths="true"
     inkscape:snap-intersection-paths="true"
     inkscape:object-nodes="true"
     inkscape:snap-bbox="true"
     inkscape:snap-bbox-edge-midpoints="true"
     inkscape:snap-nodes="true"
     inkscape:bbox-nodes="true"
     inkscape:bbox-paths="true"
     inkscape:snap-midpoints="true"
     inkscape:snap-bbox-midpoints="true" />
  <metadata
     id="metadata4794">
    <rdf:RDF>
      <cc:Work
         rdf:about="">
        <dc:format>image/svg+xml</dc:format>
        <dc:type
           rdf:resource="http://purl.org/dc/dcmitype/StillImage" />
        <dc:title />
      </cc:Work>
    </rdf:RDF>
  </metadata>
  <g
     inkscape:label="Layer 1"
     inkscape:groupmode="layer"
     id="layer1"
     transform="translate(0,-910.62992)">
    <g
       id="g4269"
       transform="translate(6.0609152,203.04066)" />
    <flowRoot
       xml:space="preserve"
       id="flowRoot4399"
       style="font-style:normal;font-weight:normal;font-size:40px;line-height:125%;font-family:sans-serif;letter-spacing:0px;word-spacing:0px;fill:#000000;fill-opacity:1;stroke:none;stroke-width:1px;stroke-linecap:butt;stroke-linejoin:miter;stroke-opacity:1;-inkscape-font-specification:sans-serif;font-stretch:normal;font-variant:normal;"
       transform="translate(-7.6293945e-6,910.62992)"><flowRegion
         id="flowRegion4401"><rect
           id="rect4403"
           width="180"
           height="108.57143"
           x="-91.428574"
           y="223.16086"
           style="-inkscape-font-specification:sans-serif;font-family:sans-serif;font-weight:normal;font-style:normal;font-stretch:normal;font-variant:normal;" /></flowRegion><flowPara
         id="flowPara4405" /></flowRoot>    <text
       xml:space="preserve"
       style="font-style:italic;font-weight:bold;font-size:40px;line-height:125%;font-family:sans-serif;letter-spacing:0px;word-spacing:0px;fill:#000000;fill-opacity:1;stroke:none;stroke-width:1px;stroke-linecap:butt;stroke-linejoin:miter;stroke-opacity:1;-inkscape-font-specification:'sans-serif Bold Italic';font-stretch:normal;font-variant:normal;"
       x="-83.842667"
       y="1157.4181"
       id="text4407"
       sodipodi:linespacing="125%"><tspan
         sodipodi:role="line"
         id="tspan4409"
         x="-83.842667"
         y="1157.4181" /></text>
    <g
       id="g4441"
       transform="translate(162.85714,-342.85714)">
      <rect
         style="fill:#ffffff;fill-opacity:1;stroke:#008080;stroke-width:0;stroke-miterlimit:4;stroke-dasharray:none"
         id="rect4234"
         width="177.53432"
         height="141.87692"
         x="-161.37187"
         y="1254.3927"
         ry="11.830715" />
      <g
         id="g4236"
         transform="matrix(0.83244767,0,0,0.83244767,-261.76579,873.12098)">
        <path
           inkscape:connector-curvature="0"
           id="path4238"
           d="m 136.22662,623.98604 c -2.11465,-0.76005 -4.9699,-2.43276 -6.34502,-3.71715 -5.51466,-5.15081 -5.31017,-2.14195 -5.31017,-78.13554 l 0,-70.39962 2.88378,-3.98095 c 1.58609,-2.18953 4.62359,-4.84454 6.75,-5.90004 3.72409,-1.84854 7.11971,-1.91909 92.36622,-1.91909 l 88.5,0 4.16579,2.22736 c 2.29118,1.22505 5.21618,3.70005 6.5,5.5 l 2.33421,3.27264 0.26457,70.5 c 0.29906,79.6928 0.79857,74.47318 -7.70372,80.5 l -4.23223,3 -88.16431,0.21714 c -72.90874,0.17958 -88.8296,-0.022 -92.00912,-1.16475 z m 67.86358,-50.86746 c 3.84429,-3.64857 6.27201,-5.73283 7.69572,-8.36483 1.17971,-2.18092 7.01527,-4.8201 7.01527,-4.8201 l 52.71096,-0.5 52.55928,-0.5 0,-42.67747 c 0,-41.34341 -0.0635,-42.76252 -2.03218,-45.39855 -1.1177,-1.4966 -3.58568,-3.55424 -5.4844,-4.57254 -3.28375,-1.76109 -7.67423,-1.85136 -89.96782,-1.84989 -80.39061,10e-4 -86.75836,0.12534 -89.94452,1.75 -1.8859,0.96165 -4.3609,3.01859 -5.5,4.57098 -2.01833,2.75065 -2.07108,3.90949 -2.07108,45.5 l 0,42.67747 4.93833,-0.25842 c 0,0 1.38251,-4.8e-4 4.02822,2.01684 2.6457,2.01731 10.33224,11.49684 10.33224,11.49684 6.85574,7.09392 19.57001,-2.48574 27.82248,-2.51248 7.39178,-0.024 23.34991,7.75822 27.8975,3.44215 z"
           style="fill:#174b7d;fill-opacity:1"
           sodipodi:nodetypes="ssscssscsscsscsssscccssssssscczcss" />
        <path
           inkscape:connector-curvature="0"
           id="path4240"
           d="m 193.87871,604.65621 c -1.00025,-0.21708 -2.01149,-0.48195 -2.2472,-0.58863 l -0.42855,-0.19387 0.44219,-2.1885 c 0.32547,-1.61083 0.5186,-2.17855 0.73166,-2.1509 0.15921,0.0205 1.10786,0.33261 2.10812,0.69311 1.61491,0.58202 2.05632,0.65553 3.94039,0.65569 1.77474,0 2.29548,-0.0758 3.18409,-0.466 2.91753,-1.28057 3.35566,-4.45327 0.7563,-5.47672 -0.33342,-0.13125 -1.66231,-0.28572 -2.9531,-0.3432 l -2.34688,-0.10449 0.15702,-0.7311 c 0.0863,-0.40219 0.26231,-1.25404 0.39101,-1.89306 l 0.23399,-1.16197 1.45069,0 c 1.8925,0 3.64562,-0.29692 4.55815,-0.76806 1.27975,-0.66074 2.02039,-2.59029 1.42285,-3.70685 -0.37168,-0.69446 -1.74283,-1.17254 -3.37692,-1.17752 -1.55874,-0.008 -4.12721,0.44611 -5.27636,0.92608 -0.37826,0.15802 -0.72695,0.24804 -0.77487,0.20012 -0.0909,-0.0909 0.70063,-4.17428 0.83532,-4.309 0.0424,-0.0426 0.92718,-0.2512 1.96618,-0.46411 5.65549,-1.15864 10.76031,-0.44744 12.42159,1.73055 0.48965,0.64195 0.59318,0.99036 0.65271,2.19631 0.0879,1.77974 -0.43557,3.31642 -1.56784,4.60277 -0.76559,0.86977 -2.66138,1.98135 -3.38578,1.9853 -0.20148,0 0.089,0.21401 0.64549,0.47311 1.97584,0.92016 2.84509,2.46559 2.68051,4.76583 -0.13666,1.91004 -0.92888,3.56415 -2.36147,4.93065 -2.17961,2.07896 -4.28986,2.7611 -8.90854,2.87979 -2.56932,0.0663 -3.45889,0.009 -4.95075,-0.31422 z m 22.83406,0.11459 c -2.44167,-0.46987 -3.1331,-0.7386 -3.12414,-1.21416 0.01,-0.5126 0.71595,-3.94195 0.83677,-4.06269 0.0473,-0.0474 0.77484,0.18147 1.6168,0.50841 4.4118,1.71309 8.92099,1.01587 9.99096,-1.54489 0.48377,-1.15785 0.36177,-2.0495 -0.38221,-2.79348 -0.80328,-0.80328 -2.07081,-1.11805 -4.50255,-1.11805 -1.23134,0 -1.7077,-0.0703 -1.70782,-0.25255 -9e-5,-0.13899 0.14875,-1.00284 0.33077,-1.91969 l 0.33091,-1.66713 1.43736,0 c 4.07172,-0.008 5.88728,-0.92308 6.13306,-3.1036 0.13539,-1.20113 -0.2495,-1.79727 -1.45858,-2.25901 -1.29109,-0.49309 -4.27015,-0.31454 -6.46159,0.38727 -0.88435,0.28319 -1.63401,0.48882 -1.66593,0.45692 -0.0319,-0.0316 0.13555,-1.02401 0.37213,-2.20461 l 0.43015,-2.14655 1.42584,-0.32433 c 2.61252,-0.59418 5.59075,-0.80439 7.763,-0.5479 2.50432,0.29567 3.66436,0.69628 4.7098,1.62639 2.62003,2.33103 0.92933,7.6908 -2.8553,9.05169 l -1.00835,0.36263 0.7649,0.38442 c 1.03493,0.5201 1.83083,1.28998 2.32266,2.24654 0.33715,0.65577 0.39361,1.06847 0.32004,2.33933 -0.21634,3.73702 -2.69221,6.44836 -6.9296,7.58862 -1.66205,0.44728 -6.80585,0.57031 -8.68908,0.20792 z m -38.19472,-0.57592 c 0.23369,-1.00711 0.71049,-3.42304 0.71049,-3.60001 0,-0.11213 -2.09069,-0.1889 -5.14778,-0.1889 l -5.14776,0 0.12556,-0.62773 c 0.069,-0.34533 0.31685,-1.52633 0.55064,-2.62448 l 0.42509,-1.99668 6.06214,-6.96673 6.06215,-6.9668 3.28365,-0.008 c 3.02563,-0.008 3.28366,0.0213 3.28366,0.35528 0,0.30466 -2.39676,12.54627 -2.72815,13.93417 -0.1057,0.4427 -0.066,0.45462 1.51187,0.45462 1.89376,0 1.82012,-0.15478 1.24976,2.62694 l -0.35217,1.71759 -1.70811,0.10109 -1.7081,0.10099 -0.3939,2.07123 -0.3939,2.07123 -2.89532,0 -2.89532,0 0.1055,-0.45464 z m 2.59833,-12.91775 c 0.51544,-2.57584 0.91369,-4.70677 0.88502,-4.73543 -0.0504,-0.0505 -6.83997,7.6495 -7.78878,8.83326 l -0.4693,0.58548 3.21795,0 3.21795,0 0.93716,-4.68331 z m 55.29835,13.19437 c 0,-0.104 1.04571,-5.34539 2.32382,-11.64751 1.27809,-6.30219 2.32382,-11.49367 2.32382,-11.53663 0,-0.0426 1.72159,-0.0782 3.82573,-0.0782 3.47,0 3.83524,0.0331 3.92774,0.35363 0.056,0.19449 0.66577,2.89969 1.35482,6.01158 0.68904,3.11189 1.30956,5.72271 1.37892,5.80176 0.0693,0.0791 1.85378,-2.60348 3.96542,-5.96113 l 3.83934,-6.10484 3.78658,-0.0553 c 2.95467,-0.0426 3.7886,0 3.79576,0.20208 0.005,0.14136 -1.01692,5.41742 -2.27105,11.72459 l -2.28024,11.46753 -2.88561,0 -2.88561,0 0.10881,-0.45462 c 0.41687,-1.74177 3.25326,-16.30382 3.15688,-16.2074 -0.0665,0.0663 -1.81433,2.81962 -3.88419,6.11812 l -3.76335,5.99729 -1.92513,0.0577 -1.92514,0.0577 -0.50704,-2.17933 c -0.27886,-1.19861 -0.89901,-3.92591 -1.3781,-6.06078 -0.47908,-2.1348 -0.92032,-3.83289 -0.98054,-3.7735 -0.0602,0.0592 -0.84089,3.76102 -1.73487,8.22598 l -1.62539,8.11811 -2.8707,0.056 c -1.68771,0.0331 -2.87068,-0.0221 -2.87068,-0.13306 z m 31.93711,-0.17563 c 0.006,-0.19449 1.03269,-5.44584 2.28283,-11.66962 l 2.273,-11.31599 2.80974,-0.0569 c 1.54536,-0.0308 2.91884,-0.0142 3.0522,0.0363 0.17704,0.0679 0.003,1.25547 -0.64555,4.40099 -0.4884,2.36941 -0.88866,4.33071 -0.88946,4.35851 -7.9e-4,0.0276 1.9852,0.0505 4.41334,0.0505 l 4.4148,0 0.88957,-4.39506 0.88958,-4.39508 2.98055,-0.056 c 2.74503,-0.0513 2.97978,-0.0276 2.97071,0.30309 -0.006,0.1975 -1.0327,5.45121 -2.28287,11.67507 l -2.27303,11.31599 -3.04455,0.0553 -3.04455,0.0561 0.88051,-4.40021 c 0.48428,-2.42011 0.93382,-4.65022 0.99895,-4.95584 l 0.11843,-0.55571 -4.41745,0 -4.41746,0 -1.00384,4.9507 -1.00386,4.95079 -2.98071,0 c -2.70781,0 -2.97981,-0.0324 -2.97088,-0.35363 z m 25.24909,0.26582 c 0,-0.095 0.5432,-2.77627 0.70201,-3.4652 0.0536,-0.23273 2.55546,-2.53683 5.59495,-5.15287 l 5.49792,-4.73187 -4.38476,-0.0545 -4.38477,-0.0545 0.10451,-0.45076 c 0.1611,-0.6947 0.70949,-3.39618 0.70949,-3.49497 0,-0.0482 3.04622,-0.0878 6.76939,-0.0878 l 6.76939,0 0,2.41655 0,2.41656 -4.98571,4.30228 -4.9857,4.30236 4.48052,0.0545 c 3.198,0.0387 4.48054,0.12059 4.48054,0.28564 0,0.12722 -0.15404,1.03482 -0.34229,2.01689 l -0.34229,1.78551 -7.84161,0 c -4.31287,0 -7.84159,-0.0395 -7.84159,-0.0878 z"
           style="fill:#f9f9f9" />
      </g>
      <path
         sodipodi:nodetypes="ccscsccsccscaccccccccccccccccscccccssssscssscsssscsssssssccscccccssccscscscssssssssssscsssssssssssssssssccsssssscscccsssscssssssccscsssssccsssssssssssssssssssssssssssscccsssscsscsssssssccssssssscsscssssssssssssssscsssccsssccccccssccssssccccccsscccsssscc"
         inkscape:connector-curvature="0"
         id="path4214"
         d="m -153.02416,1338.1428 0,-14.3783 5.226,0 c 2.8743,0 5.26911,-0.033 5.32178,-0.074 0.0527,-0.04 0.14036,0.4596 0.19486,1.1116 0.11903,1.4243 0.32563,3.6628 0.5062,5.4846 0.0727,0.7338 0.162,1.801 0.19838,2.3717 0.0365,0.5707 0.11768,1.3044 0.18063,1.6305 0.063,0.3262 0.14422,1.0599 0.18062,1.6306 0.10032,1.5729 0.29649,3.6508 0.39271,4.1593 0.0636,0.3363 0,0 0.0723,0.7049 0.0441,0.429 0.20231,0.953 0.16659,1.0341 -0.0357,0.081 16.82533,0.9805 25.23992,1.0028 8.50928,0.023 25.245273,-0.8921 25.524944,-0.8783 -0.03029,-0.7094 0.07707,-1.4349 0.124168,-2.1102 0.03067,-0.4399 0.105677,-1.0666 0.166704,-1.3927 0.06104,-0.3261 0.14743,-0.9932 0.19198,-1.4823 0.07692,-0.8447 0.185304,-1.8588 0.467244,-4.3728 0.168045,-1.4983 0.360738,-3.2492 0.50576,-4.5952 0.06584,-0.6114 0.198171,-1.7787 0.293963,-2.594 l 0.17418,-1.4823 6.49984,-0.077 6.499841,-0.077 0,14.3811 0,14.3812 -39.064364,0 -39.06435,0 z m 13.9282,2.051 c -0.0436,-0.258 -0.0793,-0.7488 -0.0793,-1.0907 0,-0.3419 -0.0552,-1.0315 -0.1228,-1.5322 -0.0675,-0.5008 -0.19467,-1.7109 -0.28252,-2.6892 -0.0878,-0.9782 -0.27433,-2.7793 -0.41438,-4.0022 -0.29995,-2.6191 -0.47686,-4.4687 -0.57438,-6.0051 -0.0388,-0.6125 -0.12325,-1.1874 -0.18751,-1.2776 -0.0643,-0.09 -0.11686,-0.6817 -0.11686,-1.3146 0,-0.633 -0.0588,-1.2334 -0.13065,-1.3341 -0.0719,-0.1009 -0.13065,-0.7011 -0.13065,-1.334 0,-0.6331 -0.0588,-1.2334 -0.13065,-1.3341 -0.0718,-0.1008 -0.13065,-0.7012 -0.13065,-1.3341 0,-0.6329 -0.0526,-1.2246 -0.11686,-1.3148 -0.0643,-0.09 -0.14864,-0.6649 -0.18752,-1.2774 -0.0388,-0.6124 -0.13754,-1.7806 -0.21925,-2.5958 -0.0817,-0.8153 -0.17886,-2.0271 -0.21585,-2.6928 l -0.0673,-1.2102 2.00382,-1.8719 c 3.29671,-3.0799 4.8984,-4.5877 7.09919,-6.6827 1.14971,-1.0945 2.91349,-2.7613 3.91949,-3.704 2.44434,-2.2906 4.47304,-4.2046 7.38174,-6.9643 4.69434,-4.4539 6.46942,-6.0695 6.672,-6.0726 0.11266,0 0.93576,0.6755 1.82911,1.5047 0.89333,0.8292 2.71192,2.5171 4.04128,3.751 3.26646,3.0318 5.70181,5.3017 7.96965,7.4282 1.04194,0.977 3.070275,2.8718 4.507431,4.2106 1.437149,1.3387 3.318512,3.0932 4.180795,3.8988 0.862291,0.8055 2.322307,2.1532 3.244486,2.9947 1.867497,1.7041 1.734397,1.3047 1.407612,4.2246 -0.328977,2.9394 -0.429511,3.9181 -0.495162,4.8201 -0.03865,0.5315 -0.12262,1.0397 -0.186543,1.1293 -0.06391,0.09 -0.116213,0.6142 -0.116213,1.1657 0,0.5513 -0.05228,1.0759 -0.116212,1.1655 -0.06391,0.09 -0.147857,0.5978 -0.186527,1.1293 -0.03866,0.5314 -0.13073,1.4998 -0.204577,2.152 -0.07382,0.6523 -0.170694,1.5861 -0.215259,2.0752 -0.04454,0.4892 -0.130939,1.1563 -0.191973,1.4823 -0.06105,0.3261 -0.140343,0.9265 -0.176264,1.3342 -0.03594,0.4076 -0.222493,2.0084 -0.41463,3.5575 -0.413111,3.3306 -0.578607,4.8414 -0.674151,6.1542 -0.03865,0.5315 -0.12262,1.0397 -0.186544,1.1293 -0.06391,0.09 -0.116212,0.5444 -0.116212,1.0106 0,0.4662 -0.03571,1.0586 -0.07931,1.3166 -0.07189,0.4252 -2.29872,0.4689 -23.894977,0.4689 -21.59625,0 -23.82306,-0.044 -23.89498,-0.4689 z m 13.99824,-6.4012 c 0.50481,-0.5403 0.55519,-0.6929 0.55437,-1.6796 -0.002,-0.9 -0.0732,-1.1893 -0.4246,-1.6945 -2.19975,-3.1628 -3.13899,-5.0324 -3.52888,-7.0247 -0.0877,-0.4484 -0.20401,-0.8152 -0.25832,-0.8152 -0.0543,0 -0.0987,-0.3257 -0.0987,-0.7236 0,-0.3981 -0.0588,-0.8062 -0.13066,-0.9069 -0.17807,-0.2498 -0.1657,-4.0733 0.0165,-5.1 0.71069,-4.0046 1.54946,-5.942 4.06629,-9.3924 0.51347,-0.704 0.50676,-2.2754 -0.0133,-3.1157 -0.50356,-0.8137 -1.52463,-1.2994 -2.24041,-1.0657 -1.39841,0.4564 -4.19189,5.0085 -5.36489,8.7423 -0.96043,3.0572 -1.34284,6.6787 -1.031,9.7639 0.0918,0.9074 0.21609,1.7766 0.27637,1.9315 0.0603,0.1549 0.10962,0.4715 0.10962,0.7036 0,0.4293 0.91147,3.4336 1.46107,4.8158 0.9209,2.3161 3.24332,5.7629 4.17068,6.1899 0.76742,0.3533 1.75692,0.098 2.43589,-0.6287 z m 23.35369,-0.3202 c 1.59293,-1.8145 2.797216,-4.0135 3.827234,-6.9882 0.953955,-2.7552 1.250715,-4.7261 1.238266,-8.2241 -0.009,-2.5346 -0.04818,-2.9426 -0.476285,-4.9622 -0.791077,-3.732 -2.646241,-7.6689 -4.785185,-10.1546 -1.29036,-1.4996 -3.15668,-1.0149 -3.72939,0.9684 -0.30244,1.0474 -0.0969,1.799 0.83086,3.038 1.23327,1.6471 2.76787,4.6133 2.76787,5.35 0,0.1626 0.0588,0.2957 0.13066,0.2957 0.0719,0 0.13065,0.2001 0.13065,0.4448 0,0.2445 0.0588,0.4447 0.13064,0.4447 0.0719,0 0.13065,0.2018 0.13065,0.4486 0,0.2468 0.0518,0.6804 0.11522,0.9636 0.0634,0.2831 0.18128,1.153 0.26202,1.9333 0.14732,1.4235 0.035,3.504 -0.25524,4.729 -0.0671,0.283 -0.122,0.7166 -0.122,0.9634 0,0.2469 -0.0588,0.4488 -0.13065,0.4488 -0.0719,0 -0.13064,0.1732 -0.13064,0.3851 0,0.8037 -1.25311,3.5469 -2.39989,5.2537 -1.39528,2.0765 -1.65027,2.5833 -1.65027,3.2805 0,0.7557 0.71825,1.9983 1.27769,2.2104 0.26735,0.1014 0.54488,0.2335 0.61674,0.2938 0.33417,0.2801 1.51243,-0.3155 2.22105,-1.1227 z m -18.10956,-5.1507 c 0.22555,-0.1024 0.62549,-0.6338 0.88878,-1.1811 0.43704,-0.9083 0.46435,-1.0556 0.31383,-1.6938 -0.0907,-0.3844 -0.54264,-1.2004 -1.00438,-1.8133 -1.37624,-1.8268 -1.84907,-3.5681 -1.66768,-6.142 0.0987,-1.4005 0.84457,-3.2097 1.75762,-4.2632 0.33014,-0.3809 0.69893,-1.0343 0.81956,-1.4521 0.20503,-0.71 0.20508,-0.8089 0.002,-1.5159 -0.36653,-1.2692 -0.91813,-1.733 -2.08046,-1.7491 -0.9436,-0.013 -1.14145,0.089 -1.92558,0.9917 -1.10598,1.2732 -2.29476,3.7014 -2.71084,5.5371 -0.44664,1.9705 -0.44976,4.792 -0.008,6.7434 0.45432,2.0045 1.42457,4.0206 2.62979,5.4645 0.88938,1.0656 1.16922,1.2599 1.81372,1.2599 0.41914,0 0.94661,-0.083 1.17216,-0.1861 z m 12.14934,-0.7092 c 1.21617,-1.3055 2.74784,-4.2264 2.75626,-5.2562 0.002,-0.2038 0.0618,-0.3706 0.13368,-0.3706 0.0719,0 0.13065,-0.259 0.13065,-0.5754 0,-0.3165 0.0588,-0.6579 0.13065,-0.7587 0.0719,-0.1007 0.13065,-1.0299 0.13065,-2.0648 0,-1.7808 -0.2831,-3.6699 -0.71858,-4.7948 -0.0718,-0.1856 -0.22398,-0.5858 -0.33807,-0.8894 -0.85336,-2.2706 -2.80122,-4.5561 -3.87994,-4.5525 -0.6478,0 -1.44909,0.5272 -1.88987,1.2381 -0.67072,1.0818 -0.40994,2.5218 0.68805,3.7998 0.5242,0.61 1.29177,2.2039 1.533,3.1833 0.22455,0.9116 0.20478,2.763 -0.0414,3.8831 -0.22535,1.0249 -1.04685,2.6504 -1.74859,3.4598 -0.61104,0.7048 -0.79028,1.1599 -0.79028,2.0066 0,1.5094 0.85758,2.5289 2.15572,2.5627 0.75968,0.019 1.05572,-0.1277 1.74814,-0.871 z m -5.62617,-6.785 c 1.80732,-2.0922 0.69418,-5.4512 -1.80652,-5.4512 -1.51519,0 -2.74236,1.4251 -2.74236,3.1848 0,0.8315 0.59226,1.9853 1.32396,2.579 0.9204,0.7469 2.43663,0.5999 3.22492,-0.3126 z m -37.99529,-7.2455 c 0,-0.056 0.10288,-0.3724 0.22864,-0.7017 0.12575,-0.3293 0.37561,-1.0375 0.55525,-1.5737 0.17965,-0.5362 0.62059,-1.7976 0.97988,-2.803 0.35929,-1.0054 0.80024,-2.2699 0.97988,-2.8098 0.17964,-0.54 0.41481,-1.2131 0.5226,-1.4957 0.10778,-0.2827 0.34295,-0.9527 0.52259,-1.4889 0.17965,-0.5363 0.6206,-1.7976 0.97988,-2.803 0.35929,-1.0054 0.80024,-2.2698 0.97988,-2.8098 0.17965,-0.54 0.41482,-1.2131 0.5226,-1.4957 0.10779,-0.2826 0.34296,-0.9497 0.5226,-1.4823 0.17964,-0.5327 0.41481,-1.2071 0.5226,-1.4989 0.10779,-0.2918 0.57812,-1.6275 1.04519,-2.9682 0.94872,-2.7231 0.80174,-2.5269 4.74876,-6.341 1.13875,-1.1004 2.11699,-1.8869 2.17388,-1.7478 0.0569,0.139 0.17186,1.0533 0.25545,2.0315 0.0836,0.9784 0.21158,2.4459 0.2844,3.2612 0.0728,0.8152 0.16343,2.1099 0.20134,2.8771 0.10581,2.1404 0.21725,2.1929 1.69241,0.7984 0.71046,-0.6716 2.23242,-2.0873 3.38215,-3.1461 1.14972,-1.0587 2.8547,-2.6349 3.78885,-3.5027 0.93415,-0.8677 2.69791,-2.4961 3.91949,-3.6185 l 2.22106,-2.0406 0.0859,-4.3067 c 0.0473,-2.3686 0.14981,-4.8288 0.2279,-5.467 0.0781,-0.6382 0.14232,-1.6015 0.14271,-2.1407 0.002,-0.9342 0.0484,-1.0299 1.01327,-2.0332 2.72042,-2.8287 3.97989,-3.9147 4.25918,-3.6726 0.30351,0.2631 5.04996,4.9905 7.59731,7.5668 1.66741,1.6864 4.14666,4.1876 6.92445,6.9858 0.934147,0.941 2.256981,2.2772 2.939623,2.9693 0.68265,0.692 1.961384,1.9724 2.841639,2.845 6.068865,6.0174 5.933472,5.8696 6.238536,6.8092 0.143721,0.4427 0.321308,0.9496 0.39466,1.1264 0.07336,0.177 0.367291,0.9886 0.653252,1.8036 0.285938,0.815 0.578684,1.6277 0.650541,1.8059 0.07189,0.1783 0.277634,0.7632 0.457275,1.2999 0.179648,0.5367 0.414815,1.2071 0.5226,1.4898 0.107784,0.2826 0.342959,0.9511 0.5226,1.4855 0.179648,0.5344 0.738177,2.1293 1.241179,3.5442 0.503002,1.4149 1.06153,3.0143 1.241171,3.5543 0.179648,0.54 0.414815,1.2195 0.5226,1.5101 0.296566,0.7997 0.53752,1.4718 1.110759,3.0979 0.287301,0.8151 0.581164,1.6277 0.65302,1.806 0.07189,0.1782 0.277633,0.7665 0.457274,1.3072 0.179641,0.5409 0.407116,1.1687 0.505496,1.3952 0.464812,1.0703 0.007,0.6961 -5.143572,-4.2065 -1.149717,-1.0942 -2.795912,-2.6517 -3.658203,-3.4612 -0.86229,-0.8093 -2.273311,-2.145 -3.135602,-2.9682 -3.035726,-2.8979 -4.593286,-4.3783 -6.663151,-6.3331 -1.149716,-1.0858 -2.972287,-2.8148 -4.050147,-3.8423 -1.07786,-1.0275 -3.04741,-2.8932 -4.37678,-4.146 -3.88347,-3.66 -6.39031,-6.0482 -7.53735,-7.1807 -0.58861,-0.5812 -1.17653,-0.9831 -1.3065,-0.8932 -0.12997,0.09 -1.32398,1.1892 -2.65335,2.4429 -1.32936,1.2536 -3.03434,2.8502 -3.78885,3.5478 -3.64529,3.3705 -9.30686,8.6416 -14.17552,13.1978 -1.00601,0.9415 -3.00495,2.8007 -4.44211,4.1316 -1.43715,1.331 -3.14213,2.9301 -3.78885,3.5536 -0.64672,0.6235 -1.58739,1.5 -2.09039,1.9475 -0.50301,0.4478 -1.81623,1.6652 -2.9183,2.7055 -1.10206,1.0403 -2.05744,1.816 -2.12306,1.724 -0.0656,-0.092 -0.11933,-0.026 -0.11933,0.1466 0,0.1728 -0.0588,0.3141 -0.13064,0.3141 -0.0719,0 -0.13065,-0.046 -0.13065,-0.1029 z m 17.18909,-25.5979 c -0.14957,-1.3826 -0.34451,-3.7254 -0.41462,-4.983 -0.0364,-0.6522 -0.11821,-1.4526 -0.18192,-1.7788 -0.0637,-0.3261 -0.14555,-1.1265 -0.18192,-1.7787 -0.0363,-0.6523 -0.126,-1.8529 -0.1992,-2.6681 -0.0732,-0.8153 -0.18323,-2.1828 -0.24451,-3.0387 l -0.11142,-1.5565 6.97144,0 6.97144,0 -0.0377,2.5551 -0.0377,2.5551 -2.22104,2.0545 c -1.22158,1.1299 -2.77958,2.5661 -3.46222,3.1914 -1.09901,1.0065 -6.23301,5.7718 -6.61381,6.1387 -0.0806,0.078 -0.18717,-0.2332 -0.2367,-0.691 z m -1.24979,-17.286 c 0,-0.1631 0.0588,-0.2965 0.13065,-0.2965 0.0718,0 0.13066,-0.1385 0.13066,-0.3079 0,-0.1693 0.35426,-1.5033 0.78726,-2.9646 l 0.78727,-2.6567 6.21461,0 6.21458,0 -0.0774,1.6305 -0.15483,3.261 -0.0775,1.6306 -6.97768,0 c -4.56469,0 -6.9777,-0.1026 -6.9777,-0.2964 z m 12.3209,-2.2235 c 0.0603,-0.6523 0.12001,-1.5861 0.13285,-2.0752 l 0.0233,-0.8894 -4.1808,-0.083 c -2.29944,-0.046 -4.30766,-0.013 -4.46272,0.073 -0.23284,0.1286 -1.3512,3.5691 -1.3512,4.1567 0,0.088 2.18904,0.1242 4.86452,0.082 l 4.86452,-0.078 z"
         style="fill:#4d4d4d" />
      <g
         id="g4155"
         transform="matrix(0.82699653,0,0,0.96678539,23.502535,183.08864)">
        <g
           transform="translate(-7.6293945e-6,910.62992)"
           style="font-style:normal;font-weight:normal;font-size:40px;line-height:125%;font-family:sans-serif;letter-spacing:0px;word-spacing:0px;fill:#550000;fill-opacity:1;stroke:none;stroke-width:1px;stroke-linecap:butt;stroke-linejoin:miter;stroke-opacity:1"
           id="flowRoot4157">
          <path
             d="m -99.580078,226.99106 q 2.363281,0 3.554687,-0.87891 1.210938,-0.8789 1.621094,-2.89062 0.390625,-1.99219 -0.46875,-2.85156 -0.839844,-0.85938 -3.203125,-0.85938 l -3.164058,0 -1.50391,7.48047 3.164062,0 z m -4.199222,5.19531 -2.20703,11.03516 -7.51953,0 5.83984,-29.16016 11.484379,0 q 5.761719,0 8.046875,1.9336 2.304688,1.93359 1.464844,6.11328 -0.566406,2.89062 -2.34375,4.74609 -1.757812,1.85547 -4.746094,2.73438 1.464844,0.35156 2.441407,1.60156 0.976562,1.23047 1.71875,3.75 l 2.421875,8.28125 -8.007813,0 -2.109375,-7.24609 q -0.625,-2.1875 -1.582031,-2.98829 -0.9375,-0.80078 -2.773437,-0.80078 l -2.12891,0 z"
             style="font-style:italic;font-variant:normal;font-weight:bold;font-stretch:normal;font-family:sans-serif;-inkscape-font-specification:'sans-serif Bold Italic';fill:#550000"
             id="path4174"
             inkscape:connector-curvature="0" />
          <path
             d="m -76.884766,214.06137 20.292969,0 -1.152344,5.6836 -12.773437,0 -1.074219,5.42968 12.011719,0 -1.132813,5.6836 -12.011718,0 -2.480469,12.36328 -7.519531,0 5.839843,-29.16016 z"
             style="font-style:italic;font-variant:normal;font-weight:bold;font-stretch:normal;font-family:sans-serif;-inkscape-font-specification:'sans-serif Bold Italic';fill:#550000"
             id="path4176"
             inkscape:connector-curvature="0" />
        </g>
        <g
           transform="translate(-3.0304652,945.98526)"
           style="font-style:normal;font-weight:normal;font-size:40px;line-height:125%;font-family:sans-serif;letter-spacing:0px;word-spacing:0px;fill:#000000;fill-opacity:1;stroke:none;stroke-width:1px;stroke-linecap:butt;stroke-linejoin:miter;stroke-opacity:1"
           id="flowRoot4165">
          <path
             d="m -107.66602,214.06137 7.51954,0 -4.70704,23.47657 13.203129,0 -1.132812,5.68359 -20.722657,0 5.83984,-29.16016 z"
             style="font-style:italic;font-variant:normal;font-weight:bold;font-stretch:normal;font-family:sans-serif;-inkscape-font-specification:'sans-serif Bold Italic'"
             id="path4179"
             inkscape:connector-curvature="0" />
          <path
             d="m -83.974609,221.34653 6.992187,0 -4.375,21.875 -6.992187,0 4.375,-21.875 z m 1.699218,-8.51563 6.992188,0 -1.132813,5.70313 -6.992187,0 1.132812,-5.70313 z"
             style="font-style:italic;font-variant:normal;font-weight:bold;font-stretch:normal;font-family:sans-serif;-inkscape-font-specification:'sans-serif Bold Italic'"
             id="path4181"
             inkscape:connector-curvature="0" />
          <path
             d="m -49.951172,229.90122 -2.65625,13.32031 -7.03125,0 0.429688,-2.16797 1.601562,-8.02734 q 0.566406,-2.83203 0.644531,-3.90625 0.09766,-1.07422 -0.09766,-1.58203 -0.273437,-0.6836 -0.917969,-1.05469 -0.625,-0.39063 -1.523437,-0.39063 -2.1875,0 -3.769531,1.69922 -1.582032,1.67969 -2.1875,4.66797 l -2.148438,10.76172 -6.992187,0 4.375,-21.875 6.992187,0 -0.644531,3.20312 q 1.972656,-1.91406 3.925781,-2.8125 1.953125,-0.91796 4.101563,-0.91796 3.789062,0 5.292968,2.32421 1.503907,2.32422 0.605469,6.75782 z"
             style="font-style:italic;font-variant:normal;font-weight:bold;font-stretch:normal;font-family:sans-serif;-inkscape-font-specification:'sans-serif Bold Italic'"
             id="path4183"
             inkscape:connector-curvature="0" />
          <path
             d="m -40.009766,212.8309 6.992188,0 -3.300781,16.54297 9.648437,-8.02734 8.125,0 -12.695312,10.03906 9.160156,11.83594 -8.476563,0 -6.71875,-9.12109 -1.816406,9.12109 -6.992187,0 6.074218,-30.39063 z"
             style="font-style:italic;font-variant:normal;font-weight:bold;font-stretch:normal;font-family:sans-serif;-inkscape-font-specification:'sans-serif Bold Italic'"
             id="path4185"
             inkscape:connector-curvature="0" />
        </g>
      </g>
    </g>
  </g>
</svg>
